# .PCD v0.7
VERSION 0.7
FIELDS x y z
SIZE 4 4 4
TYPE F F F
COUNT 1 1 1
WIDTH 4449
HEIGHT 1
POINTS 4449
DATA ascii
6.1659 -0.0626 0.5000
3.5336 -0.4071 0.5000
11.6174 -2.8274 0.5000
3.1423 -1.1456 0.5000
1.5152 -0.7665 0.5000
2.8005 -1.8232 0.5000
-1.6689 -0.1412 0.5000
-1.8796 -0.0255 0.5000
-2.0822 0.0552 0.5000
-2.3760 0.2231 0.5000
-2.7701 0.4235 0.5000
-3.2471 0.6015 0.5000
-4.1360 1.1224 0.5000
-2.9478 0.9297 0.5000
-4.5969 1.8726 0.5000
-6.1607 2.7520 0.5000
-5.7965 3.2439 0.5000
-5.7885 3.4416 0.5000
-5.2188 3.7750 0.5000
-4.4438 3.3500 0.5000
-4.1731 3.8363 0.5000
-4.1086 3.9451 0.5000
-3.6443 4.2095 0.5000
-3.4352 4.1861 0.5000
-3.1370 4.6925 0.5000
-3.0767 4.7917 0.5000
-2.8135 5.5096 0.5000
-2.7285 5.4931 0.5000
-2.5894 6.9291 0.5000
-2.5440 7.0212 0.5000
-1.9571 8.1495 0.5000
-1.8983 8.0892 0.5000
-1.1716 9.5997 0.5000
-1.1367 9.6558 0.5000
1.0163 9.5879 0.5000
1.1008 9.5039 0.5000
1.0830 4.7505 0.5000
1.1342 4.8634 0.5000
2.9873 8.5321 0.5000
3.0562 8.5194 0.5000
4.5657 1.5506 0.5000
5.6101 1.2017 0.5000
6.1830 -0.0261 0.5000
11.6439 -2.7673 0.5000
0.6355 -1.3484 0.5000
-1.3262 -0.3235 0.5000
-1.4455 -0.2875 0.5000
-1.5518 -0.2232 0.5000
-1.6886 -0.1756 0.5000
-1.8590 -0.0676 0.5000
-2.1138 0.0518 0.5000
-2.3963 0.1936 0.5000
-4.2473 1.1026 0.5000
-4.5898 1.8313 0.5000
-6.1753 2.7071 0.5000
-5.8310 3.1756 0.5000
-5.8000 3.4247 0.5000
-5.0691 3.6473 0.5000
-4.4461 3.3366 0.5000
-3.5732 4.1503 0.5000
-3.4624 4.1320 0.5000
-3.1698 4.6898 0.5000
-3.1046 4.7065 0.5000
-2.8047 5.4477 0.5000
-2.7577 5.4978 0.5000
-2.6367 6.9648 0.5000
-2.5643 7.0264 0.5000
-2.0140 8.0877 0.5000
-1.9553 8.1860 0.5000
-1.2459 9.6153 0.5000
-1.2461 9.6728 0.5000
0.9998 9.5748 0.5000
1.0463 9.4752 0.5000
1.0435 4.7408 0.5000
1.0546 4.6970 0.5000
2.9805 8.5774 0.5000
3.0063 8.5329 0.5000
3.5423 2.2375 0.5000
4.2826 1.8799 0.5000
6.2859 0.3675 0.5000
6.8630 -0.3928 0.5000
11.9363 -2.1050 0.5000
11.3218 -3.4123 0.5000
3.1634 -1.1083 0.5000
3.0530 -1.3198 0.5000
1.5787 -0.7251 0.5000
2.8167 -1.7932 0.5000
0.6467 -1.3633 0.5000
0.4314 -1.2562 0.5000
0.4018 -1.2275 0.5000
0.2198 -1.1512 0.5000
-0.1307 -0.9757 0.5000
-0.2638 -0.9066 0.5000
-0.5268 -0.7828 0.5000
-0.5659 -0.7587 0.5000
-0.6177 -0.7119 0.5000
-0.6492 -0.6865 0.5000
-0.7204 -0.6492 0.5000
-0.7735 -0.6284 0.5000
-0.8771 -0.5658 0.5000
-0.9956 -0.5189 0.5000
-0.9795 -0.4970 0.5000
-1.1199 -0.4733 0.5000
-1.1657 -0.4419 0.5000
-1.3112 -0.3559 0.5000
-1.3676 -0.3395 0.5000
-1.5251 -0.2445 0.5000
-2.0975 0.0267 0.5000
-2.3063 0.1630 0.5000
-2.6923 0.3202 0.5000
-3.1083 0.5537 0.5000
-3.9692 0.9916 0.5000
-4.8062 1.4376 0.5000
-6.3443 2.3916 0.5000
-6.2095 2.6313 0.5000
-5.9642 3.1171 0.5000
-5.8785 3.2698 0.5000
-5.5007 3.7938 0.5000
-4.5498 3.2856 0.5000
-4.2514 3.7349 0.5000
-4.2117 3.8148 0.5000
-3.9338 4.3601 0.5000
-3.7273 4.2425 0.5000
-3.2099 4.5564 0.5000
-1.9503 2.8308 0.5000
-2.8759 5.2604 0.5000
-1.3952 2.5448 0.5000
-2.7136 6.7930 0.5000
-1.3031 3.2908 0.5000
-2.1251 7.9049 0.5000
-0.9115 3.3621 0.5000
-1.3755 9.3996 0.5000
-0.5572 3.9165 0.5000
0.3846 4.3549 0.5000
3.2652 -0.8753 0.5000
2.9486 -1.1759 0.5000
1.5496 -0.6801 0.5000
1.5118 -0.8066 0.5000
2.0760 -1.4538 0.5000
0.7208 -1.3856 0.5000
0.4697 -1.2649 0.5000
0.2732 -1.1718 0.5000
-0.2399 -0.9210 0.5000
-0.3198 -0.8779 0.5000
-0.7211 -0.6551 0.5000
-0.8368 -0.6085 0.5000
-0.9371 -0.5260 0.5000
-1.2850 -0.3790 0.5000
-1.4953 -0.2615 0.5000
-1.7868 -0.1128 0.5000
-2.1514 0.0757 0.5000
-2.4223 0.1855 0.5000
-2.8808 0.3993 0.5000
-3.4253 0.6930 0.5000
-2.8302 0.9313 0.5000
-1.6063 2.0985 0.5000
0.8646 -1.4767 0.5000
0.5932 -1.3216 0.5000
0.3700 -1.2065 0.5000
0.1962 -1.1280 0.5000
-0.0808 -0.9966 0.5000
-0.1512 -0.9635 0.5000
-0.3794 -0.8435 0.5000
-0.3553 -0.8741 0.5000
-0.4695 -0.8149 0.5000
-0.5734 -0.7278 0.5000
-0.5440 -0.7495 0.5000
-0.6691 -0.6776 0.5000
-1.0187 -0.5133 0.5000
-1.6601 -0.2026 0.5000
-0.8246 -0.5994 0.5000
0.3715 -1.0240 0.5000
0.2292 -0.9872 0.5000
0.2689 -1.0521 0.5000
-0.1008 -1.0052 0.5000
-1.0973 -0.4745 0.5000
-1.1429 -0.4462 0.5000
-1.2378 -0.3767 0.5000
1.4922 -0.7452 0.5000
1.3699 -0.6713 0.5000
1.3204 -0.8831 0.5000
0.5584 -1.3503 0.5000
0.3966 -1.2586 0.5000
-1.0159 -0.4981 0.5000
-1.3738 -0.2963 0.5000
-1.8219 -0.0967 0.5000
-2.2849 0.1743 0.5000
-2.6974 0.4194 0.5000
-3.0232 0.5626 0.5000
-3.9617 1.0890 0.5000
-4.9176 1.5289 0.5000
-6.2859 2.5145 0.5000
-5.8846 3.2328 0.5000
-5.4200 3.8981 0.5000
-3.8429 4.4219 0.5000
-1.4412 2.0504 0.5000
-1.3289 2.5563 0.5000
-1.1302 2.9350 0.5000
-0.8527 3.3169 0.5000
2.4087 1.8985 0.5000
3.2626 -0.9517 0.5000
3.1781 -1.0796 0.5000
2.9304 -1.2639 0.5000
3.0260 -1.3754 0.5000
1.4877 -0.8270 0.5000
1.4652 -0.8656 0.5000
2.0339 -1.5310 0.5000
1.9618 -1.5048 0.5000
0.2878 -1.2081 0.5000
-0.4562 -0.6827 0.5000
-1.4576 -0.2464 0.5000
-1.6050 -0.1689 0.5000
-1.7931 -0.0797 0.5000
-1.9842 0.0357 0.5000
-2.1837 0.1390 0.5000
-2.5406 0.3174 0.5000
-2.8834 0.4985 0.5000
-3.5927 0.8819 0.5000
-4.2455 1.2174 0.5000
-6.3541 2.3778 0.5000
-5.9773 3.0977 0.5000
-5.5358 3.7367 0.5000
-4.2410 3.6704 0.5000
-4.1884 3.7902 0.5000
-3.9451 4.2655 0.5000
-3.8870 4.3657 0.5000
-3.2050 4.5321 0.5000
-3.1981 4.5536 0.5000
-2.8443 5.1817 0.5000
-2.8206 5.2490 0.5000
-2.6924 6.6286 0.5000
-2.6642 6.6577 0.5000
-2.1272 7.6686 0.5000
-2.1366 7.7478 0.5000
-1.4269 9.0933 0.5000
-1.3678 9.0950 0.5000
1.8025 9.0618 0.5000
2.8148 8.6940 0.5000
3.7136 8.1594 0.5000
4.0481 0.5569 0.5000
6.3647 -0.1852 0.5000
-1.5719 -0.1885 0.5000
-4.2609 3.6603 0.5000
-4.2463 3.7514 0.5000
-3.2252 4.4919 0.5000
-2.8782 5.1622 0.5000
-2.7245 6.6449 0.5000
-2.1494 7.5246 0.5000
-2.1271 7.7584 0.5000
-1.4111 9.0135 0.5000
-1.3760 9.1417 0.5000
1.7734 9.2111 0.5000
0.9436 4.8477 0.5000
2.7474 8.6655 0.5000
3.6040 8.2291 0.5000
3.4252 2.3132 0.5000
4.3822 1.6522 0.5000
6.1600 0.1544 0.5000
11.8205 -2.4480 0.5000
3.1942 -1.0336 0.5000
1.5822 -0.6860 0.5000
-1.9595 -0.0127 0.5000
-2.5031 0.2691 0.5000
-4.3129 1.2311 0.5000
-6.2870 2.2940 0.5000
-5.9160 2.9856 0.5000
-5.9086 3.2236 0.5000
-5.4581 3.8558 0.5000
-3.9851 4.2586 0.5000
-3.2432 4.4368 0.5000
-2.9264 5.2042 0.5000
-2.7321 6.7152 0.5000
-2.1917 7.7196 0.5000
-2.1443 7.8236 0.5000
-1.4804 9.0743 0.5000
-1.4153 9.1612 0.5000
0.8538 4.7869 0.5000
0.9387 4.7867 0.5000
2.6860 8.7383 0.5000
2.7861 8.6970 0.5000
4.0805 0.5836 0.5000
6.1486 0.1778 0.5000
11.8128 -2.3502 0.5000
-2.2200 0.1045 0.5000
-2.5907 0.2920 0.5000
-2.9231 0.4618 0.5000
-3.6511 0.8270 0.5000
-4.3525 1.2388 0.5000
-5.5701 3.6826 0.5000
-5.4907 3.8187 0.5000
-4.3022 3.6597 0.5000
-3.2501 4.4654 0.5000
-2.9230 5.2000 0.5000
-2.8521 5.2220 0.5000
-2.7959 6.6229 0.5000
-2.7743 6.6988 0.5000
-2.2466 7.7535 0.5000
-2.1987 7.7968 0.5000
-1.5411 9.1230 0.5000
-1.4726 9.1852 0.5000
1.6643 9.1150 0.5000
1.7087 9.1512 0.5000
3.6066 8.2513 0.5000
9.3889 4.5341 0.5000
4.5305 1.5960 0.5000
6.3342 0.6384 0.5000
6.3703 -0.1044 0.5000
12.1215 -1.7408 0.5000
11.4624 -3.0288 0.5000
3.2387 -0.9742 0.5000
3.1149 -1.2082 0.5000
3.0087 -1.3059 0.5000
1.5257 -0.8530 0.5000
2.0191 -1.4585 0.5000
-0.2926 -0.7919 0.5000
-0.3066 -0.8459 0.5000
-1.9249 -0.0547 0.5000
-2.4772 0.2498 0.5000
-2.8172 0.4174 0.5000
-3.4564 0.7134 0.5000
-4.1801 1.0731 0.5000
-2.8280 0.9892 0.5000
-6.0937 2.8826 0.5000
-5.6370 3.5059 0.5000
-4.3657 3.5076 0.5000
-4.3077 3.6214 0.5000
-4.0045 4.1262 0.5000
-4.0041 4.2336 0.5000
-3.3521 4.3503 0.5000
-1.5889 2.0936 0.5000
-3.0089 5.0694 0.5000
-1.7922 3.0803 0.5000
-2.8902 6.4950 0.5000
-1.2553 2.8024 0.5000
-2.3112 7.4705 0.5000
-0.9565 3.1706 0.5000
1.6309 -0.6600 0.5000
1.5460 -0.7450 0.5000
1.3538 -0.7631 0.5000
2.7824 -1.8432 0.5000
0.7630 -1.4061 0.5000
0.5347 -1.3309 0.5000
0.3148 -1.2119 0.5000
-0.0774 -1.0045 0.5000
-0.1986 -0.9389 0.5000
-0.2933 -0.8927 0.5000
-0.4915 -0.7982 0.5000
-0.9167 -0.5680 0.5000
-1.0612 -0.5090 0.5000
-1.2227 -0.4143 0.5000
-2.0167 -0.0218 0.5000
-2.2380 0.0974 0.5000
-2.9562 0.4424 0.5000
-4.8620 1.3306 0.5000
-1.8132 2.1135 0.5000
-1.3027 1.9795 0.5000
0.6721 -1.3813 0.5000
0.3555 -1.0705 0.5000
0.2162 -1.1477 0.5000
-1.5117 -0.2677 0.5000
-0.8976 -0.5481 0.5000
0.2939 -1.0066 0.5000
0.3109 -1.1123 0.5000
0.1861 -1.1520 0.5000
-0.3108 -0.9015 0.5000
-1.7222 -0.1415 0.5000
1.5143 -0.6330 0.5000
1.4803 -0.6427 0.5000
1.3494 -0.7749 0.5000
0.7209 -1.4339 0.5000
0.4854 -1.3114 0.5000
-1.9303 -0.0397 0.5000
-2.4497 0.2559 0.5000
-2.6984 0.3569 0.5000
-3.3710 0.7577 0.5000
-3.8124 1.0072 0.5000
-2.8023 1.0178 0.5000
-6.3313 2.4113 0.5000
-6.0487 2.9522 0.5000
-5.5900 3.6409 0.5000
-4.3171 3.5820 0.5000
-4.2770 3.6237 0.5000
-3.9963 4.1753 0.5000
-1.5565 2.1333 0.5000
-1.7788 3.0103 0.5000
-1.2023 2.7911 0.5000
-1.0990 3.5856 0.5000
-0.7727 4.3367 0.5000
4.4179 1.6259 0.5000
6.0925 -0.0115 0.5000
3.3005 -0.8403 0.5000
3.2575 -0.9408 0.5000
3.1429 -1.1506 0.5000
3.0817 -1.2566 0.5000
1.4847 -0.7588 0.5000
2.7564 -1.8856 0.5000
2.7250 -1.9463 0.5000
-1.2960 -0.3417 0.5000
-2.0130 0.0430 0.5000
-2.6975 6.5851 0.5000
-1.0545 3.7644 0.5000
-2.0893 7.4720 0.5000
-0.7446 4.4084 0.5000
-1.3652 8.7283 0.5000
3.6568 8.1979 0.5000
2.2540 1.9812 0.5000
9.3195 4.4312 0.5000
4.5466 1.5439 0.5000
5.6274 1.1869 0.5000
6.4050 0.5924 0.5000
6.2917 -0.1937 0.5000
12.6859 -1.8814 0.5000
3.2206 -1.0013 0.5000
3.0995 -1.2265 0.5000
2.9981 -1.3060 0.5000
0.1426 -1.1326 0.5000
-3.4449 0.7958 0.5000
-4.0376 1.1078 0.5000
-5.9403 3.1787 0.5000
-4.2283 3.7008 0.5000
-3.9500 4.2251 0.5000
-3.9323 4.3429 0.5000
-3.2738 4.4083 0.5000
-2.9010 5.0953 0.5000
-2.7516 6.5114 0.5000
-2.7059 6.5959 0.5000
-2.1882 7.3948 0.5000
-2.1150 7.5621 0.5000
-1.5071 8.8893 0.5000
-1.4602 8.9963 0.5000
1.6273 9.1249 0.5000
2.6334 8.7056 0.5000
2.7104 8.7002 0.5000
3.5692 8.2515 0.5000
3.4771 2.3697 0.5000
4.2841 1.6872 0.5000
4.0375 0.6229 0.5000
6.1976 0.2244 0.5000
11.8970 -2.2773 0.5000
-2.4887 0.2840 0.5000
-3.4909 0.7501 0.5000
-6.2807 2.2443 0.5000
-6.3159 2.4646 0.5000
-5.9413 2.9363 0.5000
-5.4665 3.7877 0.5000
-3.9628 4.2185 0.5000
-3.2279 4.3893 0.5000
-2.9415 5.1148 0.5000
-2.2292 7.6128 0.5000
-2.1719 7.5426 0.5000
-1.5099 8.9098 0.5000
-1.4959 9.0495 0.5000
1.6194 9.2182 0.5000
0.8859 4.8251 0.5000
5.1882 2.7537 0.5000
-3.5246 0.7560 0.5000
-4.1549 1.1178 0.5000
-6.3313 2.1635 0.5000
-6.0495 2.9497 0.5000
-5.6209 3.6085 0.5000
-3.3092 4.4250 0.5000
-2.9847 5.0734 0.5000
-2.8297 6.5314 0.5000
-2.8137 6.5727 0.5000
-2.2451 7.4492 0.5000
-2.2901 7.6811 0.5000
-1.5844 8.9958 0.5000
-1.5943 9.0019 0.5000
1.5631 9.1863 0.5000
1.6424 9.1696 0.5000
2.5918 8.7423 0.5000
3.4823 8.2861 0.5000
9.2453 4.6342 0.5000
4.5256 1.6070 0.5000
5.6506 1.3201 0.5000
6.3962 0.7272 0.5000
6.2204 -0.0015 0.5000
12.7459 -1.6442 0.5000
11.5997 -2.8558 0.5000
3.0267 -1.2533 0.5000
0.5020 -1.2788 0.5000
-1.7145 -0.1576 0.5000
-2.1139 0.0350 0.5000
-2.7142 0.3321 0.5000
-3.2968 0.6459 0.5000
-3.9024 0.9292 0.5000
-2.9681 0.9522 0.5000
-6.3671 2.3126 0.5000
-6.1271 2.7525 0.5000
-5.6801 3.4354 0.5000
-4.4209 3.4080 0.5000
-4.0702 4.0912 0.5000
-3.3906 4.2997 0.5000
-3.0691 4.9634 0.5000
-1.8323 2.9740 0.5000
-2.9623 6.3837 0.5000
-1.2781 2.7635 0.5000
-2.4135 7.4251 0.5000
-0.8776 4.3340 0.5000
1.5290 -0.5831 0.5000
1.3945 -0.7339 0.5000
1.8404 -1.4874 0.5000
0.8493 -1.4472 0.5000
-1.4123 -0.3066 0.5000
-1.6216 -0.2155 0.5000
-2.7677 0.3956 0.5000
0.3723 -0.9994 0.5000
0.3715 -1.1998 0.5000
-1.1996 -0.3943 0.5000
-2.0239 0.0531 0.5000
1.4072 -0.7541 0.5000
-1.8402 -0.0484 0.5000
-2.3391 0.2185 0.5000
-2.5538 0.3268 0.5000
-3.1956 0.6681 0.5000
-3.6212 0.8842 0.5000
-2.8690 0.9655 0.5000
-6.0130 3.0263 0.5000
-5.6907 3.5540 0.5000
-4.3373 3.4991 0.5000
-3.3234 4.3499 0.5000
-1.6485 2.1489 0.5000
-1.8225 3.0060 0.5000
-1.1810 1.9867 0.5000
-1.2441 2.7372 0.5000
-1.1324 3.5329 0.5000
-0.8409 4.2207 0.5000
-0.7004 3.6263 0.5000
0.6951 4.3529 0.5000
1.2506 4.5685 0.5000
-3.9399 1.0630 0.5000
-4.7098 1.4926 0.5000
-6.0913 2.6524 0.5000
-5.8199 3.3737 0.5000
-4.8456 3.5674 0.5000
-4.1412 3.8825 0.5000
-3.8683 4.4150 0.5000
-3.7777 4.4322 0.5000
-3.1582 4.6138 0.5000
-2.7889 5.3293 0.5000
-2.7584 5.3611 0.5000
-2.5996 6.7897 0.5000
-2.5789 6.8478 0.5000
-1.9936 7.8457 0.5000
-1.9740 7.9201 0.5000
-0.6065 4.6166 0.5000
-1.2052 9.3443 0.5000
0.4319 4.3754 0.5000
1.0304 4.8026 0.5000
3.8712 8.1038 0.5000
2.3505 1.9020 0.5000
9.6100 4.2734 0.5000
4.7135 1.4844 0.5000
6.3172 0.4187 0.5000
6.5855 -0.3367 0.5000
3.4515 -0.3564 0.5000
11.9520 -2.0560 0.5000
11.3330 -3.3989 0.5000
2.9198 -1.2479 0.5000
1.4810 -0.9093 0.5000
-0.5031 -0.6698 0.5000
-2.6320 0.3680 0.5000
-2.9759 0.5137 0.5000
-3.7520 0.9557 0.5000
-4.5854 1.3787 0.5000
-6.2309 2.4157 0.5000
-6.1093 2.6144 0.5000
-5.9474 3.1456 0.5000
-5.8570 3.3138 0.5000
-4.9602 3.6015 0.5000
-2.8212 5.2837 0.5000
-2.6956 6.7294 0.5000
-2.6197 6.8256 0.5000
-2.0609 7.8444 0.5000
-2.0314 7.9058 0.5000
-1.3461 9.2541 0.5000
-1.2775 9.3623 0.5000
1.0096 4.9904 0.5000
2.8386 8.6303 0.5000
2.9121 8.6130 0.5000
6.1118 0.0815 0.5000
3.5360 -0.3412 0.5000
11.7104 -2.5679 0.5000
2.8421 -1.7443 0.5000
-3.0420 0.5202 0.5000
-3.8821 0.9997 0.5000
-4.6170 1.3715 0.5000
-6.2388 2.3884 0.5000
-6.1262 2.5753 0.5000
-5.8772 3.0983 0.5000
-4.8196 3.5005 0.5000
-3.7718 4.3040 0.5000
-3.1802 4.5445 0.5000
-2.8150 5.3778 0.5000
-2.6709 6.7725 0.5000
-2.6597 6.8658 0.5000
-2.1416 7.8598 0.5000
-2.0699 8.0007 0.5000
-1.3584 9.3456 0.5000
-1.3335 9.4368 0.5000
0.9634 4.8439 0.5000
2.8717 8.6219 0.5000
6.0929 0.0543 0.5000
-2.2580 0.1193 0.5000
-3.8555 0.9397 0.5000
-4.6457 1.3206 0.5000
-6.3434 2.3336 0.5000
-6.1406 2.5493 0.5000
-4.8166 3.4653 0.5000
-3.2501 4.5921 0.5000
-3.2009 4.6028 0.5000
-2.8563 5.3371 0.5000
-2.1980 7.8738 0.5000
-1.4153 9.3400 0.5000
-1.4432 9.3551 0.5000
0.9397 4.9155 0.5000
0.9053 4.8794 0.5000
2.7478 8.6490 0.5000
2.3153 1.9670 0.5000
4.6482 1.5583 0.5000
6.3257 0.5774 0.5000
6.5241 -0.1926 0.5000
12.0592 -1.8230 0.5000
2.9621 -1.1927 0.5000
1.9554 -1.4912 0.5000
-1.1639 -0.4528 0.5000
-2.5421 0.2470 0.5000
-2.8700 0.4082 0.5000
-3.5340 0.7422 0.5000
-4.2632 1.1011 0.5000
-6.4361 2.1942 0.5000
-4.6105 1.7663 0.5000
-5.6198 3.5978 0.5000
-3.9609 4.1325 0.5000
-3.3596 4.4423 0.5000
-1.5168 2.0623 0.5000
-2.8526 6.5153 0.5000
-1.1518 3.7208 0.5000
-0.8356 4.4002 0.5000
1.4701 -0.5875 0.5000
-1.7544 -0.1567 0.5000
0.4237 -1.1677 0.5000
0.3397 -0.9898 0.5000
-1.5263 2.1229 0.5000
-1.7451 3.0529 0.5000
-1.1605 2.8501 0.5000
-1.1807 2.8440 0.5000
-0.9250 3.2230 0.5000
-0.9266 3.1867 0.5000
-0.5860 3.5523 0.5000
3.3828 2.1671 0.5000
6.2397 -0.1304 0.5000
3.3443 -0.8768 0.5000
2.0608 -1.5180 0.5000
-3.2967 0.7252 0.5000
-2.8849 1.0109 0.5000
-6.0791 2.9146 0.5000
-5.5715 3.5924 0.5000
-3.8669 4.2306 0.5000
-3.2840 4.3516 0.5000
-2.9380 5.0420 0.5000
-2.8032 6.4453 0.5000
-2.7505 6.4753 0.5000
-2.2936 7.4987 0.5000
-2.2280 7.5279 0.5000
-1.5941 8.7685 0.5000
-1.5393 8.7953 0.5000
1.5984 9.1340 0.5000
1.3253 4.6302 0.5000
2.6476 8.7903 0.5000
3.5346 8.2786 0.5000
6.1492 -0.0199 0.5000
6.7155 -0.4433 0.5000
11.6723 -2.9116 0.5000
2.9767 -1.2792 0.5000
2.7314 -1.9598 0.5000
-3.2833 0.6714 0.5000
-3.8299 0.9639 0.5000
-5.4824 1.8587 0.5000
-5.9924 2.8879 0.5000
-4.3216 3.5337 0.5000
-4.0164 4.1743 0.5000
-3.2655 4.2773 0.5000
-2.9599 5.0122 0.5000
-2.8306 6.4842 0.5000
-2.2269 7.3580 0.5000
-1.6277 8.7453 0.5000
-1.5732 8.8141 0.5000
1.5136 9.2726 0.5000
0.8222 4.9668 0.5000
2.4538 8.8065 0.5000
2.5679 8.7964 0.5000
3.4064 8.3156 0.5000
6.2268 0.3005 0.5000
6.7826 -0.4310 0.5000
3.2227 -0.9438 0.5000
-2.4293 0.2095 0.5000
-2.7114 0.3726 0.5000
-3.3132 0.6729 0.5000
-3.9250 0.9872 0.5000
-5.9976 2.8453 0.5000
-5.5503 3.7021 0.5000
-3.3000 4.3267 0.5000
-3.0183 5.0317 0.5000
-2.8689 6.4204 0.5000
-2.3022 7.5035 0.5000
-2.2572 7.5358 0.5000
-1.6549 8.7704 0.5000
-1.6165 8.8162 0.5000
1.5004 9.3007 0.5000
1.5496 9.1541 0.5000
2.5499 8.7927 0.5000
4.2855 1.7742 0.5000
6.1386 0.0477 0.5000
11.6541 -2.8040 0.5000
-5.6877 3.4653 0.5000
-4.3807 3.4154 0.5000
-2.9208 6.3727 0.5000
-1.1674 3.6058 0.5000
-1.7591 8.7012 0.5000
1.2347 4.6468 0.5000
-2.9390 0.4424 0.5000
-4.4562 1.1865 0.5000
-5.7990 2.3046 0.5000
-4.6240 3.3285 0.5000
-1.3508 2.6329 0.5000
0.1824 -0.9433 0.5000
-0.7632 -0.6505 0.5000
0.1399 -0.9556 0.5000
0.1403 -0.9055 0.5000
-0.2111 -0.9500 0.5000
-0.4014 -0.8591 0.5000
-0.5013 -0.8005 0.5000
-3.6887 0.9338 0.5000
-2.9665 1.0075 0.5000
-1.6426 2.1521 0.5000
2.1119 -1.4457 0.5000
1.7638 -1.5464 0.5000
-2.9296 0.5163 0.5000
-4.4592 1.3524 0.5000
-3.0203 1.0020 0.5000
-6.0142 2.6315 0.5000
-6.1402 2.8215 0.5000
-5.7511 3.5285 0.5000
-4.5065 3.4114 0.5000
-4.1095 3.9598 0.5000
-4.0775 4.0137 0.5000
-3.4717 4.2101 0.5000
-1.7594 2.1637 0.5000
-1.3190 2.0444 0.5000
-1.2908 2.0341 0.5000
-1.3234 2.6750 0.5000
-1.2611 2.6970 0.5000
-1.2427 3.3960 0.5000
-0.7703 3.4952 0.5000
0.5176 4.2643 0.5000
4.3286 1.8417 0.5000
4.8651 1.3855 0.5000
6.1939 0.2903 0.5000
6.6742 -0.5105 0.5000
9.4339 -1.8953 0.5000
1.6087 -0.7202 0.5000
1.8688 -1.5437 0.5000
-2.7486 0.4030 0.5000
-3.1029 0.6292 0.5000
-4.0501 1.1363 0.5000
-6.2722 2.5518 0.5000
-5.4124 3.9037 0.5000
-3.8365 4.4542 0.5000
-3.5439 4.2670 0.5000
-3.0997 4.7162 0.5000
-2.7350 5.4286 0.5000
-2.5901 6.8814 0.5000
-2.5249 6.9007 0.5000
-1.9522 8.0332 0.5000
-1.9220 8.0967 0.5000
-1.1625 9.4870 0.5000
-1.1418 9.5865 0.5000
1.0843 9.4511 0.5000
9.4445 -2.2038 0.5000
2.7956 -1.7909 0.5000
-3.1856 0.6166 0.5000
-4.0321 1.0723 0.5000
-6.1690 2.4984 0.5000
-4.4501 3.3662 0.5000
-3.6595 4.2933 0.5000
-3.5084 4.2154 0.5000
-2.7764 5.4395 0.5000
-2.6122 6.8612 0.5000
-2.5950 6.9741 0.5000
-2.0163 8.0260 0.5000
-1.9774 8.0570 0.5000
-1.2134 9.4828 0.5000
-1.1981 9.6462 0.5000
2.0595 9.0840 0.5000
2.9469 8.5581 0.5000
3.0030 8.5643 0.5000
3.5124 -0.3526 0.5000
11.6428 -2.7237 0.5000
3.1491 -1.0898 0.5000
-4.1329 1.0501 0.5000
-3.0148 0.9388 0.5000
-4.6085 1.8047 0.5000
-5.4308 3.8251 0.5000
-4.4503 3.3455 0.5000
-4.1538 3.9325 0.5000
-3.6573 4.2368 0.5000
-3.5313 4.1152 0.5000
-3.1525 4.7444 0.5000
-2.8978 5.4655 0.5000
-2.6739 6.9372 0.5000
-2.0573 8.1110 0.5000
-2.0434 8.1351 0.5000
-1.2863 9.5454 0.5000
-1.2745 9.6416 0.5000
0.9458 9.5166 0.5000
0.9902 9.4522 0.5000
1.0299 4.7551 0.5000
2.8785 8.5862 0.5000
2.9461 8.5334 0.5000
4.7667 1.5358 0.5000
6.2981 0.4235 0.5000
6.7795 -0.3287 0.5000
-2.3077 0.1293 0.5000
-3.1053 0.5284 0.5000
-4.8154 1.3677 0.5000
-6.2220 2.5718 0.5000
-4.6612 3.3282 0.5000
-3.9592 4.3164 0.5000
-3.8075 4.3369 0.5000
-1.7414 3.2015 0.5000
-2.7537 6.7783 0.5000
-1.3498 3.3368 0.5000
-0.9035 3.3077 0.5000
0.3068 4.4256 0.5000
1.9157 -1.4738 0.5000
-3.3896 0.6767 0.5000
-2.8542 0.9458 0.5000
-1.6556 2.0993 0.5000
1.4299 -0.6978 0.5000
1.3284 -0.8288 0.5000
0.3024 -1.0125 0.5000
0.2433 -1.0029 0.5000
1.4997 -0.6684 0.5000
1.3694 -0.8035 0.5000
0.6551 -1.4008 0.5000
-3.4407 0.8100 0.5000
-6.2977 2.4989 0.5000
-5.5421 3.6822 0.5000
-2.5269 3.4525 0.5000
-0.9890 3.3350 0.5000
-0.9615 3.2737 0.5000
-0.7395 4.3499 0.5000
-0.7364 4.3596 0.5000
0.9485 5.0258 0.5000
3.4559 2.2786 0.5000
6.1206 -0.0707 0.5000
12.7771 -1.7685 0.5000
2.7490 -1.8926 0.5000
-3.2168 0.6636 0.5000
-2.9395 1.0125 0.5000
-3.3215 4.3766 0.5000
-2.5421 5.7628 0.5000
-2.2628 7.4124 0.5000
-1.5948 8.6009 0.5000
0.8670 5.0955 0.5000
3.4700 8.3135 0.5000
-5.4576 1.8304 0.5000
-6.3581 2.4283 0.5000
-6.0130 2.8249 0.5000
-2.8825 6.3758 0.5000
-2.3363 7.4189 0.5000
0.8455 5.0928 0.5000
0.8197 5.0072 0.5000
3.4047 8.3559 0.5000
6.7954 -0.3754 0.5000
11.9297 -2.0616 0.5000
-5.6525 3.5215 0.5000
-4.0613 4.1079 0.5000
-2.9296 6.4058 0.5000
-2.3906 7.4455 0.5000
0.8164 5.2463 0.5000
0.8113 5.1559 0.5000
2.4311 8.8289 0.5000
3.3900 8.3511 0.5000
4.4076 1.6746 0.5000
12.0885 2.9606 0.5000
6.0990 0.0084 0.5000
-0.4386 -0.6721 0.5000
-1.8376 -0.1022 0.5000
-3.1575 0.5752 0.5000
-3.7084 0.8659 0.5000
-6.4237 2.2060 0.5000
-4.1005 4.0364 0.5000
-3.4172 4.2419 0.5000
-3.0731 4.8685 0.5000
-2.6565 5.6924 0.5000
-1.2925 2.7067 0.5000
-2.4592 7.2832 0.5000
-1.2189 3.5177 0.5000
-1.8185 8.5349 0.5000
1.5703 -0.5820 0.5000
1.4287 -0.7215 0.5000
1.8847 -1.4745 0.5000
-0.0414 -0.9324 0.5000
-2.7542 0.3424 0.5000
-4.0504 1.0423 0.5000
-1.4402 2.0453 0.5000
0.3181 -1.0501 0.5000
0.1682 -1.0403 0.5000
0.6489 -1.4002 0.5000
-3.5380 0.8516 0.5000
-2.9030 1.0849 0.5000
1.5692 -0.6332 0.5000
1.7540 -1.5571 0.5000
1.7170 -1.5602 0.5000
-3.0711 0.6085 0.5000
-3.4674 0.8221 0.5000
-4.8071 1.5503 0.5000
-4.0484 4.0423 0.5000
-3.0106 4.8576 0.5000
-2.9887 4.9479 0.5000
-2.6257 5.6147 0.5000
-2.6111 5.6871 0.5000
-1.1817 3.5827 0.5000
-0.7382 3.5568 0.5000
-0.8812 4.2803 0.5000
1.0095 7.0208 0.5000
11.7315 3.0467 0.5000
6.1749 0.1367 0.5000
11.7468 -2.6330 0.5000
-1.7356 -0.0963 0.5000
-1.9374 0.0030 0.5000
-4.3681 3.4553 0.5000
-4.0929 3.9724 0.5000
-4.0474 4.0802 0.5000
-3.0963 4.8473 0.5000
-2.6891 5.5142 0.5000
-2.4933 7.1371 0.5000
-2.4473 7.1928 0.5000
-1.7909 8.1083 0.5000
-1.7735 8.3312 0.5000
-0.9781 9.8414 0.5000
-0.9247 9.9481 0.5000
1.2152 9.3165 0.5000
0.7499 5.1507 0.5000
2.2079 8.9395 0.5000
2.2921 8.9427 0.5000
3.1808 8.4683 0.5000
3.2706 8.4420 0.5000
4.6959 1.5268 0.5000
5.6169 1.1498 0.5000
6.3467 -0.1883 0.5000
3.2860 -0.8437 0.5000
11.1895 -7.5222 0.5000
-3.4453 0.7299 0.5000
-5.7417 3.3456 0.5000
-3.3758 4.1358 0.5000
-3.3696 4.2422 0.5000
-2.8198 5.7572 0.5000
-2.6946 5.6363 0.5000
-2.4884 7.1598 0.5000
-1.8863 8.3294 0.5000
-1.7829 8.1521 0.5000
-1.0400 9.8830 0.5000
-0.9571 9.9743 0.5000
0.6240 5.1992 0.5000
0.6644 5.1915 0.5000
2.1510 8.9864 0.5000
3.1200 8.4883 0.5000
3.2116 8.4499 0.5000
4.7214 1.5349 0.5000
-4.5505 1.3372 0.5000
-5.8372 3.3371 0.5000
-3.4020 4.1056 0.5000
-3.1157 4.7802 0.5000
-2.7009 5.5104 0.5000
-2.7216 5.5782 0.5000
-2.5210 7.1069 0.5000
-2.5154 7.1533 0.5000
-1.8875 8.1196 0.5000
-1.9097 8.3564 0.5000
-1.0861 9.8963 0.5000
-1.0953 9.9137 0.5000
1.1106 9.4582 0.5000
1.1622 9.4631 0.5000
2.1438 8.9480 0.5000
2.1619 8.9415 0.5000
3.0901 8.4926 0.5000
11.6466 3.3086 0.5000
11.8144 -2.3498 0.5000
-2.8404 0.3985 0.5000
-4.2180 1.0974 0.5000
-2.9864 0.9480 0.5000
-6.1551 2.6504 0.5000
-5.0188 3.5468 0.5000
-4.1532 3.8644 0.5000
-3.2087 4.6742 0.5000
-2.5869 6.7009 0.5000
-1.2829 3.3327 0.5000
-2.4610 0.1934 0.5000
-3.4727 0.6997 0.5000
-1.3168 2.0503 0.5000
-2.8193 0.4842 0.5000
-4.1749 1.1998 0.5000
-4.7714 3.5190 0.5000
-2.3664 3.5015 0.5000
-2.8065 5.3284 0.5000
-2.6189 6.7766 0.5000
-2.0498 7.8210 0.5000
-2.0330 7.8878 0.5000
-0.6919 4.5955 0.5000
-1.2936 9.2200 0.5000
1.0013 4.8616 0.5000
1.0378 4.9133 0.5000
6.4127 0.6565 0.5000
6.2528 0.2684 0.5000
9.8682 -1.2974 0.5000
-4.8349 1.5405 0.5000
-4.6631 3.4648 0.5000
-2.0910 7.8996 0.5000
-1.3700 9.1915 0.5000
-1.3179 9.3101 0.5000
0.9773 4.9372 0.5000
1.9351 9.1021 0.5000
2.7684 8.6432 0.5000
11.4745 -4.2437 0.5000
-4.0594 1.0644 0.5000
-4.5259 3.3268 0.5000
-3.8960 4.3312 0.5000
-3.7081 4.3479 0.5000
-2.6921 6.8207 0.5000
-2.0747 7.9251 0.5000
-1.4054 9.2594 0.5000
1.7916 9.0632 0.5000
1.8579 9.1309 0.5000
12.8106 -1.5844 0.5000
-3.5119 1.0648 0.5000
-6.2015 2.6739 0.5000
-2.7520 6.7294 0.5000
-2.2088 7.8261 0.5000
-1.4638 9.2303 0.5000
0.9234 4.9823 0.5000
2.6773 8.6850 0.5000
4.4992 1.6453 0.5000
4.7774 1.5535 0.5000
6.2781 0.4687 0.5000
3.3254 -0.7926 0.5000
-3.8037 0.8776 0.5000
-4.9264 1.3816 0.5000
-6.3935 2.2772 0.5000
-2.5048 3.3579 0.5000
-1.8237 3.0599 0.5000
-1.5548 -0.2509 0.5000
-2.3504 0.1355 0.5000
-2.7716 0.4550 0.5000
-3.9427 4.1529 0.5000
-2.9484 4.9784 0.5000
-2.5451 5.7278 0.5000
-2.2982 7.3913 0.5000
4.3986 1.6333 0.5000
12.0310 2.8532 0.5000
-5.1434 1.6756 0.5000
-6.0017 3.0588 0.5000
-5.7284 3.5453 0.5000
-4.2930 3.5895 0.5000
-2.5901 5.6965 0.5000
-2.3186 7.3419 0.5000
-1.6791 8.5629 0.5000
-1.6132 8.6519 0.5000
0.7973 5.1536 0.5000
3.3801 8.3401 0.5000
4.8372 1.4075 0.5000
11.9804 -2.0039 0.5000
-2.6326 0.3060 0.5000
-5.1802 1.6713 0.5000
-6.0253 2.7966 0.5000
-3.3060 4.2480 0.5000
-3.0191 4.9874 0.5000
-2.8894 6.3317 0.5000
-2.5580 5.7875 0.5000
-2.3807 7.3030 0.5000
-1.7441 8.5656 0.5000
-1.6794 8.7012 0.5000
2.3616 8.8308 0.5000
3.3257 8.3808 0.5000
6.6666 -0.3015 0.5000
-3.6879 0.8880 0.5000
-6.0506 2.9531 0.5000
-5.7529 3.4937 0.5000
-3.3535 4.3306 0.5000
-3.0519 4.9296 0.5000
-2.6215 5.7140 0.5000
-2.4066 7.3144 0.5000
-1.7780 8.6389 0.5000
-1.7669 8.5614 0.5000
0.7320 5.2278 0.5000
3.4121 2.4404 0.5000
5.1624 2.8105 0.5000
4.3474 1.7010 0.5000
11.7188 -2.5460 0.5000
-4.4043 1.2038 0.5000
-1.7727 2.1201 0.5000
-1.2875 3.4194 0.5000
-0.8507 3.4568 0.5000
-5.9519 2.6260 0.5000
-4.4730 3.4054 0.5000
-1.2994 2.6128 0.5000
-1.1912 3.3944 0.5000
6.2486 0.2504 0.5000
9.2453 -1.8566 0.5000
1.5725 -0.7631 0.5000
-5.3764 3.9061 0.5000
-4.1471 3.8344 0.5000
-2.5140 6.9909 0.5000
0.9584 9.3714 0.5000
2.0232 9.0043 0.5000
2.0826 9.0293 0.5000
-3.7147 4.2984 0.5000
1.9621 9.0804 0.5000
3.2786 -0.7432 0.5000
11.5917 -4.0794 0.5000
-5.3548 3.8317 0.5000
-3.6516 4.1676 0.5000
-2.6339 6.9352 0.5000
-1.2796 9.5501 0.5000
0.5290 5.2800 0.5000
1.9144 8.9879 0.5000
4.2739 1.9249 0.5000
4.8141 1.5048 0.5000
-4.5837 3.2983 0.5000
-3.7762 4.2789 0.5000
-2.1558 7.9283 0.5000
-0.7168 4.5816 0.5000
1.3733 -0.8541 0.5000
-2.0594 -0.0025 0.5000
-0.4445 -0.8145 0.5000
-2.2356 0.1622 0.5000
-2.9517 0.5548 0.5000
2.1699 -1.3411 0.5000
1.9256 -1.5278 0.5000
-2.5985 0.3530 0.5000
-2.8587 0.5022 0.5000
-4.5666 1.9210 0.5000
-2.4131 3.4274 0.5000
-1.4686 2.1168 0.5000
-1.7058 3.1369 0.5000
-1.6783 3.1315 0.5000
-0.8570 3.2904 0.5000
-0.8789 3.2125 0.5000
-0.6774 4.4716 0.5000
0.9811 4.8816 0.5000
4.5791 1.5097 0.5000
6.3885 0.5461 0.5000
6.3666 -0.2352 0.5000
12.6164 -1.9814 0.5000
-2.1297 0.1021 0.5000
-2.8857 5.1217 0.5000
-2.7335 6.5024 0.5000
-2.1502 7.6391 0.5000
-1.4778 8.8683 0.5000
-1.4355 8.9832 0.5000
0.8772 4.9591 0.5000
-2.2032 7.5890 0.5000
1.7008 9.2238 0.5000
-5.9621 2.9173 0.5000
-2.9596 5.1184 0.5000
-2.2624 7.6210 0.5000
-2.2040 7.6794 0.5000
-1.5824 8.9305 0.5000
-1.5346 9.0010 0.5000
0.8691 4.9256 0.5000
6.2652 -0.0944 0.5000
12.7777 -1.6763 0.5000
11.5261 -2.9115 0.5000
11.4491 -4.3821 0.5000
0.3015 -1.1827 0.5000
-0.2867 -0.8241 0.5000
-4.0329 0.9992 0.5000
-5.9901 3.0377 0.5000
-2.5979 3.4200 0.5000
-2.3719 7.4934 0.5000
-1.0240 3.2564 0.5000
-1.6010 8.4402 0.5000
3.3293 -0.7353 0.5000
0.1770 -1.0531 0.5000
-4.5446 1.2403 0.5000
-3.5302 0.8475 0.5000
-2.8511 1.0513 0.5000
2.1274 -1.4541 0.5000
-4.7563 1.5205 0.5000
-3.3420 4.2989 0.5000
-2.6352 5.5684 0.5000
-1.1733 3.4577 0.5000
-1.1621 3.5025 0.5000
-0.7475 3.5316 0.5000
4.2928 1.7227 0.5000
11.7729 -2.5726 0.5000
-3.3133 0.7128 0.5000
-4.3830 1.3043 0.5000
-6.0988 2.6363 0.5000
-5.7216 3.5517 0.5000
-4.6150 3.5064 0.5000
-3.0361 4.8440 0.5000
-2.4567 7.0725 0.5000
-2.4322 7.1489 0.5000
-1.8346 8.2020 0.5000
-1.8350 8.3481 0.5000
-1.0325 9.7591 0.5000
-0.9881 9.8662 0.5000
1.1975 9.3497 0.5000
0.6843 5.2229 0.5000
6.3955 0.5831 0.5000
-3.3726 0.7137 0.5000
-4.5110 1.3005 0.5000
-2.9097 0.9597 0.5000
-6.1037 2.8539 0.5000
-5.7594 3.3131 0.5000
-2.8348 5.7267 0.5000
-2.6608 5.5595 0.5000
-2.5213 7.0795 0.5000
-1.8911 8.2717 0.5000
-1.8145 8.1845 0.5000
-1.0783 9.7571 0.5000
-1.0156 9.9395 0.5000
2.2193 8.9526 0.5000
4.6181 1.5273 0.5000
6.3111 -0.1044 0.5000
-4.4888 1.2641 0.5000
-5.7488 3.4694 0.5000
-4.5415 3.3599 0.5000
-3.4237 4.0828 0.5000
-2.5790 7.0742 0.5000
-1.9104 8.3185 0.5000
-1.1395 9.8177 0.5000
-1.1355 9.8862 0.5000
0.6193 5.2828 0.5000
2.1146 8.9896 0.5000
11.5317 3.3354 0.5000
-2.8793 0.8788 0.5000
-5.2108 3.6822 0.5000
-3.8309 4.3560 0.5000
-1.3591 2.0084 0.5000
-2.5649 6.6982 0.5000
-1.1833 3.0469 0.5000
-2.0999 8.0743 0.5000
-0.8630 3.3761 0.5000
-2.4623 3.4760 0.5000
-1.0817 3.7007 0.5000
-0.7161 4.4573 0.5000
6.2039 -0.1539 0.5000
12.7233 -1.8775 0.5000
-2.1793 7.4086 0.5000
-1.5232 8.8120 0.5000
-1.4674 8.9425 0.5000
6.7880 -0.4890 0.5000
11.8740 -2.2298 0.5000
-2.7853 6.5831 0.5000
0.9108 5.1092 0.5000
3.5161 8.3072 0.5000
3.4565 2.4082 0.5000
-4.0457 1.0091 0.5000
-6.0374 2.8734 0.5000
-2.2938 7.5596 0.5000
-1.6134 8.8972 0.5000
-1.6378 8.9492 0.5000
2.5490 8.7489 0.5000
3.4249 8.2946 0.5000
3.3557 2.2628 0.5000
9.1935 4.6419 0.5000
12.1792 2.8744 0.5000
11.5975 -2.8194 0.5000
-3.2493 0.5964 0.5000
-3.8130 0.9198 0.5000
-5.7399 3.4273 0.5000
-3.4059 4.2956 0.5000
-2.4989 7.3107 0.5000
-0.9187 4.2675 0.5000
-1.2514 -0.4040 0.5000
0.7447 -1.4510 0.5000
-4.9443 1.6910 0.5000
-1.6791 2.1610 0.5000
-1.2110 1.9941 0.5000
1.8495 -1.5482 0.5000
-4.3892 1.2823 0.5000
-3.3860 4.1845 0.5000
-2.6934 5.4577 0.5000
-2.4946 7.0122 0.5000
-1.8908 8.1671 0.5000
-1.0467 9.7362 0.5000
0.5317 4.3584 0.5000
0.8840 7.0891 0.5000
13.2059 -1.0862 0.5000
11.8536 -2.3805 0.5000
-5.1371 3.7328 0.5000
-4.3986 3.3915 0.5000
-3.6906 4.3350 0.5000
-1.0603 9.7268 0.5000
1.0898 9.4462 0.5000
2.0741 8.9809 0.5000
2.1722 9.0013 0.5000
3.5690 2.2010 0.5000
-4.2995 1.1856 0.5000
-6.1529 2.5462 0.5000
-3.5167 4.1951 0.5000
-2.8937 5.6120 0.5000
-1.1661 9.6910 0.5000
-1.1185 9.7615 0.5000
1.0954 9.5538 0.5000
0.6012 5.2374 0.5000
5.5908 1.2392 0.5000
6.2462 -0.0844 0.5000
-4.3255 1.1585 0.5000
-4.9485 3.5457 0.5000
-2.6161 7.0152 0.5000
-2.0265 8.1921 0.5000
-1.2148 9.7133 0.5000
4.8416 1.4683 0.5000
6.2044 0.3916 0.5000
6.8105 -0.3629 0.5000
-3.2659 4.5098 0.5000
-2.9082 5.2727 0.5000
-0.9069 3.2882 0.5000
1.4413 -0.6361 0.5000
2.0720 -1.4338 0.5000
-1.4505 -0.3053 0.5000
-3.1754 0.5476 0.5000
0.3813 -1.1211 0.5000
0.1515 -0.9567 0.5000
-4.5383 1.9258 0.5000
-1.3630 2.0614 0.5000
2.8987 -1.2812 0.5000
-4.3359 1.2851 0.5000
-2.6440 6.7135 0.5000
-2.0321 7.4236 0.5000
-1.9951 7.4364 0.5000
-1.3487 9.1358 0.5000
3.7813 8.1317 0.5000
9.5185 4.3995 0.5000
4.0515 0.5500 0.5000
12.1062 -1.9151 0.5000
11.4453 -3.2339 0.5000
-4.2568 1.2457 0.5000
-6.2801 2.3212 0.5000
-5.9224 3.0410 0.5000
1.8106 9.1307 0.5000
-2.7252 6.6862 0.5000
-2.1778 7.8126 0.5000
0.9677 5.0164 0.5000
0.1108 -1.0912 0.5000
-3.6339 0.8114 0.5000
-6.4082 2.2859 0.5000
-3.3107 4.4720 0.5000
-2.2286 7.4865 0.5000
-1.5139 9.0713 0.5000
5.5948 1.2791 0.5000
6.3973 0.6883 0.5000
-4.1048 4.0535 0.5000
0.4439 -1.3006 0.5000
-3.9900 1.1060 0.5000
-3.6742 1.4849 0.5000
2.3001 1.9437 0.5000
-0.2543 -0.7269 0.5000
-3.7441 0.9701 0.5000
-2.5353 5.8023 0.5000
-1.5998 8.6655 0.5000
0.8244 5.1427 0.5000
0.8618 5.1628 0.5000
11.6790 -2.8666 0.5000
11.5349 -4.3255 0.5000
-3.7099 0.9497 0.5000
-5.2109 1.7217 0.5000
-2.9745 4.9853 0.5000
-2.5601 5.7473 0.5000
-1.6651 8.6031 0.5000
2.4536 8.8529 0.5000
2.5474 8.8350 0.5000
6.6908 -0.3735 0.5000
12.0164 -2.0943 0.5000
-3.7983 0.9374 0.5000
-5.4204 1.7688 0.5000
-2.3053 7.3776 0.5000
-1.6647 8.6705 0.5000
-1.6434 8.7560 0.5000
-3.7968 0.8908 0.5000
-3.9980 4.0923 0.5000
-3.0451 4.9380 0.5000
-2.4422 7.3673 0.5000
6.1058 0.1274 0.5000
-1.3038 2.6227 0.5000
-4.9637 1.6605 0.5000
-5.8333 2.5250 0.5000
6.2102 0.2134 0.5000
-1.1769 9.5435 0.5000
1.0466 9.5169 0.5000
1.0455 9.3753 0.5000
1.1101 5.0260 0.5000
-4.8890 1.5353 0.5000
-2.0095 7.9800 0.5000
11.6341 -2.6737 0.5000
0.9517 9.5255 0.5000
1.9393 9.0135 0.5000
-2.7071 6.8098 0.5000
-1.3504 9.4450 0.5000
0.3567 4.4735 0.5000
1.0017 5.0185 0.5000
2.2035 -1.3363 0.5000
-6.0975 2.8420 0.5000
-3.3418 0.7550 0.5000
-1.7322 3.0403 0.5000
-0.7856 4.2936 0.5000
-5.0251 1.6401 0.5000
-2.3746 7.2934 0.5000
-1.6821 8.5007 0.5000
-0.8261 10.1342 0.5000
-0.7679 10.1993 0.5000
1.4059 9.3029 0.5000
4.2774 1.8020 0.5000
6.1515 0.0909 0.5000
11.8482 -2.7366 0.5000
-3.0821 0.5716 0.5000
-4.9874 1.5568 0.5000
-6.0480 2.7487 0.5000
-3.3409 4.1631 0.5000
-2.6775 5.7077 0.5000
-2.3758 7.3572 0.5000
-1.7495 8.5075 0.5000
-0.8886 10.1284 0.5000
-0.7554 10.2426 0.5000
0.7237 5.1263 0.5000
0.7801 5.1211 0.5000
2.3609 8.8914 0.5000
3.2932 8.3857 0.5000
4.3217 1.8637 0.5000
6.5314 -0.2560 0.5000
12.0915 -1.9400 0.5000
11.4326 -3.1802 0.5000
-5.1003 1.5688 0.5000
-6.0966 2.7075 0.5000
-2.9285 6.2933 0.5000
-2.4083 7.2886 0.5000
-1.7790 8.5328 0.5000
2.3353 8.8796 0.5000
-3.5544 0.7806 0.5000
-4.7886 1.4128 0.5000
-3.4834 4.1619 0.5000
-3.1228 4.8380 0.5000
-2.7100 5.6034 0.5000
-1.8908 8.4070 0.5000
-0.8038 3.5624 0.5000
-0.3544 -0.7941 0.5000
2.1931 -1.3597 0.5000
-6.1370 2.7409 0.5000
-4.7318 3.5224 0.5000
-3.7351 4.4294 0.5000
-1.9166 2.8540 0.5000
-1.1058 2.9797 0.5000
-0.8363 3.3524 0.5000
-0.5965 4.5940 0.5000
1.0567 4.8344 0.5000
4.7575 1.4696 0.5000
11.9648 -2.1878 0.5000
2.9902 -1.4283 0.5000
-4.5456 1.3870 0.5000
-5.9507 3.1792 0.5000
-5.0804 3.7473 0.5000
-3.1364 4.6143 0.5000
-1.3380 9.2319 0.5000
-1.2704 9.3370 0.5000
3.3566 2.2234 0.5000
-3.7683 4.3617 0.5000
-3.1847 4.4895 0.5000
-1.3707 9.2527 0.5000
-1.3401 9.3618 0.5000
0.9947 4.9710 0.5000
4.7154 1.5767 0.5000
6.3188 0.5272 0.5000
6.5619 -0.2334 0.5000
12.0533 -1.8608 0.5000
-0.3015 -0.7817 0.5000
-2.9609 0.4752 0.5000
-4.0009 4.2583 0.5000
-2.4747 3.4029 0.5000
-1.7646 3.1293 0.5000
-2.8039 6.6355 0.5000
-1.3354 3.1599 0.5000
-0.9516 3.2363 0.5000
-1.7167 2.1181 0.5000
-3.8905 1.0241 0.5000
-3.8990 4.1847 0.5000
-1.5339 8.6189 0.5000
-1.5411 8.5948 0.5000
0.8447 4.9372 0.5000
9.1658 4.5540 0.5000
12.1313 2.8009 0.5000
11.6231 -2.8582 0.5000
0.7856 5.0281 0.5000
2.5941 8.8014 0.5000
6.7408 -0.3540 0.5000
-5.5094 1.8338 0.5000
-1.7217 8.7096 0.5000
-1.6964 8.4729 0.5000
0.7435 4.9642 0.5000
0.7447 4.9484 0.5000
4.3519 1.7326 0.5000
-3.0157 0.4852 0.5000
-3.6075 0.7787 0.5000
-6.4473 2.1441 0.5000
-1.2594 1.9602 0.5000
-2.7641 5.5641 0.5000
-1.2676 3.4779 0.5000
-2.6310 0.2989 0.5000
0.2961 -0.9988 0.5000
-1.7070 2.1663 0.5000
3.2050 -1.0545 0.5000
-3.5616 4.3095 0.5000
-2.5447 6.8098 0.5000
-2.4634 6.6940 0.5000
-1.9924 7.9534 0.5000
-1.9097 8.0382 0.5000
-1.1899 9.3942 0.5000
0.4604 4.3854 0.5000
11.9116 -2.1730 0.5000
11.3304 -3.4585 0.5000
-3.9471 1.0238 0.5000
-4.8105 1.4528 0.5000
-6.2138 2.4594 0.5000
-5.8734 3.1578 0.5000
-4.5620 3.4130 0.5000
-3.5588 4.2670 0.5000
-1.2656 9.4037 0.5000
-1.2473 9.5166 0.5000
2.0092 9.0963 0.5000
11.7128 -2.6596 0.5000
-4.9991 1.5199 0.5000
-5.8322 3.1064 0.5000
-1.2648 9.4915 0.5000
-1.2485 9.5853 0.5000
0.4601 4.9154 0.5000
0.4840 4.8344 0.5000
1.9257 9.0685 0.5000
1.9576 9.0137 0.5000
-4.8510 1.4399 0.5000
-5.5125 3.8062 0.5000
-4.2022 3.8565 0.5000
-2.6062 6.6424 0.5000
-2.1070 7.9609 0.5000
-1.3586 9.4891 0.5000
0.8385 9.5853 0.5000
0.3928 4.4487 0.5000
2.3764 1.9538 0.5000
6.2881 0.5008 0.5000
6.6584 -0.2464 0.5000
2.9688 -1.2206 0.5000
-4.4173 1.1794 0.5000
-4.3545 3.5552 0.5000
-1.2302 2.8120 0.5000
-3.7202 1.5048 0.5000
-1.5880 8.7214 0.5000
0.7512 4.6756 0.5000
1.4932 9.3681 0.5000
12.0479 -2.0435 0.5000
-1.7052 8.6666 0.5000
1.4380 9.2511 0.5000
1.4926 9.3138 0.5000
0.6967 4.6918 0.5000
0.6830 4.7248 0.5000
4.0538 0.6260 0.5000
-4.3701 1.1938 0.5000
-4.7508 3.3814 0.5000
-3.5737 4.1396 0.5000
-1.2608 3.3864 0.5000
-3.4836 1.1204 0.5000
-5.5208 2.3682 0.5000
-4.7769 3.5551 0.5000
-3.6063 4.3100 0.5000
-1.1058 3.1088 0.5000
-1.1007 3.0362 0.5000
-0.8219 3.4259 0.5000
6.6626 -0.4714 0.5000
-4.6980 1.4796 0.5000
-6.1458 2.6568 0.5000
-4.6201 3.4614 0.5000
-3.7225 4.3963 0.5000
-1.2216 9.3617 0.5000
-1.2233 9.4406 0.5000
1.9710 8.9219 0.5000
-4.7177 1.4230 0.5000
-5.8534 3.1080 0.5000
-4.7462 3.4826 0.5000
-2.7911 5.2262 0.5000
-3.9769 1.0141 0.5000
-5.8581 3.3507 0.5000
-4.5704 3.3290 0.5000
-2.0650 7.9503 0.5000
0.4429 4.7521 0.5000
1.8803 9.0487 0.5000
2.8210 8.5912 0.5000
6.7005 -0.3088 0.5000
-3.0572 0.5495 0.5000
-4.7430 1.3883 0.5000
-0.2158 -0.8845 0.5000
-4.4001 3.4593 0.5000
0.2840 -1.1069 0.5000
-4.5487 1.8762 0.5000
-0.5426 3.5472 0.5000
-0.6547 4.4059 0.5000
6.3413 -0.2217 0.5000
3.6984 8.2091 0.5000
-2.1470 7.4048 0.5000
1.6678 9.2400 0.5000
11.9107 -2.2854 0.5000
12.7880 -1.6459 0.5000
11.5606 -2.9208 0.5000
0.7445 4.8078 0.5000
-2.5530 0.2452 0.5000
-4.4633 1.2448 0.5000
-0.4184 -0.7592 0.5000
0.2078 -0.9467 0.5000
-2.8414 1.0579 0.5000
-1.5922 2.1523 0.5000
-1.6425 -0.1486 0.5000
-2.3458 7.2722 0.5000
0.6925 4.6100 0.5000
0.7165 4.6745 0.5000
5.2103 2.7103 0.5000
4.3184 1.6819 0.5000
4.0454 0.5480 0.5000
11.7029 -2.7023 0.5000
0.5479 -1.3540 0.5000
-2.4139 7.2292 0.5000
-1.7357 8.2005 0.5000
-0.8772 9.9884 0.5000
-0.8380 10.0852 0.5000
0.6730 4.8240 0.5000
1.4115 9.3697 0.5000
6.3038 0.4568 0.5000
6.4337 -0.2536 0.5000
12.1689 -1.8981 0.5000
-2.8242 5.9773 0.5000
-1.7900 8.4564 0.5000
-0.9039 10.0287 0.5000
-0.8898 10.1769 0.5000
1.3018 9.4079 0.5000
1.3578 9.3720 0.5000
2.3283 8.9055 0.5000
3.3010 8.4040 0.5000
-2.4817 7.2143 0.5000
-1.8470 8.4676 0.5000
-0.9750 10.0850 0.5000
0.6384 4.7809 0.5000
0.6207 4.7227 0.5000
2.2313 8.8988 0.5000
3.4277 -0.2799 0.5000
11.7995 -2.4358 0.5000
-3.0138 0.9571 0.5000
-4.8463 3.4388 0.5000
-0.8723 3.4002 0.5000
1.2998 -0.8800 0.5000
-4.1849 1.2012 0.5000
-3.6347 0.9120 0.5000
-2.6465 6.6981 0.5000
-1.3530 8.9831 0.5000
-1.3452 9.0545 0.5000
3.7286 8.1477 0.5000
12.6683 -1.9646 0.5000
-2.0673 7.6444 0.5000
-1.4143 9.1164 0.5000
1.8387 9.1576 0.5000
-3.5578 0.8136 0.5000
-2.1715 7.6836 0.5000
1.7960 9.1080 0.5000
0.8646 4.8685 0.5000
-1.9591 -0.0505 0.5000
-3.0474 1.1489 0.5000
-1.7585 2.9976 0.5000
-4.6397 1.4564 0.5000
-2.3929 7.1973 0.5000
-2.3598 7.2339 0.5000
-1.7901 8.3640 0.5000
-1.7046 8.4441 0.5000
-0.9475 9.8784 0.5000
-0.8951 9.9375 0.5000
0.6681 4.7870 0.5000
11.6677 -4.0495 0.5000
-5.7285 3.3814 0.5000
-0.9379 9.9722 0.5000
0.6215 4.8175 0.5000
1.3350 9.4534 0.5000
3.1821 8.4430 0.5000
4.6949 1.4842 0.5000
-4.6664 1.4245 0.5000
-2.8175 5.8035 0.5000
-1.8808 8.3869 0.5000
-1.0393 9.9909 0.5000
-0.9706 10.0349 0.5000
1.2276 9.4145 0.5000
1.2636 9.3845 0.5000
6.4183 -0.1753 0.5000
-4.5383 1.2541 0.5000
-2.7710 5.5355 0.5000
-2.5840 7.1020 0.5000
-1.9062 8.2886 0.5000
0.5855 4.7948 0.5000
0.5343 4.7851 0.5000
6.1833 0.3027 0.5000
-3.5013 1.0369 0.5000
-3.9602 4.3627 0.5000
-1.9678 2.7816 0.5000
-1.1770 2.9255 0.5000
-0.8529 -0.6026 0.5000
0.2030 -1.0906 0.5000
-4.2941 1.2645 0.5000
-4.5452 1.9541 0.5000
-4.8618 3.6068 0.5000
-1.0734 3.0229 0.5000
-1.0962 2.9957 0.5000
-4.9632 3.6614 0.5000
-2.7831 5.2781 0.5000
-1.2964 9.2827 0.5000
6.5474 -0.3283 0.5000
11.3719 -3.3107 0.5000
-6.2542 2.3648 0.5000
-4.8667 3.5462 0.5000
1.8680 9.0705 0.5000
1.5217 -0.9125 0.5000
-5.0755 3.5879 0.5000
-0.7379 4.5476 0.5000
-3.3344 0.6333 0.5000
-1.6810 2.1112 0.5000
1.3976 -0.6448 0.5000
-4.1018 1.1729 0.5000
-0.5824 3.5445 0.5000
-5.4992 3.7443 0.5000
0.7611 4.7266 0.5000
12.8647 -1.6530 0.5000
-1.5567 8.8869 0.5000
1.5183 9.2072 0.5000
1.6390 9.2512 0.5000
3.3541 -0.5844 0.5000
6.1567 0.0022 0.5000
-5.6786 2.2603 0.5000
1.4183 -0.5997 0.5000
-0.0851 -0.9375 0.5000
-1.8538 2.9282 0.5000
-1.1952 3.4212 0.5000
-1.2439 3.4435 0.5000
0.5164 4.3490 0.5000
1.8537 -1.5619 0.5000
-5.3287 3.8542 0.5000
-2.7367 5.3902 0.5000
-1.9320 8.1492 0.5000
-1.1220 9.6392 0.5000
0.5311 4.7351 0.5000
2.0037 8.9780 0.5000
2.1052 9.0101 0.5000
6.2744 0.3416 0.5000
-5.8043 3.2204 0.5000
-5.3574 3.8810 0.5000
1.0615 9.5141 0.5000
5.6155 1.2805 0.5000
11.5853 -2.7453 0.5000
-5.1889 3.6635 0.5000
-3.6099 4.1894 0.5000
0.4965 4.7282 0.5000
0.4637 4.7918 0.5000
-2.4391 3.4766 0.5000
-0.6023 3.9259 0.5000
-2.8952 5.0830 0.5000
-1.1914 2.7946 0.5000
-1.0422 3.5797 0.5000
0.8426 4.7303 0.5000
4.4563 1.5864 0.5000
12.7854 -1.7203 0.5000
2.6946 -1.9844 0.5000
-1.6303 8.6379 0.5000
1.5729 9.2581 0.5000
2.4783 8.7924 0.5000
6.6689 -0.4083 0.5000
11.9817 -2.1262 0.5000
5.5982 -4.0287 0.5000
1.5771 9.3272 0.5000
3.0054 -1.2195 0.5000
-5.5014 1.7975 0.5000
0.7536 4.8361 0.5000
12.0199 2.9908 0.5000
11.6898 -2.7131 0.5000
-1.8824 2.9563 0.5000
-2.4541 6.9494 0.5000
0.5847 4.9505 0.5000
6.8216 -0.4553 0.5000
11.8692 -2.3320 0.5000
-0.3058 -0.7462 0.5000
-3.0555 0.9598 0.5000
-6.2215 2.5387 0.5000
-1.9460 8.1753 0.5000
11.5780 -2.7865 0.5000
-4.6104 1.8806 0.5000
-5.3013 3.8316 0.5000
-2.8267 5.4641 0.5000
-5.2060 3.7496 0.5000
6.7622 1.2880 0.5000
6.2299 0.4247 0.5000
-4.7094 1.3398 0.5000
-6.0301 2.4694 0.5000
-4.9134 3.4580 0.5000
-1.2080 2.9005 0.5000
-0.7530 4.3560 0.5000
12.0248 2.8270 0.5000
-1.6415 8.5970 0.5000
4.3217 1.7880 0.5000
4.8529 1.4236 0.5000
-5.3831 1.7740 0.5000
-1.7894 8.6540 0.5000
6.0905 0.1252 0.5000
11.6842 -2.6264 0.5000
-4.6747 1.3388 0.5000
-4.4896 3.2760 0.5000
-1.2560 3.5124 0.5000
-0.9812 4.2179 0.5000
-2.4979 0.3024 0.5000
-1.6005 8.5430 0.5000
-0.7575 10.0801 0.5000
0.7356 4.7055 0.5000
-1.7090 8.3157 0.5000
0.6979 4.8876 0.5000
2.4207 8.8584 0.5000
6.4961 -0.2840 0.5000
-2.8849 6.1233 0.5000
-0.9434 10.1085 0.5000
-0.8560 10.2050 0.5000
1.3806 9.3248 0.5000
-4.8831 1.4836 0.5000
-1.8298 8.4422 0.5000
0.6212 4.6956 0.5000
6.1418 0.2025 0.5000
-1.3459 3.3574 0.5000
2.2314 -1.2971 0.5000
-1.2768 9.1835 0.5000
1.9528 9.1199 0.5000
3.4843 -0.3169 0.5000
-4.4292 1.3268 0.5000
-5.1972 3.7876 0.5000
11.7903 -2.5401 0.5000
-5.0272 3.6144 0.5000
3.3317 2.1990 0.5000
4.4539 1.6601 0.5000
-5.2643 3.6916 0.5000
6.4240 -0.1289 0.5000
-2.6372 3.3044 0.5000
-1.1321 3.4819 0.5000
1.4431 -0.8104 0.5000
-1.0889 3.6386 0.5000
0.8135 4.6909 0.5000
4.4431 1.5939 0.5000
6.0850 -0.0507 0.5000
-1.6185 8.4596 0.5000
-1.5964 8.5904 0.5000
6.6212 -0.3607 0.5000
-5.2049 1.6529 0.5000
-3.2983 4.2122 0.5000
1.4454 9.2375 0.5000
11.6899 -2.6756 0.5000
-0.7960 3.6105 0.5000
1.6047 -0.6331 0.5000
-0.4376 -0.7192 0.5000
2.1654 -1.4121 0.5000
-5.0218 3.6804 0.5000
-0.4851 3.9218 0.5000
11.9149 -2.2483 0.5000
-4.7658 1.4876 0.5000
-6.3055 2.5044 0.5000
3.8059 8.1575 0.5000
6.4123 0.7244 0.5000
-4.5654 3.3582 0.5000
-3.6451 4.2644 0.5000
6.4083 0.7556 0.5000
-2.1145 8.0062 0.5000
-1.3493 9.4618 0.5000
0.4499 4.8309 0.5000
1.8396 8.9245 0.5000
6.6906 -0.2750 0.5000
11.9899 -1.9419 0.5000
11.3681 -3.2551 0.5000
-4.5923 1.2833 0.5000
-5.9000 2.3743 0.5000
-5.2183 3.6424 0.5000
-1.4962 2.0621 0.5000
-2.9552 5.1856 0.5000
-1.4030 2.5099 0.5000
-2.8056 6.6694 0.5000
-1.2131 2.8594 0.5000
-2.2603 7.8049 0.5000
-0.7592 4.5179 0.5000
0.7504 -1.3972 0.5000
-3.2457 1.2607 0.5000
-0.8398 4.3442 0.5000
5.2244 2.6972 0.5000
11.9622 2.8891 0.5000
0.7026 4.7879 0.5000
12.0562 -1.9573 0.5000
-5.0648 1.6068 0.5000
-6.4067 2.3006 0.5000
6.6047 -0.3250 0.5000
2.7517 -1.9352 0.5000
-5.1857 1.6354 0.5000
2.3443 8.8392 0.5000
11.8821 3.1435 0.5000
7.8380 -4.9945 0.5000
-0.9615 4.1925 0.5000
1.6594 -0.6478 0.5000
-4.1826 1.7512 0.5000
2.2030 -1.3513 0.5000
-3.8934 4.2767 0.5000
-2.1395 7.6500 0.5000
-1.3995 9.0417 0.5000
5.7017 1.1990 0.5000
12.7259 -1.9023 0.5000
11.4545 -3.1155 0.5000
-5.9657 2.9599 0.5000
3.5793 8.2186 0.5000
-6.3313 2.2098 0.5000
3.5817 8.3048 0.5000
5.1962 2.7261 0.5000
0.8334 4.8882 0.5000
-0.4984 -0.7217 0.5000
-4.7842 1.2936 0.5000
-0.7955 10.1157 0.5000
4.7980 1.4364 0.5000
-0.8295 10.2262 0.5000
-5.1151 1.6488 0.5000
1.3820 9.4102 0.5000
1.3945 9.2136 0.5000
-2.5135 7.2065 0.5000
0.5794 4.7199 0.5000
4.0301 0.6649 0.5000
-4.6115 1.2895 0.5000
-6.1568 2.5984 0.5000
-3.1643 4.7757 0.5000
-1.1934 3.3209 0.5000
-0.8263 3.4726 0.5000
-0.4600 3.9501 0.5000
0.4710 4.2966 0.5000
6.8670 -0.5115 0.5000
9.5014 -1.8637 0.5000
-5.9257 3.2612 0.5000
1.9938 8.9810 0.5000
6.3028 0.3887 0.5000
-3.5659 4.2205 0.5000
-2.8634 5.4359 0.5000
11.7860 -2.3395 0.5000
-4.5942 1.7815 0.5000
-1.3632 1.9968 0.5000
-1.3096 3.4149 0.5000
-4.6817 3.5036 0.5000
-3.6526 4.3536 0.5000
-1.7758 3.4643 0.5000
-0.5036 3.9343 0.5000
-4.8965 3.5700 0.5000
-4.6562 1.3698 0.5000
-4.8695 3.4526 0.5000
1.8144 9.0488 0.5000
-1.4679 8.4702 0.5000
-1.4330 8.4488 0.5000
0.8331 4.7795 0.5000
12.1810 2.7288 0.5000
11.5691 -2.9769 0.5000
-5.5304 1.8810 0.5000
6.8491 -0.4091 0.5000
-5.5704 2.2385 0.5000
1.8486 -1.5625 0.5000
-1.8277 8.2764 0.5000
11.8260 -2.4661 0.5000
-1.8459 8.1065 0.5000
-0.9898 9.9024 0.5000
1.2330 9.4595 0.5000
3.2043 8.4616 0.5000
6.2752 -0.1440 0.5000
12.7342 -1.7950 0.5000
11.2183 -7.4964 0.5000
2.7610 -1.7479 0.5000
-5.2784 3.7267 0.5000
-4.7046 3.3760 0.5000
-1.2181 2.9869 0.5000
0.3382 4.3942 0.5000
-3.3539 0.6438 0.5000
11.5242 -3.0795 0.5000
-2.1563 7.5767 0.5000
-1.5265 8.9865 0.5000
-4.4039 1.2705 0.5000
-5.7875 3.2623 0.5000
-2.8558 5.6900 0.5000
-1.9210 8.2324 0.5000
-1.1088 9.7443 0.5000
0.5848 4.8775 0.5000
6.3656 0.6290 0.5000
-1.9630 8.2126 0.5000
0.5184 4.8764 0.5000
0.5226 4.9421 0.5000
-4.8962 1.3544 0.5000
-1.3597 3.2935 0.5000
-2.3675 3.4766 0.5000
-1.6823 3.1623 0.5000
-0.6980 4.5384 0.5000
4.5869 1.4942 0.5000
6.3673 0.4595 0.5000
-1.7458 8.4671 0.5000
0.7272 4.8870 0.5000
-5.0801 1.5316 0.5000
3.5403 -0.2979 0.5000
-4.3094 1.1325 0.5000
-6.1851 2.4326 0.5000
-1.9232 2.8399 0.5000
-1.3968 2.5593 0.5000
-0.0488 -0.9845 0.5000
0.7779 -1.4545 0.5000
-1.2333 2.0005 0.5000
-5.1921 3.8153 0.5000
-2.5255 6.8723 0.5000
-1.8240 8.0936 0.5000
1.1533 9.5441 0.5000
3.5909 2.1689 0.5000
5.5982 1.1963 0.5000
-4.9318 3.5994 0.5000
-2.8371 5.5800 0.5000
-3.4840 1.0654 0.5000
0.4048 4.4442 0.5000
1.6300 -0.5869 0.5000
-1.3273 8.6556 0.5000
11.4560 -3.1510 0.5000
5.5091 -3.9900 0.5000
0.8578 5.1157 0.5000
0.7669 4.9319 0.5000
11.6560 -2.7565 0.5000
-0.9005 4.3250 0.5000
-4.3541 1.1418 0.5000
-3.4960 4.2579 0.5000
-2.4293 6.9137 0.5000
-2.4367 7.0216 0.5000
-1.8570 8.2128 0.5000
1.1111 4.9235 0.5000
1.0644 4.9724 0.5000
1.0637 4.9254 0.5000
11.3584 -3.3893 0.5000
-4.7522 1.3916 0.5000
-4.7684 3.4100 0.5000
-1.7413 3.1509 0.5000
3.0012 -1.1973 0.5000
-2.4906 3.3973 0.5000
1.4433 4.8566 0.5000
12.8375 -1.6537 0.5000
0.7560 4.9618 0.5000
1.3419 4.8271 0.5000
-3.7081 0.8420 0.5000
-3.0645 0.9450 0.5000
-1.8939 8.5015 0.5000
-0.7640 3.5017 0.5000
-2.3881 3.4003 0.5000
-1.0166 3.7944 0.5000
9.4396 4.3911 0.5000
-4.2337 1.1656 0.5000
11.4959 -2.9411 0.5000
-1.0518 3.2523 0.5000
-0.8853 4.3595 0.5000
-1.7351 8.3919 0.5000
0.6365 4.3555 0.5000
1.2536 4.7739 0.5000
11.7204 3.0668 0.5000
1.3205 9.3644 0.5000
1.1933 4.8073 0.5000
1.2550 4.8792 0.5000
-1.7745 8.2072 0.5000
1.2757 9.4227 0.5000
1.1947 4.8689 0.5000
1.2401 4.8901 0.5000
4.3124 1.9468 0.5000
1.1428 9.2932 0.5000
1.1447 4.8023 0.5000
1.1520 4.7998 0.5000
3.1022 8.5415 0.5000
-5.1577 3.6237 0.5000
-4.8990 3.6503 0.5000
6.6455 -0.4639 0.5000
-4.5817 1.4195 0.5000
1.5819 4.7411 0.5000
1.6289 4.7655 0.5000
1.5575 4.7915 0.5000
-4.7859 3.4905 0.5000
1.8811 8.9886 0.5000
1.6045 4.8275 0.5000
-5.1086 3.6095 0.5000
-4.2523 3.7523 0.5000
-0.7979 3.5754 0.5000
9.2117 -1.9735 0.5000
-1.0688 9.6781 0.5000
1.1035 9.3331 0.5000
1.1881 9.4363 0.5000
1.7114 4.7462 0.5000
1.7826 4.8159 0.5000
-1.0668 9.8444 0.5000
1.7435 4.8369 0.5000
3.2984 -0.7823 0.5000
0.5501 -1.2992 0.5000
-1.1794 9.7822 0.5000
1.0608 9.3936 0.5000
1.6995 4.8199 0.5000
13.2528 -0.9179 0.5000
-5.1020 3.5629 0.5000
-2.6653 6.9767 0.5000
-0.8449 3.3373 0.5000
-0.6415 4.5587 0.5000
1.7213 4.9838 0.5000
-4.4631 1.3384 0.5000
-2.0867 7.7984 0.5000
1.6355 5.0856 0.5000
1.7106 5.1149 0.5000
3.4235 2.2416 0.5000
-5.0585 3.6958 0.5000
-1.3967 9.2068 0.5000
1.6441 5.1571 0.5000
1.7369 5.2554 0.5000
-5.0122 3.5892 0.5000
1.7848 8.9234 0.5000
1.6134 5.1035 0.5000
3.3353 2.2161 0.5000
1.7699 5.4115 0.5000
1.7888 9.1663 0.5000
1.6587 5.4375 0.5000
1.6889 9.1515 0.5000
-2.2115 7.7463 0.5000
1.6383 5.4540 0.5000
6.3010 -0.0619 0.5000
12.7348 -1.7452 0.5000
11.4991 -2.9864 0.5000
-4.8630 1.2933 0.5000
-2.0096 7.7077 0.5000
-0.6280 4.5381 0.5000
1.9086 5.7298 0.5000
3.8126 8.1240 0.5000
9.5416 4.3335 0.5000
4.6029 1.4808 0.5000
-2.0657 7.5490 0.5000
1.7819 9.0275 0.5000
1.8263 5.7996 0.5000
3.4491 2.2822 0.5000
-5.3697 3.7890 0.5000
1.7110 9.1282 0.5000
1.7945 5.7696 0.5000
12.1516 -1.7239 0.5000
3.1994 -0.9944 0.5000
-2.3731 7.5191 0.5000
-3.2379 0.7022 0.5000
1.1767 6.9287 0.5000
2.5372 5.9977 0.5000
12.0579 2.8477 0.5000
2.4031 5.9853 0.5000
2.4081 6.0851 0.5000
3.4917 8.3849 0.5000
-1.7392 8.6266 0.5000
2.3702 6.0473 0.5000
11.6553 -2.5821 0.5000
-0.8069 3.5479 0.5000
-3.7968 1.0014 0.5000
-1.4666 8.5461 0.5000
-1.4168 8.4647 0.5000
11.4088 -4.4010 0.5000
1.9653 6.7127 0.5000
6.8725 -0.4426 0.5000
1.4288 9.1515 0.5000
-1.2225 3.4898 0.5000
0.4381 -1.1251 0.5000
-1.4130 2.1027 0.5000
-1.4206 8.6820 0.5000
2.1020 6.7342 0.5000
12.7555 -1.8382 0.5000
-2.1417 7.4717 0.5000
2.0249 6.8735 0.5000
2.1285 6.9168 0.5000
2.0882 6.9068 0.5000
-1.6650 8.8861 0.5000
12.8933 -1.5046 0.5000
-5.1024 3.6973 0.5000
-2.8575 5.5035 0.5000
-2.8521 5.3682 0.5000
-2.7002 6.8687 0.5000
-1.3527 9.5014 0.5000
3.2493 -0.8971 0.5000
-3.5545 0.7484 0.5000
-4.0518 4.1964 0.5000
-2.1581 0.0438 0.5000
-0.8975 3.1967 0.5000
2.2205 7.5497 0.5000
1.5546 9.2270 0.5000
-2.3183 7.5938 0.5000
-5.4388 1.8086 0.5000
-0.7834 3.4193 0.5000
6.7402 -0.5312 0.5000
1.7196 7.7011 0.5000
1.8195 7.8872 0.5000
3.9172 8.1083 0.5000
0.9930 9.6194 0.5000
1.7301 7.9038 0.5000
1.8135 7.9719 0.5000
-5.3295 3.7668 0.5000
0.9381 9.5688 0.5000
0.9626 9.4359 0.5000
1.6818 7.8371 0.5000
1.7150 7.8347 0.5000
6.8095 -0.3375 0.5000
-1.3507 -0.3503 0.5000
3.4599 2.2442 0.5000
9.2209 4.4928 0.5000
12.2414 2.6815 0.5000
6.1422 -0.1028 0.5000
11.5307 -3.0074 0.5000
1.3132 8.0023 0.5000
1.4422 8.2188 0.5000
1.3604 8.2668 0.5000
1.6283 9.3139 0.5000
1.3302 8.2368 0.5000
9.1427 4.6583 0.5000
12.1217 2.9358 0.5000
6.4677 0.7921 0.5000
12.8296 -1.5307 0.5000
-4.0720 0.9936 0.5000
0.8302 7.1158 0.5000
-1.3270 9.5067 0.5000
0.8676 9.5130 0.5000
0.8885 9.4032 0.5000
4.2878 1.9524 0.5000
11.9813 -1.9905 0.5000
-1.4924 2.0476 0.5000
-0.3988 -0.6638 0.5000
-1.1418 2.8762 0.5000
-1.4333 8.5416 0.5000
1.2453 6.9153 0.5000
11.5593 -3.0480 0.5000
-3.2442 4.3172 0.5000
1.6641 9.2693 0.5000
-2.1658 7.4833 0.5000
-1.6781 8.8367 0.5000
-3.6633 0.7961 0.5000
1.7089 -1.5265 0.5000
9.1365 -1.9469 0.5000
1.1187 9.4168 0.5000
1.1860 9.3654 0.5000
3.0788 -1.1127 0.5000
-3.4528 4.0797 0.5000
-1.1560 9.7265 0.5000
-1.1546 9.8001 0.5000
13.2800 -0.8951 0.5000
-1.3224 9.6097 0.5000
1.5860 9.0940 0.5000
2.6704 8.7661 0.5000
6.8812 -0.4692 0.5000
11.4854 -4.3417 0.5000
-5.5579 2.1685 0.5000
-1.8534 -0.1018 0.5000
1.6840 -0.6687 0.5000
-1.8565 3.8174 0.5000
0.5326 4.4231 0.5000
13.2102 -1.1137 0.5000
1.1157 9.5620 0.5000
-2.0082 8.2088 0.5000
-1.1514 2.9584 0.5000
-5.1434 3.7546 0.5000
0.3658 4.2836 0.5000
9.5353 4.2837 0.5000
5.6573 1.0718 0.5000
6.4809 -0.3007 0.5000
-2.0989 7.6781 0.5000
3.4470 -0.3354 0.5000
-3.9169 4.4024 0.5000
-1.4442 9.2372 0.5000
9.4233 4.4701 0.5000
12.0853 -1.7878 0.5000
11.4022 -3.1318 0.5000
2.8748 -1.6822 0.5000
0.4896 4.3121 0.5000
4.0449 8.0697 0.5000
6.7574 1.1631 0.5000
-3.1117 0.9807 0.5000
-5.4037 3.7695 0.5000
-1.3062 9.5774 0.5000
0.8910 9.3831 0.5000
6.2354 0.4629 0.5000
6.7623 -0.2940 0.5000
-3.7657 0.8433 0.5000
-5.6328 2.2588 0.5000
12.0618 2.7939 0.5000
11.6049 -2.9421 0.5000
1.4586 9.2340 0.5000
3.5044 8.3797 0.5000
11.6373 -2.6232 0.5000
-5.0782 1.7066 0.5000
-0.8015 8.1076 0.5000
-0.8257 8.0775 0.5000
12.0236 -5.6624 0.5000
-1.0342 9.8146 0.5000
1.2118 9.5298 0.5000
-2.8526 5.7035 0.5000
-4.1545 3.9690 0.5000
-1.0226 8.1281 0.5000
-2.6557 0.2980 0.5000
-3.8543 0.8982 0.5000
-4.9498 1.4064 0.5000
-2.2536 0.0937 0.5000
-1.4158 8.9464 0.5000
-0.8463 4.3910 0.5000
1.5587 -0.8484 0.5000
0.1094 -0.8976 0.5000
-1.1470 3.5794 0.5000
3.4865 2.3489 0.5000
9.3654 -2.2924 0.5000
-2.9974 4.8860 0.5000
-0.8715 10.0124 0.5000
-1.7718 8.2959 0.5000
2.2728 8.8876 0.5000
6.4327 -0.2279 0.5000
12.1067 -1.8932 0.5000
-2.7136 5.6611 0.5000
1.3014 9.2894 0.5000
-0.8732 8.0090 0.5000
0.5920 4.3224 0.5000
-0.8758 7.9801 0.5000
1.1116 9.3534 0.5000
1.2415 9.3879 0.5000
-2.7520 5.6352 0.5000
11.7272 -3.7202 0.5000
-1.0763 7.8399 0.5000
0.4242 4.4759 0.5000
-5.0810 3.7543 0.5000
-1.0405 7.7267 0.5000
-1.2272 7.9648 0.5000
-1.1879 7.7146 0.5000
6.4934 -0.1729 0.5000
2.8458 -1.6866 0.5000
-1.1335 3.6783 0.5000
-0.9615 -0.5529 0.5000
11.5578 -4.1413 0.5000
-2.9079 6.1677 0.5000
-0.9189 10.0861 0.5000
-3.1123 4.8677 0.5000
-1.8549 8.4578 0.5000
-1.0491 10.0695 0.5000
11.7931 -2.3593 0.5000
-5.0636 3.5448 0.5000
-1.2399 3.2423 0.5000
-2.5312 6.7966 0.5000
-0.9593 7.7212 0.5000
3.5509 -0.3565 0.5000
-1.1549 7.9420 0.5000
0.7798 9.4723 0.5000
4.6956 1.5626 0.5000
6.2922 0.5589 0.5000
6.6284 -0.2285 0.5000
-6.4582 2.1248 0.5000
-2.5904 3.3058 0.5000
-1.1043 3.0591 0.5000
-1.0175 7.8087 0.5000
9.3019 -2.0906 0.5000
-4.6381 1.4192 0.5000
-6.1601 2.6055 0.5000
-4.6820 3.4054 0.5000
-3.8216 4.2740 0.5000
-1.1146 7.9795 0.5000
-1.2253 7.7370 0.5000
-4.9327 3.6264 0.5000
-0.8755 7.8137 0.5000
-0.8870 7.9115 0.5000
3.2312 -0.7726 0.5000
13.2287 -0.8877 0.5000
-1.0671 7.7352 0.5000
1.6102 -1.2320 0.5000
-2.3747 6.9343 0.5000
-0.9171 4.2120 0.5000
-0.7635 7.9054 0.5000
9.3276 -1.6193 0.5000
-5.8002 3.4555 0.5000
12.0163 -1.9694 0.5000
11.2447 -4.6838 0.5000
6.6125 -0.2542 0.5000
-1.9856 8.2783 0.5000
-0.9745 7.9735 0.5000
-0.9079 7.9141 0.5000
2.0619 8.9458 0.5000
2.8644 -1.7042 0.5000
1.6282 -1.0578 0.5000
1.6075 -0.9535 0.5000
-1.3508 8.6701 0.5000
12.7489 -1.5924 0.5000
-1.2030 3.5732 0.5000
-0.8751 7.8579 0.5000
-0.8290 7.8781 0.5000
13.2545 -1.0874 0.5000
11.2445 -3.6540 0.5000
12.0886 -5.6082 0.5000
-5.8313 3.2546 0.5000
3.5455 2.1898 0.5000
-1.0221 7.9479 0.5000
1.5794 -0.8678 0.5000
-5.2896 3.8777 0.5000
1.5632 -0.9648 0.5000
-5.2563 3.8154 0.5000
-1.1235 7.7413 0.5000
-1.1067 7.7635 0.5000
2.9983 -1.3521 0.5000
1.8951 9.1762 0.5000
11.7518 -2.4711 0.5000
-1.2138 8.0440 0.5000
-1.3288 7.9739 0.5000
1.6189 -0.9165 0.5000
-2.7595 5.8418 0.5000
1.2802 9.4741 0.5000
12.1330 -1.7543 0.5000
-5.7641 3.3840 0.5000
-1.0272 10.0165 0.5000
3.1167 8.4469 0.5000
11.7837 3.2764 0.5000
1.5553 -0.9210 0.5000
1.6955 -0.9568 0.5000
-2.3844 6.8105 0.5000
3.1562 8.5020 0.5000
6.4676 -0.2368 0.5000
6.5389 -0.2254 0.5000
-0.9739 7.8719 0.5000
3.0840 -1.1941 0.5000
1.6693 -0.5864 0.5000
-4.1768 1.7302 0.5000
11.4745 -3.0955 0.5000
-2.3172 7.6219 0.5000
-1.6059 8.9875 0.5000
12.7983 -1.5850 0.5000
-5.1034 1.5427 0.5000
-0.6533 -0.7045 0.5000
-2.4193 6.7201 0.5000
11.9010 -2.3171 0.5000
11.2556 -3.6180 0.5000
-2.8518 5.5760 0.5000
11.4123 -3.3013 0.5000
-1.3735 3.3037 0.5000
-1.2079 7.6674 0.5000
-3.8998 1.0534 0.5000
-1.4895 8.6176 0.5000
-5.5608 1.9082 0.5000
-6.3028 2.2688 0.5000
-1.2555 7.7734 0.5000
1.6981 8.9959 0.5000
-1.1553 3.6918 0.5000
1.4846 9.2574 0.5000
-2.9315 6.3021 0.5000
2.6744 -1.8649 0.5000
-1.8286 8.3605 0.5000
11.8418 -2.2596 0.5000
1.6226 -1.0175 0.5000
-4.8077 3.6049 0.5000
-1.6505 3.2186 0.5000
3.5826 2.1444 0.5000
6.5785 -0.3550 0.5000
-1.1005 7.9264 0.5000
-1.3857 7.9645 0.5000
6.2819 -0.0386 0.5000
-3.1082 1.1837 0.5000
-3.4807 1.1588 0.5000
-0.7874 4.0551 0.5000
1.1166 6.9920 0.5000
11.9137 2.9096 0.5000
3.4356 8.4088 0.5000
-5.6477 3.4861 0.5000
1.3209 -0.9028 0.5000
1.5810 -1.0139 0.5000
-3.0959 4.6879 0.5000
-0.9430 7.7331 0.5000
11.2948 -3.4801 0.5000
-1.0494 7.8516 0.5000
0.9415 9.3743 0.5000
-1.1993 7.6969 0.5000
-3.2645 0.5993 0.5000
1.4564 9.1465 0.5000
6.3711 0.7717 0.5000
-3.2749 1.0068 0.5000
-3.9620 0.9457 0.5000
-0.9388 7.6936 0.5000
0.7627 7.1536 0.5000
3.9963 8.0635 0.5000
11.9706 -2.2488 0.5000
-6.2719 2.4492 0.5000
0.8480 9.4894 0.5000
0.8389 9.4410 0.5000
4.3267 2.0043 0.5000
12.0356 -1.9186 0.5000
-1.1141 3.7608 0.5000
-0.7737 4.4942 0.5000
-2.4256 3.3910 0.5000
-1.4470 8.7963 0.5000
-1.3776 8.4740 0.5000
9.2929 4.4529 0.5000
12.2879 2.6410 0.5000
2.7024 -2.0319 0.5000
6.7806 -0.5432 0.5000
-1.5407 8.4650 0.5000
-3.0607 1.1892 0.5000
-3.2000 1.2353 0.5000
-0.8330 10.0494 0.5000
11.7518 3.0281 0.5000
11.7734 -2.6027 0.5000
-1.7270 8.1489 0.5000
-0.8597 10.0604 0.5000
2.3740 8.9041 0.5000
12.1537 -1.8359 0.5000
-2.8053 5.8690 0.5000
-1.0747 9.9758 0.5000
1.1606 9.2790 0.5000
-1.5148 8.7028 0.5000
-2.9037 6.4524 0.5000
-1.7355 8.7529 0.5000
-5.5051 2.3462 0.5000
2.4137 1.9037 0.5000
-1.2635 7.8615 0.5000
-1.2305 7.8728 0.5000
2.6180 8.6893 0.5000
-6.4558 2.1597 0.5000
-1.1233 3.7028 0.5000
-3.0564 0.4987 0.5000
-1.7544 2.0941 0.5000
-1.2559 1.9485 0.5000
-0.8249 4.2690 0.5000
0.7104 4.3690 0.5000
-4.9499 1.5719 0.5000
-1.6996 8.4104 0.5000
-2.7780 5.9168 0.5000
-0.8071 10.1702 0.5000
3.3657 8.4118 0.5000
1.3072 9.3432 0.5000
-4.9439 3.6516 0.5000
-3.7974 4.4669 0.5000
-1.6481 3.1993 0.5000
-1.2489 3.2588 0.5000
-5.2114 3.8252 0.5000
-1.3255 9.1994 0.5000
-5.9009 3.0952 0.5000
-4.9910 3.5649 0.5000
-1.1560 7.8675 0.5000
9.5403 4.4598 0.5000
-1.3478 7.7054 0.5000
-2.0180 7.4708 0.5000
-1.1613 7.8253 0.5000
3.7673 8.1874 0.5000
11.3175 -4.6304 0.5000
-1.3518 7.7930 0.5000
2.2575 2.0091 0.5000
11.2584 -7.4072 0.5000
3.0107 8.4978 0.5000
3.3526 -0.8232 0.5000
-2.6079 7.0689 0.5000
0.4209 4.2921 0.5000
0.4244 4.3163 0.5000
12.8174 -1.8312 0.5000
3.3529 -0.7955 0.5000
0.5275 4.1574 0.5000
9.2719 -1.9264 0.5000
-5.0492 3.7209 0.5000
1.0415 9.4107 0.5000
13.2409 -0.8147 0.5000
-1.8997 2.8514 0.5000
-4.6267 3.4141 0.5000
-3.1311 4.5304 0.5000
0.8559 9.4742 0.5000
1.8539 8.9119 0.5000
-6.1000 2.4641 0.5000
-1.2578 3.0290 0.5000
-1.2828 7.8323 0.5000
-1.0726 3.6739 0.5000
12.0263 2.7731 0.5000
3.5514 -0.4035 0.5000
-6.0555 2.7508 0.5000
11.9780 3.0755 0.5000
-1.9312 7.7883 0.5000
9.6292 4.2408 0.5000
-1.1871 7.9585 0.5000
-2.8596 6.5681 0.5000
-0.8285 4.4662 0.5000
-3.0856 1.0510 0.5000
-2.2933 7.3206 0.5000
11.9408 2.8743 0.5000
-5.7183 2.4740 0.5000
-1.0653 7.8917 0.5000
12.0831 -2.0340 0.5000
3.7383 8.2037 0.5000
-6.2496 2.3458 0.5000
-2.2199 7.8530 0.5000
1.7391 9.0409 0.5000
6.4558 -0.1442 0.5000
-4.1340 1.0491 0.5000
-0.7167 4.6128 0.5000
0.7892 9.4417 0.5000
0.3188 4.3491 0.5000
-4.2579 1.0968 0.5000
9.3738 -2.2427 0.5000
3.2210 -0.7372 0.5000
1.6729 -1.0391 0.5000
-5.5761 2.3908 0.5000
-1.4651 9.1460 0.5000
1.6618 9.0961 0.5000
12.6961 -1.7563 0.5000
-1.4802 7.9897 0.5000
-0.1896 -0.8866 0.5000
-4.7809 1.3420 0.5000
-1.6764 8.3950 0.5000
-5.0291 1.5941 0.5000
6.5708 -0.2919 0.5000
1.3493 9.1882 0.5000
3.2415 8.3933 0.5000
-2.3446 3.5118 0.5000
-1.9689 7.8668 0.5000
1.7371 8.9787 0.5000
9.4821 4.4903 0.5000
-4.9681 1.3748 0.5000
-2.7898 6.4366 0.5000
-1.5290 8.6723 0.5000
11.4942 -4.3602 0.5000
9.4705 -2.0920 0.5000
13.1686 -1.0726 0.5000
11.2645 -3.5704 0.5000
5.1443 2.8383 0.5000
-1.3889 2.9334 0.5000
12.8277 -1.4255 0.5000
-1.1285 9.5286 0.5000
9.5971 4.3220 0.5000
12.6846 -1.9120 0.5000
12.0835 -1.7111 0.5000
6.1928 0.3929 0.5000
11.8916 -2.1930 0.5000
-2.9627 6.3499 0.5000
1.3096 9.2450 0.5000
11.6401 -4.0063 0.5000
-4.9997 3.7002 0.5000
-1.2606 3.2543 0.5000
3.6003 2.1680 0.5000
3.0057 -1.4177 0.5000
-5.8816 3.0470 0.5000
-5.1668 3.7475 0.5000
-1.3683 7.7373 0.5000
0.4152 -1.0784 0.5000
1.3640 9.1578 0.5000
3.5548 -0.3325 0.5000
-1.0131 7.9557 0.5000
-2.6469 3.3556 0.5000
-1.0003 3.1552 0.5000
-1.0402 3.5052 0.5000
1.4923 9.1851 0.5000
11.7000 -2.7696 0.5000
4.4006 1.7085 0.5000
2.1498 -1.3991 0.5000
-3.6962 4.4023 0.5000
0.4980 4.2415 0.5000
9.4174 -1.7747 0.5000
2.9766 8.6188 0.5000
-5.5610 1.8202 0.5000
11.5324 -4.1736 0.5000
-6.3948 2.2500 0.5000
-1.3055 2.7706 0.5000
-1.8399 8.5612 0.5000
-4.1730 1.0455 0.5000
-4.5624 1.7373 0.5000
4.3278 1.6452 0.5000
11.9591 2.9152 0.5000
-4.8962 1.5687 0.5000
11.7353 -2.4761 0.5000
1.3479 -0.6691 0.5000
-1.2133 7.9363 0.5000
-4.0445 1.6676 0.5000
-1.6908 3.0998 0.5000
12.8805 -1.5554 0.5000
9.0830 -2.0502 0.5000
1.2995 9.3291 0.5000
6.2045 0.1518 0.5000
11.8564 -2.5175 0.5000
-2.7776 5.6861 0.5000
-4.6856 3.3602 0.5000
0.8894 9.5841 0.5000
11.4197 -3.2527 0.5000
-2.8358 6.0428 0.5000
-5.0363 1.5404 0.5000
1.2709 9.2964 0.5000
-3.1787 1.2145 0.5000
0.6039 4.3386 0.5000
5.2024 2.7508 0.5000
11.7633 3.0751 0.5000
-1.7134 8.2558 0.5000
2.2607 8.9683 0.5000
-2.8948 5.9043 0.5000
4.2477 1.8081 0.5000
1.5312 9.1045 0.5000
12.1667 2.9223 0.5000
-2.4625 7.3518 0.5000
-1.2631 9.6842 0.5000
3.3745 -0.7352 0.5000
12.7469 -1.6509 0.5000
0.6580 4.3368 0.5000
-2.7766 5.8846 0.5000
-2.9515 6.2574 0.5000
-1.0572 10.0338 0.5000
1.7520 -1.4949 0.5000
2.4675 -1.6241 0.5000
-3.5112 1.1088 0.5000
-2.4609 6.7025 0.5000
-0.9386 7.8996 0.5000
11.3154 -3.5322 0.5000
-1.3537 8.1323 0.5000
6.1680 -0.1413 0.5000
12.1024 2.9863 0.5000
0.9111 9.6071 0.5000
-5.3339 3.7116 0.5000
0.9142 9.4976 0.5000
0.9235 9.4247 0.5000
-4.8866 3.4490 0.5000
0.3072 4.2897 0.5000
11.3610 -7.3997 0.5000
-1.2386 1.9447 0.5000
0.5458 4.2285 0.5000
1.0007 9.3499 0.5000
13.2444 -0.7829 0.5000
-4.0981 1.1555 0.5000
13.1461 -1.1447 0.5000
13.2517 -0.8303 0.5000
-1.1076 7.8294 0.5000
-5.4595 2.3506 0.5000
-2.3334 3.4473 0.5000
5.6446 1.0859 0.5000
-3.1975 4.4387 0.5000
-1.4591 7.9001 0.5000
-3.3913 1.3332 0.5000
-1.1253 3.6173 0.5000
1.1480 6.9438 0.5000
-5.2164 1.6370 0.5000
11.8931 3.0978 0.5000
13.2726 -1.0326 0.5000
-2.8393 5.6200 0.5000
12.8646 -1.7136 0.5000
11.6069 -2.9727 0.5000
-4.5915 1.2449 0.5000
-6.0538 2.4567 0.5000
-4.5271 3.2443 0.5000
9.3610 -1.9094 0.5000
-1.2946 3.2266 0.5000
-0.9474 3.5823 0.5000
9.2389 4.5225 0.5000
12.1217 2.7910 0.5000
11.5192 -4.1452 0.5000
1.6767 9.0021 0.5000
1.7399 9.0952 0.5000
-1.0379 3.7355 0.5000
11.5430 -2.8218 0.5000
-0.9752 7.8184 0.5000
3.9215 8.0677 0.5000
0.8282 9.5218 0.5000
1.8215 8.9993 0.5000
12.0254 -1.8714 0.5000
-3.1433 0.6513 0.5000
-1.6936 8.3477 0.5000
1.6722 -0.9220 0.5000
1.9012 -1.5522 0.5000
-2.4370 6.8633 0.5000
11.2373 -3.5939 0.5000
-4.8060 1.3163 0.5000
-2.4720 3.3257 0.5000
1.0625 7.0157 0.5000
-5.4084 3.7419 0.5000
3.7516 8.2074 0.5000
3.6504 8.3241 0.5000
-4.2994 3.5484 0.5000
-1.6088 9.0279 0.5000
1.6149 -0.8950 0.5000
-1.7209 2.0928 0.5000
5.6505 1.2022 0.5000
6.4064 0.6041 0.5000
12.7066 -1.8424 0.5000
1.6220 9.0767 0.5000
-6.3655 2.1531 0.5000
-0.8321 7.9779 0.5000
0.9180 7.1063 0.5000
11.6453 3.2280 0.5000
13.2590 -0.7973 0.5000
-2.7458 6.4801 0.5000
-1.3639 8.0390 0.5000
9.2720 4.5058 0.5000
12.2243 2.7134 0.5000
12.8142 -1.7239 0.5000
6.4043 0.8132 0.5000
0.4017 -1.0435 0.5000
7.7739 -5.0723 0.5000
-2.5203 6.7163 0.5000
-2.0161 2.7272 0.5000
-3.8641 1.5740 0.5000
0.7129 4.3296 0.5000
0.6042 4.2940 0.5000
-6.0943 2.4460 0.5000
-3.5288 4.0939 0.5000
0.6127 4.1402 0.5000
9.1695 -2.1107 0.5000
0.5643 4.4048 0.5000
12.6658 -1.8475 0.5000
3.2447 -0.8301 0.5000
2.7394 -1.8396 0.5000
0.4970 4.4993 0.5000
12.1980 -1.9475 0.5000
-2.5514 3.3607 0.5000
-1.6425 8.3989 0.5000
-3.0773 1.0434 0.5000
0.6292 4.2361 0.5000
11.9030 2.9759 0.5000
-4.9248 1.4869 0.5000
0.5737 4.3809 0.5000
5.1544 2.8969 0.5000
3.4837 -0.2683 0.5000
11.2263 -4.7600 0.5000
-1.0914 3.3726 0.5000
5.6695 1.1244 0.5000
-2.7533 5.7689 0.5000
-1.1190 9.9047 0.5000
-3.4911 1.0492 0.5000
12.7559 -1.9703 0.5000
9.3117 -1.9145 0.5000
2.2552 -1.2577 0.5000
1.5580 -1.1369 0.5000
-1.3070 2.7052 0.5000
9.4998 -1.9135 0.5000
-2.4238 3.5040 0.5000
12.5908 -1.9683 0.5000
1.6449 9.0237 0.5000
3.3995 2.3399 0.5000
11.5391 -2.9646 0.5000
-1.0315 3.2397 0.5000
-1.5193 7.9493 0.5000
2.4884 -1.6841 0.5000
-2.8010 5.6870 0.5000
-4.6298 3.3703 0.5000
13.1792 -0.9484 0.5000
-5.3563 3.7108 0.5000
1.4496 -0.8541 0.5000
-1.2907 7.9672 0.5000
9.1496 4.6262 0.5000
12.2390 2.8702 0.5000
-3.5796 1.4234 0.5000
3.4646 8.4006 0.5000
-6.1310 2.4409 0.5000
-5.5519 2.4133 0.5000
-1.1737 3.2896 0.5000
-0.4462 3.9537 0.5000
4.8382 1.3989 0.5000
9.2340 -1.8362 0.5000
-3.6035 4.3721 0.5000
9.3556 -2.1918 0.5000
-3.1471 4.5915 0.5000
1.2777 6.9112 0.5000
3.4105 2.1992 0.5000
12.2803 2.6814 0.5000
12.1515 2.9618 0.5000
12.8141 -1.4882 0.5000
-2.4522 6.8981 0.5000
-0.4559 4.0415 0.5000
0.8644 7.1211 0.5000
-1.9925 7.5826 0.5000
-1.5370 9.1746 0.5000
-3.4002 4.3244 0.5000
-2.6486 5.5496 0.5000
0.9474 7.0615 0.5000
11.8101 -2.5300 0.5000
11.6727 -3.9672 0.5000
1.0561 9.3312 0.5000
-2.7464 5.8534 0.5000
11.3440 -4.5425 0.5000
-5.0971 1.5954 0.5000
1.3572 9.1484 0.5000
11.6482 -2.5900 0.5000
2.5773 -1.5315 0.5000
-3.3188 1.1597 0.5000
13.1881 -1.1036 0.5000
-5.4466 2.2915 0.5000
11.4523 -3.2239 0.5000
-3.7729 4.2479 0.5000
-1.4228 7.9933 0.5000
1.0610 6.9838 0.5000
6.7197 1.1723 0.5000
5.6555 1.1548 0.5000
-1.0698 3.5195 0.5000
1.3482 -0.7485 0.5000
0.1538 -0.8981 0.5000
-0.9817 3.3600 0.5000
-0.7980 -0.5949 0.5000
6.8274 -0.5339 0.5000
2.0300 8.9399 0.5000
-2.5985 3.2574 0.5000
12.8825 -1.4908 0.5000
-0.8367 7.9028 0.5000
11.2858 -4.5815 0.5000
-1.5909 9.0597 0.5000
-0.7895 4.4267 0.5000
-2.0810 7.3855 0.5000
-1.3739 8.8061 0.5000
3.5352 8.2465 0.5000
11.5358 -2.8619 0.5000
-1.2102 3.6182 0.5000
-2.3831 6.7910 0.5000
-1.1383 8.0616 0.5000
11.2608 -4.7714 0.5000
0.9748 7.0514 0.5000
-5.6676 2.4499 0.5000
-1.3405 2.5459 0.5000
2.0303 -1.4463 0.5000
11.6067 -4.0983 0.5000
0.9977 9.3422 0.5000
11.2980 -3.4285 0.5000
6.7498 -0.4533 0.5000
-0.8959 4.2268 0.5000
-0.8648 9.8417 0.5000
-1.7288 8.1833 0.5000
-3.3817 4.0978 0.5000
1.2973 -0.8364 0.5000
4.5107 1.6650 0.5000
9.1081 -2.0540 0.5000
11.5457 -4.2702 0.5000
6.7077 -0.2927 0.5000
11.4821 -6.6982 0.5000
11.7128 -3.7900 0.5000
-2.6517 7.0049 0.5000
-4.5972 3.4503 0.5000
-1.2415 3.3426 0.5000
11.3597 -3.2118 0.5000
-3.1784 0.9728 0.5000
-2.4609 6.8389 0.5000
6.7728 1.1465 0.5000
11.5493 -4.2180 0.5000
11.3230 -4.6673 0.5000
-2.2609 7.7494 0.5000
-2.6000 3.2677 0.5000
5.6051 -4.0231 0.5000
-2.5902 3.2495 0.5000
-2.3324 6.9009 0.5000
1.2580 9.5026 0.5000
-4.0489 3.9869 0.5000
-0.3993 -0.7069 0.5000
-5.8617 2.5290 0.5000
3.8896 8.0736 0.5000
9.5744 4.2672 0.5000
1.7773 8.9852 0.5000
-1.5411 8.5314 0.5000
-6.2030 2.7368 0.5000
1.2204 9.2773 0.5000
0.9767 7.0358 0.5000
12.4517 -1.8552 0.5000
1.6938 -1.5556 0.5000
-2.8231 5.9152 0.5000
-2.9724 6.1929 0.5000
-0.9796 10.1439 0.5000
9.2887 -1.6312 0.5000
0.0646 -1.0762 0.5000
-1.5811 9.1035 0.5000
1.6129 -1.5654 0.5000
0.0930 -1.1064 0.5000
-1.0216 3.6492 0.5000
-0.5908 10.4536 0.5000
-0.5471 10.4956 0.5000
-2.5082 3.3440 0.5000
-3.7699 1.5305 0.5000
-0.3062 5.1859 0.5000
-0.2720 5.2172 0.5000
-0.7068 10.3781 0.5000
-0.6449 10.4600 0.5000
4.3485 7.8969 0.5000
-0.7320 10.4410 0.5000
-0.6907 10.4638 0.5000
-0.7550 10.4519 0.5000
5.5889 -3.6669 0.5000
-0.5974 6.0969 0.5000
0.0870 -0.9355 0.5000
0.7639 -0.7688 0.5000
-0.0050 -1.0503 0.5000
-1.5486 -0.1979 0.5000
-0.3917 6.1404 0.5000
4.4472 7.7844 0.5000
0.0483 -1.0586 0.5000
-2.2936 0.2004 0.5000
-5.0760 1.6738 0.5000
-2.8428 6.3253 0.5000
-0.7493 10.2255 0.5000
-0.6663 10.3935 0.5000
4.3159 7.8431 0.5000
4.4246 7.8092 0.5000
2.4200 -2.1544 0.5000
-0.7751 10.3281 0.5000
4.2823 7.8873 0.5000
4.3672 7.8541 0.5000
2.3416 -2.0808 0.5000
-0.8304 10.3997 0.5000
0.3283 9.8709 0.5000
3.3463 8.3443 0.5000
2.8388 -2.3065 0.5000
0.0002 -1.0330 0.5000
-0.4692 4.1687 0.5000
1.5549 -1.5461 0.5000
0.0416 -0.9481 0.5000
1.5118 -1.5522 0.5000
1.4877 -1.5944 0.5000
-1.0837 9.6316 0.5000
0.0411 10.0683 0.5000
0.0140 10.1274 0.5000
4.0215 7.9979 0.5000
4.9310 7.5337 0.5000
1.5536 -1.6103 0.5000
-2.7498 5.3380 0.5000
-0.0707 10.1938 0.5000
-0.0279 10.1880 0.5000
3.9851 8.0065 0.5000
-0.1321 10.1875 0.5000
-0.0252 10.1488 0.5000
-0.0276 -1.0232 0.5000
-2.9422 5.5418 0.5000
-0.1528 10.1833 0.5000
-0.1685 10.0087 0.5000
3.8441 8.0935 0.5000
1.5716 -1.5674 0.5000
-0.2170 4.7326 0.5000
1.4224 -1.5654 0.5000
0.0846 -1.0200 0.5000
-4.2171 1.7628 0.5000
1.6980 2.2730 0.5000
1.4367 -1.6069 0.5000
1.3931 -1.6137 0.5000
-0.6845 10.4433 0.5000
0.5339 9.8797 0.5000
0.5594 9.8039 0.5000
1.6150 2.3239 0.5000
1.6334 2.2968 0.5000
-2.8373 6.3688 0.5000
0.4555 9.8002 0.5000
0.5365 9.8381 0.5000
-5.3338 1.7222 0.5000
-3.3133 5.5431 0.5000
-0.7440 10.4725 0.5000
0.4640 9.8964 0.5000
0.5493 9.7759 0.5000
4.3109 7.7095 0.5000
-0.8298 10.4617 0.5000
-0.8281 10.4101 0.5000
0.3555 9.8836 0.5000
0.3792 9.8065 0.5000
1.5892 2.3376 0.5000
0.0379 -0.9671 0.5000
1.5030 -1.6026 0.5000
0.2447 10.0015 0.5000
0.2770 9.9448 0.5000
4.2263 7.9296 0.5000
1.5780 2.3618 0.5000
1.4876 -1.6087 0.5000
0.1751 10.0608 0.5000
0.2867 10.0194 0.5000
4.1078 7.9520 0.5000
4.1900 7.9075 0.5000
-3.4155 5.3080 0.5000
-2.7588 5.7328 0.5000
0.2139 9.9022 0.5000
11.7171 -3.8872 0.5000
-4.7136 3.4482 0.5000
-1.9529 8.3284 0.5000
0.0111 10.0040 0.5000
1.5325 2.3965 0.5000
0.7751 -0.7317 0.5000
-0.9923 7.9324 0.5000
-0.0376 5.7344 0.5000
0.4678 4.4468 0.5000
1.5531 1.9870 0.5000
1.8432 2.2025 0.5000
-0.1703 10.2650 0.5000
-0.1449 10.2441 0.5000
2.1012 3.4950 0.5000
4.8493 7.5917 0.5000
1.7174 2.2432 0.5000
-2.9596 5.5463 0.5000
-0.2243 10.2906 0.5000
4.8290 7.6297 0.5000
-0.2574 10.2009 0.5000
-0.2063 10.1612 0.5000
0.8778 9.6292 0.5000
4.6653 7.6101 0.5000
1.8436 3.0166 0.5000
-0.5071 10.2972 0.5000
0.6523 9.6911 0.5000
0.2581 4.3671 0.5000
1.6388 2.2475 0.5000
1.7498 -1.4988 0.5000
0.0665 -0.9516 0.5000
1.6989 -1.5019 0.5000
1.3038 -1.5937 0.5000
0.6759 9.7157 0.5000
4.3951 7.5148 0.5000
-0.5290 10.4090 0.5000
0.6279 9.7692 0.5000
4.3597 7.7324 0.5000
4.4408 7.6276 0.5000
-3.2965 5.5672 0.5000
-0.5724 10.3918 0.5000
0.5519 9.7596 0.5000
4.3485 7.6551 0.5000
4.3804 7.6474 0.5000
-3.0615 5.1339 0.5000
0.4699 9.7686 0.5000
4.2757 7.6993 0.5000
4.2618 7.6348 0.5000
-2.9792 0.8974 0.5000
-0.9866 10.3822 0.5000
0.2157 9.8482 0.5000
-3.9507 1.6289 0.5000
0.4194 9.9151 0.5000
1.8661 2.1844 0.5000
-2.9233 6.2148 0.5000
0.3914 9.9672 0.5000
1.3597 9.4592 0.5000
4.1770 7.8939 0.5000
-3.3925 5.4068 0.5000
-2.9675 6.2316 0.5000
-0.9323 10.1847 0.5000
-0.8292 10.3139 0.5000
0.3080 9.9591 0.5000
-3.0030 6.2190 0.5000
-0.9661 10.1564 0.5000
-0.9710 10.2173 0.5000
0.1807 9.9763 0.5000
0.1975 9.9346 0.5000
4.1488 7.9169 0.5000
3.9983 0.6750 0.5000
-4.0992 3.9424 0.5000
-1.2710 9.7187 0.5000
-0.5117 4.0723 0.5000
-0.1466 9.9725 0.5000
-0.4493 4.0361 0.5000
1.6593 -0.7211 0.5000
-0.1794 10.2472 0.5000
2.1309 3.4165 0.5000
1.7738 2.2376 0.5000
8.8701 -2.5911 0.5000
-3.0259 5.6526 0.5000
0.9496 9.6585 0.5000
4.7514 7.6412 0.5000
-3.1651 5.8753 0.5000
-0.2562 10.2545 0.5000
1.8241 2.9034 0.5000
1.7173 2.2793 0.5000
-2.1520 8.0631 0.5000
-0.3807 10.2253 0.5000
-0.3104 10.2431 0.5000
0.7707 9.5637 0.5000
0.7700 9.6228 0.5000
2.0790 3.4980 0.5000
-3.3038 4.5089 0.5000
-2.3735 7.5697 0.5000
-1.6885 8.9567 0.5000
0.2058 4.4400 0.5000
0.7956 -0.6803 0.5000
1.5871 2.0753 0.5000
1.6182 2.0842 0.5000
-0.3170 10.3279 0.5000
-0.2515 10.3358 0.5000
0.8067 9.6165 0.5000
2.8655 8.6662 0.5000
4.4891 7.4036 0.5000
1.6899 2.2389 0.5000
-3.1934 5.7586 0.5000
-0.3919 10.3734 0.5000
0.7837 9.7122 0.5000
0.8403 9.6634 0.5000
4.5411 7.5706 0.5000
-3.2201 5.7611 0.5000
-0.4395 10.3164 0.5000
-0.3683 10.2853 0.5000
0.7390 9.7254 0.5000
2.7833 8.7026 0.5000
2.0801 3.5144 0.5000
1.6026 -1.5254 0.5000
-0.6433 10.3515 0.5000
-0.6217 10.3155 0.5000
0.5793 9.7335 0.5000
1.6628 2.3027 0.5000
-3.6978 0.9579 0.5000
0.3528 9.9420 0.5000
1.9094 2.1781 0.5000
-2.8496 0.5125 0.5000
-4.5464 3.4592 0.5000
-2.7053 5.7076 0.5000
0.3284 10.0017 0.5000
4.2496 7.8713 0.5000
1.8099 2.1901 0.5000
-3.4386 5.3504 0.5000
0.2057 10.0996 0.5000
0.1651 10.0401 0.5000
4.0534 7.9793 0.5000
-2.9222 5.6498 0.5000
-1.2160 9.7780 0.5000
-0.0837 10.0705 0.5000
1.5467 2.4384 0.5000
1.7052 2.1802 0.5000
-1.4324 9.4207 0.5000
-0.3491 10.1991 0.5000
-2.9720 5.3486 0.5000
-0.4451 10.3902 0.5000
0.7168 9.6673 0.5000
4.4101 7.4548 0.5000
4.5721 7.5504 0.5000
-3.2121 5.7340 0.5000
-0.3776 10.3161 0.5000
0.7226 9.7814 0.5000
3.6415 8.1928 0.5000
4.4847 7.5888 0.5000
-3.2522 5.7258 0.5000
-0.4613 10.3115 0.5000
4.3632 7.4845 0.5000
0.5238 9.7022 0.5000
-1.0747 -0.4307 0.5000
-4.7483 1.5086 0.5000
-2.8413 6.2067 0.5000
-0.8206 10.2780 0.5000
-0.9053 10.2262 0.5000
-0.8876 10.3425 0.5000
-3.0284 6.1564 0.5000
-1.0241 10.1250 0.5000
-1.4548 9.3291 0.5000
1.6167 2.1824 0.5000
-0.2466 5.2720 0.5000
-5.3756 1.8247 0.5000
4.4080 7.6558 0.5000
4.3913 7.8118 0.5000
4.3523 7.6565 0.5000
-3.3224 5.5599 0.5000
-0.2257 10.2382 0.5000
4.7441 7.6474 0.5000
-1.5014 9.2110 0.5000
-1.2871 7.7224 0.5000
-0.4562 10.2808 0.5000
-0.2389 5.2383 0.5000
-5.3093 1.7827 0.5000
0.5653 9.8773 0.5000
4.4218 7.7226 0.5000
11.4960 -4.2852 0.5000
0.4689 9.9049 0.5000
3.1946 -0.9287 0.5000
0.0862 10.0507 0.5000
0.0690 10.0156 0.5000
1.5650 2.4095 0.5000
-0.5602 3.9802 0.5000
-0.2071 10.1182 0.5000
-1.0715 7.7676 0.5000
-0.1351 4.7105 0.5000
4.4264 7.4439 0.5000
4.5785 7.5474 0.5000
-3.1993 5.7431 0.5000
4.4477 7.5484 0.5000
-5.3867 1.7137 0.5000
-1.1080 9.9974 0.5000
-2.4370 6.7544 0.5000
-0.0308 10.2006 0.5000
9.2901 -1.7082 0.5000
-3.2757 4.9137 0.5000
4.0137 8.0384 0.5000
-2.9062 5.5864 0.5000
-0.1464 10.1322 0.5000
1.5349 -1.5497 0.5000
-0.2462 4.6930 0.5000
0.7707 9.6834 0.5000
2.2628 -2.0585 0.5000
0.6445 9.7388 0.5000
0.7566 9.7641 0.5000
0.8472 9.7336 0.5000
4.5213 7.6213 0.5000
-3.0335 5.4081 0.5000
-0.5172 10.3184 0.5000
0.6031 9.5944 0.5000
4.3232 7.5208 0.5000
0.0963 -0.8983 0.5000
0.7436 -0.7536 0.5000
4.3245 7.9242 0.5000
-0.8816 10.2962 0.5000
4.1962 7.9657 0.5000
-1.9029 8.4382 0.5000
-1.0685 10.0637 0.5000
-0.4191 4.0786 0.5000
4.5401 7.4450 0.5000
-2.9833 5.4741 0.5000
-0.3217 10.2506 0.5000
0.2827 4.5677 0.5000
-0.4338 6.1027 0.5000
-2.7082 5.8132 0.5000
-3.3488 4.1325 0.5000
-2.8716 6.0643 0.5000
-1.7508 8.4149 0.5000
4.2521 7.9121 0.5000
4.5761 7.3677 0.5000
4.4581 7.4633 0.5000
-2.9541 5.2565 0.5000
-0.4266 10.2901 0.5000
11.4205 -3.0514 0.5000
-0.6948 10.3414 0.5000
-0.3769 5.2399 0.5000
-4.6551 1.2654 0.5000
-3.9014 1.6099 0.5000
-4.9662 1.6427 0.5000
-2.8981 6.2785 0.5000
-0.7925 10.2541 0.5000
-3.3542 5.4694 0.5000
4.3685 7.9142 0.5000
-0.9057 10.2556 0.5000
4.5051 7.3929 0.5000
0.8060 -0.7380 0.5000
4.4608 7.6092 0.5000
-0.5652 10.4056 0.5000
3.3943 -0.6169 0.5000
-3.2680 5.5314 0.5000
-0.6137 10.4308 0.5000
12.8025 -1.6158 0.5000
0.3286 9.7807 0.5000
-0.5149 6.1477 0.5000
0.2292 10.1029 0.5000
4.0901 7.9463 0.5000
0.1435 10.0988 0.5000
2.3010 8.9532 0.5000
4.0757 8.0044 0.5000
4.3191 1.9506 0.5000
11.6894 -3.8644 0.5000
-1.0449 -0.4441 0.5000
-0.0863 5.7017 0.5000
-0.0601 10.2026 0.5000
3.9200 8.0404 0.5000
9.3215 -1.7155 0.5000
4.5662 7.4413 0.5000
9.2922 4.5890 0.5000
-2.2729 7.7635 0.5000
9.3785 4.4497 0.5000
-0.4976 10.4476 0.5000
-3.2443 5.5890 0.5000
-0.5182 10.3662 0.5000
0.6038 9.8264 0.5000
4.3115 7.6033 0.5000
-0.9079 10.4253 0.5000
-0.4214 4.4014 0.5000
-4.5464 1.7307 0.5000
0.7422 -0.7365 0.5000
11.6578 3.3121 0.5000
0.1135 -1.0236 0.5000
9.1551 4.6972 0.5000
6.3579 -0.0848 0.5000
-2.5240 3.2798 0.5000
11.2827 -3.5318 0.5000
-3.8024 4.2461 0.5000
-2.1178 8.0557 0.5000
-0.2580 10.1966 0.5000
6.7122 -0.2490 0.5000
-0.2642 4.7017 0.5000
1.7078 -0.6043 0.5000
-0.3056 10.3897 0.5000
0.8031 9.8024 0.5000
0.6820 9.8047 0.5000
0.7566 9.8061 0.5000
-3.0109 5.2873 0.5000
0.5412 9.6797 0.5000
-0.9532 4.2551 0.5000
-0.3956 4.1424 0.5000
-1.7874 8.0900 0.5000
0.0670 10.1145 0.5000
0.1061 10.1080 0.5000
0.0291 10.1508 0.5000
9.6025 4.3661 0.5000
11.7520 -3.7573 0.5000
2.1513 3.4564 0.5000
2.0146 9.1118 0.5000
-1.5559 9.1640 0.5000
-3.0482 0.6003 0.5000
11.8306 3.0314 0.5000
4.2140 7.9589 0.5000
-0.3058 4.4013 0.5000
0.2561 5.4431 0.5000
11.6512 -4.0913 0.5000
-0.0839 4.7800 0.5000
4.6898 7.5044 0.5000
-2.9074 5.3037 0.5000
5.6042 -3.4710 0.5000
3.9299 -3.0687 0.5000
4.5642 7.6116 0.5000
-1.3031 7.7722 0.5000
-0.9000 7.7562 0.5000
-0.0094 4.8835 0.5000
9.2676 -1.7818 0.5000
1.0044 9.6438 0.5000
-1.4773 9.2943 0.5000
-0.4165 10.2357 0.5000
0.7166 9.5317 0.5000
-3.4728 1.3652 0.5000
-3.1473 1.0538 0.5000
-0.4455 6.2138 0.5000
-2.8821 6.2060 0.5000
2.3958 -2.1583 0.5000
0.2669 9.9636 0.5000
0.0277 9.8914 0.5000
1.5525 2.4612 0.5000
-1.1881 9.4315 0.5000
4.7998 7.4855 0.5000
4.6378 7.4975 0.5000
-2.9098 5.4081 0.5000
-1.1418 3.2002 0.5000
-0.1485 10.2572 0.5000
12.0437 -1.8483 0.5000
-1.6548 9.0053 0.5000
-1.0241 3.8022 0.5000
-0.1754 4.7295 0.5000
0.6617 9.7600 0.5000
-0.4572 10.3511 0.5000
11.3790 -4.4395 0.5000
-1.6702 8.9475 0.5000
3.4169 2.3505 0.5000
-0.3181 5.1484 0.5000
-0.7353 10.3498 0.5000
-0.7581 10.3872 0.5000
-0.3103 -0.6727 0.5000
9.1977 4.5242 0.5000
12.1313 2.7071 0.5000
12.8105 -1.7643 0.5000
1.5338 9.3508 0.5000
-0.7679 10.4275 0.5000
-0.6234 6.1398 0.5000
-0.4918 10.2474 0.5000
-0.2776 4.6959 0.5000
-0.4722 10.4739 0.5000
0.8499 -1.5040 0.5000
0.8895 -1.5019 0.5000
-2.6326 3.0616 0.5000
-2.6304 3.0435 0.5000
2.0084 2.0930 0.5000
0.8459 -1.3478 0.5000
-1.4949 8.8297 0.5000
2.2058 1.9885 0.5000
2.2904 1.9484 0.5000
0.4029 9.8772 0.5000
0.5167 9.9075 0.5000
2.1556 2.0297 0.5000
7.4780 5.3682 0.5000
0.3085 9.9400 0.5000
2.1058 2.0461 0.5000
7.4223 5.4105 0.5000
8.5832 4.8898 0.5000
0.2236 9.9627 0.5000
2.1466 2.0624 0.5000
7.5689 5.3620 0.5000
11.8459 3.1737 0.5000
0.8299 -1.4914 0.5000
0.9712 -1.5269 0.5000
0.9411 -1.3508 0.5000
2.0886 2.0772 0.5000
1.3247 -1.7113 0.5000
1.2860 -1.7237 0.5000
1.0616 9.6029 0.5000
1.2868 -1.6870 0.5000
-0.1472 10.0838 0.5000
2.0321 2.1209 0.5000
0.9494 -1.5317 0.5000
0.9418 -1.4930 0.5000
1.9846 2.1030 0.5000
2.3919 1.8991 0.5000
1.4871 -1.8118 0.5000
0.9815 -1.5576 0.5000
-2.0973 7.5500 0.5000
1.9464 2.1464 0.5000
1.0363 -1.5677 0.5000
1.4659 -1.7817 0.5000
1.5521 -1.8237 0.5000
0.1699 4.4056 0.5000
1.3673 -1.5646 0.5000
9.4870 4.3480 0.5000
13.1730 -1.0337 0.5000
0.5864 9.6752 0.5000
0.6325 9.6198 0.5000
2.2207 2.0218 0.5000
-0.4121 5.1912 0.5000
0.1477 4.4202 0.5000
0.7391 7.1763 0.5000
1.3965 -1.7869 0.5000
9.2037 4.5808 0.5000
12.1413 2.8698 0.5000
0.8615 9.6624 0.5000
1.4225 -1.7699 0.5000
1.3648 -1.7289 0.5000
0.7303 9.5597 0.5000
0.7445 9.4723 0.5000
2.0937 2.0383 0.5000
6.2166 4.6341 0.5000
6.7316 1.1197 0.5000
2.6824 -2.0610 0.5000
-2.0938 7.7309 0.5000
4.7007 7.5176 0.5000
9.6357 4.3141 0.5000
11.7162 3.1255 0.5000
2.6958 -2.0298 0.5000
2.0088 -1.9184 0.5000
1.9948 -1.9483 0.5000
11.7592 3.2120 0.5000
4.7064 -3.4736 0.5000
5.1486 2.8504 0.5000
11.7042 3.2774 0.5000
2.0667 -1.9131 0.5000
2.0178 -1.8877 0.5000
1.0020 -1.5354 0.5000
-1.6290 9.0620 0.5000
1.8619 2.2042 0.5000
2.1654 2.0518 0.5000
9.2913 4.6245 0.5000
5.5903 1.3218 0.5000
6.3468 0.7109 0.5000
6.3514 -0.0448 0.5000
2.2024 -1.9959 0.5000
1.0861 -1.5479 0.5000
0.8826 -1.4037 0.5000
-0.2959 -0.6965 0.5000
2.6395 -2.3104 0.5000
2.4880 -2.1882 0.5000
2.6747 -2.3044 0.5000
2.4019 -2.1388 0.5000
2.6960 -2.2745 0.5000
2.5018 -2.1421 0.5000
0.0465 -0.8991 0.5000
-2.9563 1.1220 0.5000
8.5692 4.8182 0.5000
2.0737 -1.9963 0.5000
11.8952 3.0141 0.5000
2.8954 -1.6230 0.5000
2.1022 -2.0047 0.5000
1.0922 -1.5956 0.5000
2.1312 -1.9643 0.5000
6.1456 4.7025 0.5000
2.1600 -1.9735 0.5000
1.5708 2.1028 0.5000
0.8834 -1.3734 0.5000
1.1614 -1.6541 0.5000
4.4617 7.7878 0.5000
1.6952 2.5838 0.5000
1.7554 2.1585 0.5000
2.7031 -2.3089 0.5000
1.2375 -1.7044 0.5000
2.9785 -1.4515 0.5000
2.9405 -1.5467 0.5000
2.7580 -2.3390 0.5000
1.2113 -1.6536 0.5000
2.7078 -2.2598 0.5000
1.6774 2.6624 0.5000
2.9414 -2.3640 0.5000
-2.6170 3.1779 0.5000
1.0859 -1.4261 0.5000
0.9338 -1.5574 0.5000
1.6520 -1.9109 0.5000
1.0770 -1.6027 0.5000
1.6702 2.5469 0.5000
1.1447 -1.6603 0.5000
1.6210 2.4721 0.5000
2.9187 -1.5998 0.5000
1.1302 -1.6216 0.5000
2.9549 -1.5004 0.5000
1.7856 -1.9437 0.5000
1.7082 -1.9183 0.5000
1.1833 -1.6283 0.5000
1.8116 -1.9489 0.5000
1.2148 -1.6359 0.5000
1.6633 2.1199 0.5000
1.5800 -1.8538 0.5000
-2.4482 3.3426 0.5000
1.6031 -1.9146 0.5000
2.9097 -1.6231 0.5000
5.5931 -3.9811 0.5000
1.6166 -1.8697 0.5000
4.4516 7.5119 0.5000
1.6692 -1.8980 0.5000
-3.9449 4.1166 0.5000
-2.4587 3.2460 0.5000
1.9545 2.1522 0.5000
1.4462 -1.5474 0.5000
0.9617 -1.3549 0.5000
1.7770 -1.9614 0.5000
11.9028 -6.2481 0.5000
1.8012 -1.9863 0.5000
1.6532 2.6164 0.5000
1.8654 -1.9922 0.5000
4.2478 7.7387 0.5000
1.6326 2.6027 0.5000
1.2942 -0.9075 0.5000
7.5984 5.3005 0.5000
1.4424 -1.8101 0.5000
0.7283 7.2016 0.5000
1.5956 2.1614 0.5000
7.4872 5.4617 0.5000
4.2481 1.7712 0.5000
2.9421 -1.3127 0.5000
9.6557 4.2294 0.5000
-0.5802 -0.7000 0.5000
0.9433 -1.4042 0.5000
2.1980 1.9982 0.5000
1.3428 -1.7581 0.5000
1.8274 -2.0148 0.5000
1.9282 3.0364 0.5000
1.6264 2.0174 0.5000
1.9170 -2.0631 0.5000
1.9424 -2.0380 0.5000
4.2964 7.5210 0.5000
-2.5995 5.6479 0.5000
1.5910 2.0318 0.5000
1.5126 2.0059 0.5000
0.9119 -1.3203 0.5000
5.0188 7.5010 0.5000
1.5243 -1.8704 0.5000
1.0013 -1.4965 0.5000
1.5614 2.5126 0.5000
1.0036 -1.3945 0.5000
0.5389 -0.8715 0.5000
1.7581 2.1244 0.5000
1.3277 -1.6077 0.5000
0.8534 -1.3422 0.5000
0.5955 9.6492 0.5000
-3.8361 1.5581 0.5000
1.7025 -1.9526 0.5000
1.8506 -2.0048 0.5000
-1.4491 -0.2457 0.5000
9.2023 4.6667 0.5000
-0.9464 -0.4929 0.5000
-5.7870 2.5004 0.5000
2.3209 3.6400 0.5000
6.1557 4.6774 0.5000
11.8190 -2.9919 0.5000
11.7950 -2.9387 0.5000
0.4001 9.7901 0.5000
2.4914 8.7497 0.5000
4.2721 7.5660 0.5000
1.9401 -1.9980 0.5000
-1.8445 2.9371 0.5000
3.1513 -1.1583 0.5000
1.8827 2.1455 0.5000
7.7194 5.2641 0.5000
9.3035 4.4698 0.5000
1.9693 -2.0242 0.5000
3.5011 2.2634 0.5000
1.5487 2.0669 0.5000
1.9615 -1.9679 0.5000
1.3796 -1.8001 0.5000
0.2646 4.6097 0.5000
9.4883 4.4035 0.5000
2.0553 2.1044 0.5000
-0.4224 -0.6458 0.5000
2.3436 -2.1293 0.5000
0.2062 5.4614 0.5000
6.2738 4.6509 0.5000
11.3862 -3.1550 0.5000
1.3828 9.2687 0.5000
7.3807 5.4833 0.5000
11.4367 -3.0299 0.5000
11.3708 -3.1048 0.5000
11.6462 -6.3920 0.5000
2.3617 -2.1128 0.5000
2.4142 -2.0957 0.5000
2.3533 -2.0596 0.5000
0.9578 -1.4126 0.5000
0.0613 9.9500 0.5000
12.3055 -2.5713 0.5000
12.4107 -2.3797 0.5000
7.3445 5.5619 0.5000
11.8777 -2.1331 0.5000
1.5099 -1.7867 0.5000
1.7587 2.6883 0.5000
2.0016 -1.9632 0.5000
4.8809 7.5761 0.5000
2.1985 -2.0057 0.5000
2.2735 -2.0406 0.5000
1.1101 -1.5922 0.5000
9.9346 -1.4114 0.5000
1.8966 -2.0580 0.5000
11.7970 -2.8193 0.5000
2.8067 -2.3683 0.5000
-0.9193 7.9664 0.5000
-0.0077 9.9303 0.5000
12.2010 -2.8098 0.5000
12.1272 -2.9195 0.5000
2.8586 -2.3903 0.5000
2.7784 -2.2877 0.5000
-0.0708 9.8805 0.5000
3.3536 8.4685 0.5000
12.2417 -2.6903 0.5000
-0.7215 6.2042 0.5000
11.7905 -2.2856 0.5000
1.4045 -1.7500 0.5000
-5.8490 2.5541 0.5000
6.8277 -0.5800 0.5000
-0.2869 5.1764 0.5000
3.0800 8.5529 0.5000
1.5461 -1.8139 0.5000
1.6299 -1.6105 0.5000
2.2306 -2.0697 0.5000
-0.4416 10.4066 0.5000
1.6376 2.5056 0.5000
-0.5664 6.1470 0.5000
2.2049 -2.0061 0.5000
-1.0654 3.3052 0.5000
0.6960 4.4264 0.5000
2.9954 -2.4536 0.5000
2.9038 -2.4022 0.5000
3.0696 -2.5137 0.5000
0.4305 4.5063 0.5000
3.0912 -2.4587 0.5000
3.0753 -2.4067 0.5000
2.9504 -2.3657 0.5000
-1.1943 3.1403 0.5000
-0.2332 10.3361 0.5000
12.2982 -2.1141 0.5000
-0.3737 5.1173 0.5000
0.6251 4.4063 0.5000
12.6067 -2.0082 0.5000
12.5880 -2.1049 0.5000
1.0470 6.9981 0.5000
12.1865 -2.0206 0.5000
12.1138 -1.8133 0.5000
2.3028 -2.0355 0.5000
1.7146 -1.8989 0.5000
1.5046 1.9852 0.5000
9.8702 -1.4211 0.5000
11.4150 -4.5151 0.5000
1.8000 -2.0048 0.5000
-0.5987 6.1730 0.5000
2.8884 -2.3148 0.5000
2.8545 -2.2947 0.5000
1.3014 -1.6819 0.5000
6.8621 -0.5754 0.5000
1.4870 -1.8598 0.5000
12.1730 -2.3058 0.5000
12.4184 -2.4594 0.5000
1.5963 2.2955 0.5000
12.5272 -2.3390 0.5000
12.5006 -2.4382 0.5000
-0.1988 5.6062 0.5000
0.3958 4.5229 0.5000
2.1984 -2.0629 0.5000
1.5950 -1.9028 0.5000
1.0427 -1.6072 0.5000
-1.4091 8.7268 0.5000
1.9137 2.9690 0.5000
11.3313 -4.5644 0.5000
2.5736 -2.2862 0.5000
0.0946 5.9550 0.5000
4.8938 7.5451 0.5000
-0.7684 8.0449 0.5000
0.1085 9.9465 0.5000
-0.5065 4.9411 0.5000
3.4963 8.2494 0.5000
4.3164 7.5769 0.5000
2.6442 -2.2221 0.5000
-0.6397 8.1271 0.5000
2.9667 -2.4024 0.5000
3.0452 -2.4676 0.5000
-0.8101 8.1879 0.5000
3.0191 -2.3707 0.5000
1.6543 -0.8939 0.5000
6.7579 -0.5607 0.5000
2.6485 -2.0895 0.5000
-1.0410 3.6978 0.5000
12.1368 -2.2604 0.5000
12.1245 -2.3330 0.5000
12.5243 -2.2277 0.5000
-1.4952 8.7891 0.5000
-0.2319 5.6182 0.5000
-3.4756 1.2647 0.5000
2.7906 -2.3577 0.5000
0.4710 4.5095 0.5000
1.9960 2.0965 0.5000
-0.0740 5.8039 0.5000
-0.4653 4.2219 0.5000
0.0417 5.1947 0.5000
0.1009 5.1433 0.5000
3.8445 -3.1058 0.5000
2.2364 9.0056 0.5000
3.2099 8.5183 0.5000
13.1578 -1.1706 0.5000
2.6517 -2.1022 0.5000
-0.0074 10.0331 0.5000
-5.8561 2.3701 0.5000
-4.9606 3.5105 0.5000
-1.4549 8.4445 0.5000
12.5586 -2.2043 0.5000
12.5207 -2.2750 0.5000
12.5702 -2.1608 0.5000
2.9068 -2.3410 0.5000
0.0906 5.9189 0.5000
1.6027 2.3942 0.5000
13.1937 -1.2045 0.5000
2.6355 -2.1005 0.5000
-0.2240 5.3235 0.5000
4.3841 7.7567 0.5000
6.9426 -0.4829 0.5000
12.4913 -2.3829 0.5000
-0.0932 10.1274 0.5000
13.2129 -0.9479 0.5000
13.1865 -0.9728 0.5000
2.1190 -3.1102 0.5000
0.4359 6.5545 0.5000
11.3573 -4.4773 0.5000
-2.3958 7.1062 0.5000
0.0078 5.8774 0.5000
2.4537 -2.1133 0.5000
-0.6778 6.1942 0.5000
0.4319 9.8197 0.5000
-0.5591 6.2289 0.5000
0.6149 4.4520 0.5000
3.0188 -2.4370 0.5000
-0.6950 4.6220 0.5000
0.0226 9.9567 0.5000
1.3607 -1.5435 0.5000
1.6110 2.4420 0.5000
6.6608 -0.5578 0.5000
-1.1941 9.3460 0.5000
4.9466 7.5727 0.5000
6.6391 -0.4045 0.5000
-1.4942 8.5842 0.5000
1.5482 2.3498 0.5000
-0.6720 8.1882 0.5000
2.8676 -2.4080 0.5000
-0.8557 8.1168 0.5000
3.0509 -2.3959 0.5000
1.6553 2.4908 0.5000
7.5179 5.3844 0.5000
12.4776 -2.4783 0.5000
13.2095 -1.0099 0.5000
-5.2837 3.7924 0.5000
-0.1952 4.7783 0.5000
0.3541 4.5950 0.5000
1.3563 -1.6964 0.5000
0.4413 6.6043 0.5000
11.3565 -4.5426 0.5000
2.4950 -2.2052 0.5000
-2.3840 7.0782 0.5000
0.5611 9.9360 0.5000
0.0921 9.9927 0.5000
1.8167 2.8354 0.5000
6.2352 4.5998 0.5000
-2.1039 7.3879 0.5000
0.3659 6.5205 0.5000
-0.3472 5.2907 0.5000
2.1061 -1.9479 0.5000
-0.0562 9.9612 0.5000
-0.9021 10.3215 0.5000
0.2726 9.8588 0.5000
2.8379 -2.2862 0.5000
-0.2482 -0.7221 0.5000
12.2092 -2.2123 0.5000
12.1307 -2.2422 0.5000
12.1754 -2.1134 0.5000
0.7851 9.5444 0.5000
12.6794 -2.0032 0.5000
-0.8465 8.0473 0.5000
2.5642 -2.2302 0.5000
0.3780 9.7954 0.5000
2.7002 -2.2487 0.5000
-2.3993 0.2525 0.5000
-0.7681 8.1858 0.5000
13.1752 -1.3102 0.5000
3.8534 -3.1126 0.5000
-1.0967 7.9728 0.5000
-3.0112 1.1698 0.5000
0.8197 4.4547 0.5000
2.5956 -2.3062 0.5000
0.0294 9.9241 0.5000
0.9918 6.9826 0.5000
-0.1494 4.6942 0.5000
3.1295 -2.5050 0.5000
4.1338 8.0027 0.5000
3.1236 -2.4340 0.5000
-0.5361 3.9861 0.5000
-0.0865 4.9633 0.5000
1.6099 2.5815 0.5000
-0.2470 -0.7728 0.5000
-0.1989 5.3420 0.5000
1.8585 2.8701 0.5000
1.6833 2.0817 0.5000
12.7025 -2.0269 0.5000
-0.4491 4.9438 0.5000
0.1148 5.9890 0.5000
1.7317 9.2711 0.5000
1.8262 2.8502 0.5000
-0.7432 8.1302 0.5000
12.6922 -1.7357 0.5000
11.8765 -6.2313 0.5000
-0.4427 6.1852 0.5000
-0.0526 5.7520 0.5000
3.0005 -1.4550 0.5000
2.5461 -2.2537 0.5000
9.8844 -1.4939 0.5000
2.7647 -2.2449 0.5000
13.1392 -1.2629 0.5000
1.9631 -1.5577 0.5000
-5.0471 3.7666 0.5000
-0.9528 8.1570 0.5000
0.0109 10.2003 0.5000
4.9895 7.4920 0.5000
-5.3252 3.9231 0.5000
-1.3863 8.6012 0.5000
6.3037 0.3468 0.5000
6.9035 -0.5035 0.5000
4.7783 7.5952 0.5000
-0.1051 5.6217 0.5000
2.1363 3.3940 0.5000
12.0886 -2.1860 0.5000
12.5803 -2.0784 0.5000
12.5733 -2.0054 0.5000
12.5164 -2.1485 0.5000
-1.5846 8.4256 0.5000
7.3676 5.5285 0.5000
12.1176 -1.9649 0.5000
-0.8046 4.5024 0.5000
0.9573 -1.4996 0.5000
-0.6703 8.1040 0.5000
12.2558 -2.7042 0.5000
-1.0765 8.1329 0.5000
12.2247 -2.7784 0.5000
-1.0516 7.9230 0.5000
-0.9678 8.1031 0.5000
12.0163 -2.1347 0.5000
12.2288 -2.0819 0.5000
12.1199 -2.0240 0.5000
2.5677 -2.1802 0.5000
-0.7096 8.1696 0.5000
12.2718 -2.6804 0.5000
12.1954 -2.7614 0.5000
-0.8637 10.3667 0.5000
0.4975 9.7355 0.5000
1.7021 2.5799 0.5000
-5.9053 3.3028 0.5000
7.6146 5.3063 0.5000
-0.5110 6.3465 0.5000
9.3833 -2.3839 0.5000
2.1060 3.5118 0.5000
12.2750 -2.7767 0.5000
12.1755 -2.8579 0.5000
11.9615 -5.8793 0.5000
0.0808 9.8876 0.5000
1.7597 2.2596 0.5000
-0.1692 4.6922 0.5000
4.9587 7.5137 0.5000
0.7086 9.6438 0.5000
-0.0462 10.0666 0.5000
12.2400 -2.7006 0.5000
11.8930 -5.9340 0.5000
2.1597 3.4277 0.5000
0.2494 5.4478 0.5000
4.6185 7.5471 0.5000
11.3279 -3.2538 0.5000
-0.7269 8.2038 0.5000
11.6609 -3.0547 0.5000
11.3878 -3.0840 0.5000
-0.5931 6.3420 0.5000
-3.4367 1.1389 0.5000
-0.7327 8.0976 0.5000
0.1974 9.8804 0.5000
0.5970 4.4751 0.5000
11.7431 -3.1027 0.5000
11.7831 -2.9815 0.5000
0.8030 -0.6866 0.5000
0.1172 5.9406 0.5000
7.6160 5.2979 0.5000
7.6855 5.2664 0.5000
12.4281 -2.2923 0.5000
0.6762 9.6463 0.5000
12.3542 -2.2528 0.5000
11.2343 -4.8229 0.5000
3.3021 -0.9017 0.5000
12.4480 -1.9818 0.5000
11.3448 -3.1977 0.5000
-4.5509 1.9572 0.5000
2.0054 3.1343 0.5000
9.2461 -1.7546 0.5000
9.6329 -1.8247 0.5000
4.6613 7.4388 0.5000
12.1562 -2.1713 0.5000
11.3019 -3.3108 0.5000
-4.1987 3.7432 0.5000
7.4682 5.4452 0.5000
12.1085 -2.1350 0.5000
1.1187 -1.4500 0.5000
0.6333 9.6843 0.5000
7.6713 5.3026 0.5000
12.4820 -2.2826 0.5000
0.2520 4.4587 0.5000
4.8773 7.6167 0.5000
1.0537 -1.3982 0.5000
12.2973 -2.0528 0.5000
11.3483 -3.2272 0.5000
12.6068 -1.8459 0.5000
12.1834 -2.9140 0.5000
12.2031 -2.8951 0.5000
-0.0242 5.9160 0.5000
-4.3497 1.3014 0.5000
6.1834 4.6477 0.5000
12.0208 -2.2288 0.5000
-0.3478 5.3124 0.5000
4.7143 7.6630 0.5000
-4.4453 1.3541 0.5000
12.3132 -2.2219 0.5000
6.1001 4.7684 0.5000
5.0167 7.4859 0.5000
0.3306 4.4760 0.5000
12.0587 -2.4654 0.5000
12.3383 -2.3335 0.5000
6.1661 4.7148 0.5000
1.8010 2.7997 0.5000
9.1788 -1.8797 0.5000
11.9781 -2.2990 0.5000
12.4751 -2.1760 0.5000
12.1456 -2.0692 0.5000
1.6050 -1.8418 0.5000
1.5604 -1.7959 0.5000
11.8740 -2.8382 0.5000
-0.0812 9.9414 0.5000
11.9838 -2.6132 0.5000
3.4640 -0.2396 0.5000
2.1076 9.0701 0.5000
-0.1815 4.8224 0.5000
2.6141 -2.2778 0.5000
11.9367 -2.9829 0.5000
0.1169 9.9543 0.5000
12.0847 -2.9386 0.5000
4.2759 7.7139 0.5000
-5.4957 2.4286 0.5000
11.8506 -2.4157 0.5000
0.2963 4.4252 0.5000
12.2840 -2.3260 0.5000
12.4618 -2.3184 0.5000
12.3539 -2.4133 0.5000
11.9470 -2.4944 0.5000
3.8738 -3.0987 0.5000
-0.2127 4.7585 0.5000
-5.3001 3.6844 0.5000
12.3977 -2.0160 0.5000
12.2033 -1.9294 0.5000
-0.4300 5.0834 0.5000
4.3459 7.4790 0.5000
12.6043 -1.7457 0.5000
9.0747 -2.3034 0.5000
0.8164 -0.7529 0.5000
0.2067 4.5108 0.5000
4.6925 7.4651 0.5000
0.1966 4.5010 0.5000
0.1741 4.4764 0.5000
0.2461 4.4928 0.5000
2.1251 3.7439 0.5000
0.2977 4.5381 0.5000
-0.4551 4.9389 0.5000
9.5141 4.4108 0.5000
11.9583 -2.9421 0.5000
-5.6843 2.5039 0.5000
-0.0256 5.8206 0.5000
1.7178 2.6623 0.5000
4.0106 8.1063 0.5000
-0.5014 6.2094 0.5000
11.5571 -3.1001 0.5000
0.3114 9.8462 0.5000
6.2439 4.6623 0.5000
12.2521 -1.9227 0.5000
-0.4546 5.1228 0.5000
0.1370 4.5577 0.5000
-3.1563 1.0789 0.5000
-6.1538 2.8201 0.5000
12.0522 -2.6592 0.5000
12.3431 -2.5487 0.5000
3.1232 -2.4519 0.5000
-0.0117 9.9851 0.5000
7.4015 5.4784 0.5000
3.9522 -3.0529 0.5000
-5.5583 2.2728 0.5000
6.1415 4.6993 0.5000
12.7688 -1.5455 0.5000
2.6039 -2.1881 0.5000
0.4011 -0.9980 0.5000
0.2519 -0.9470 0.5000
9.3859 -2.3272 0.5000
3.8000 8.0959 0.5000
11.9638 -2.7941 0.5000
-0.1435 9.9171 0.5000
12.0301 -2.6322 0.5000
-0.9028 8.0016 0.5000
0.8117 7.0902 0.5000
9.4648 -1.7458 0.5000
0.2131 4.5985 0.5000
12.4975 -2.0801 0.5000
11.2872 -3.3285 0.5000
12.1652 -2.0678 0.5000
12.3291 -1.9075 0.5000
0.2232 4.6146 0.5000
0.0078 5.0056 0.5000
12.8524 -1.6023 0.5000
11.7815 -2.7936 0.5000
2.0257 3.2909 0.5000
-0.7959 7.9564 0.5000
7.5910 5.2933 0.5000
12.2759 -2.5497 0.5000
12.3681 -2.5082 0.5000
-3.2416 1.0021 0.5000
1.6204 2.1246 0.5000
6.0926 4.7575 0.5000
-3.2625 1.2443 0.5000
8.9551 -2.3981 0.5000
12.2010 -2.9097 0.5000
11.7002 -2.9497 0.5000
11.9375 -2.8107 0.5000
0.0792 4.5418 0.5000
5.6504 -3.5937 0.5000
9.2644 -2.1225 0.5000
0.3731 4.3221 0.5000
11.8973 -2.5659 0.5000
12.0856 -2.4052 0.5000
1.6870 2.7259 0.5000
12.2520 -2.8159 0.5000
12.9213 -1.4903 0.5000
-0.5645 4.8900 0.5000
0.0075 5.1439 0.5000
2.9693 8.6624 0.5000
7.5397 5.3108 0.5000
4.7717 7.6680 0.5000
-0.4552 6.1987 0.5000
6.2595 4.6268 0.5000
12.2744 -2.0427 0.5000
12.2365 -1.9667 0.5000
12.2244 -1.7635 0.5000
11.3543 -4.5553 0.5000
0.8081 7.1676 0.5000
6.3023 4.5982 0.5000
8.6308 4.8230 0.5000
12.4181 -2.3342 0.5000
1.6577 2.0455 0.5000
2.0972 -2.0018 0.5000
12.3364 -2.0472 0.5000
-0.4288 5.1121 0.5000
12.6196 -1.7629 0.5000
3.0319 -2.5262 0.5000
0.1213 10.0022 0.5000
12.3740 -2.4518 0.5000
12.0762 -2.5794 0.5000
0.3409 4.5258 0.5000
12.3401 -2.4518 0.5000
-0.1224 10.0116 0.5000
1.6957 2.1728 0.5000
12.1121 -2.1605 0.5000
12.4935 -2.1267 0.5000
0.2549 5.4631 0.5000
0.0069 5.8175 0.5000
12.1401 -2.8526 0.5000
0.8741 -1.2933 0.5000
-0.3219 5.2429 0.5000
3.8519 8.1523 0.5000
7.5268 5.4339 0.5000
12.0666 -2.1381 0.5000
1.7281 2.1260 0.5000
1.7977 2.8139 0.5000
11.7714 -3.0072 0.5000
11.5558 -3.0736 0.5000
12.1473 -2.7856 0.5000
-0.6586 6.2610 0.5000
-5.5473 2.4334 0.5000
12.3989 -2.3037 0.5000
4.3921 7.5992 0.5000
12.4066 -2.4075 0.5000
11.9105 -2.4421 0.5000
12.5160 -2.0078 0.5000
12.2954 -2.1564 0.5000
9.4593 4.3563 0.5000
0.7947 7.1253 0.5000
11.7352 -2.8076 0.5000
0.0080 5.7947 0.5000
0.5341 4.4788 0.5000
1.7300 2.6406 0.5000
-0.4879 4.1325 0.5000
-0.8063 7.8445 0.5000
0.0773 5.8958 0.5000
-0.9481 7.7860 0.5000
12.0569 -2.8130 0.5000
2.0343 3.1864 0.5000
9.2433 -1.7367 0.5000
4.6269 7.4075 0.5000
12.2018 -2.1723 0.5000
-0.4734 6.2185 0.5000
12.1550 -1.7769 0.5000
2.9621 -2.3433 0.5000
-3.4181 1.3322 0.5000
4.4529 7.7138 0.5000
0.1182 9.8823 0.5000
12.0654 -3.0012 0.5000
11.6917 -3.0303 0.5000
11.8143 -2.8885 0.5000
9.3381 -2.1531 0.5000
11.8359 -2.5680 0.5000
12.0272 -2.4432 0.5000
-0.0826 5.8542 0.5000
-0.4273 5.0151 0.5000
11.6214 -3.0856 0.5000
11.9828 -3.0364 0.5000
12.1386 -3.0276 0.5000
-2.9876 1.1740 0.5000
11.7507 -2.8763 0.5000
-3.2109 0.9947 0.5000
12.0986 -2.0861 0.5000
-0.3923 5.1538 0.5000
2.2541 -1.9919 0.5000
1.4968 -1.5419 0.5000
8.9216 -2.4526 0.5000
1.6994 -1.9534 0.5000
12.7503 -1.8634 0.5000
11.8618 -3.0443 0.5000
2.5426 -2.1987 0.5000
0.1214 4.5318 0.5000
3.5016 2.3475 0.5000
-3.3950 1.0380 0.5000
12.4972 -1.9427 0.5000
4.4368 7.5967 0.5000
-0.0066 5.7877 0.5000
-5.6298 2.4807 0.5000
1.7536 2.7018 0.5000
-0.5875 6.2563 0.5000
11.8275 -3.0145 0.5000
-0.7688 8.1184 0.5000
-0.5107 4.9822 0.5000
1.0109 -1.4437 0.5000
12.2031 -2.1124 0.5000
11.8487 -2.2055 0.5000
0.4674 -1.2167 0.5000
12.0393 -2.7836 0.5000
9.1752 -1.9100 0.5000
0.4807 6.6881 0.5000
-0.5343 6.1785 0.5000
0.1444 6.0525 0.5000
11.7651 -3.0554 0.5000
0.3296 4.5528 0.5000
12.4169 -2.0372 0.5000
-3.1168 1.0481 0.5000
12.0575 -2.6456 0.5000
-0.0719 10.0305 0.5000
7.4341 5.5055 0.5000
-0.5871 4.6447 0.5000
1.8923 2.9253 0.5000
12.5075 -2.1690 0.5000
11.5011 -3.1357 0.5000
-0.7691 8.0615 0.5000
11.8775 -2.9616 0.5000
-0.6292 6.2307 0.5000
0.1249 6.0081 0.5000
4.2265 7.8423 0.5000
-3.3379 1.0853 0.5000
-0.1165 5.6798 0.5000
12.3303 -2.6113 0.5000
-0.1574 5.7139 0.5000
-0.3617 5.2696 0.5000
2.3476 -2.1566 0.5000
-0.7305 7.9420 0.5000
0.2271 9.8805 0.5000
1.7255 2.7287 0.5000
-0.4371 4.2268 0.5000
1.7747 2.8524 0.5000
0.4536 -1.1885 0.5000
1.5305 -1.1020 0.5000
12.3010 -2.6563 0.5000
11.9955 -2.7336 0.5000
12.2587 -2.6353 0.5000
5.1261 2.9036 0.5000
1.4918 -1.0604 0.5000
1.5360 -1.0733 0.5000
12.0270 -3.0017 0.5000
2.5205 -2.2171 0.5000
9.3088 -1.9616 0.5000
-0.2062 5.3689 0.5000
11.9308 -2.3781 0.5000
4.7119 7.4635 0.5000
-0.2706 4.7663 0.5000
-0.1412 5.5871 0.5000
1.0781 -1.4660 0.5000
-0.2619 10.3562 0.5000
4.6173 7.3513 0.5000
8.9396 -2.4260 0.5000
12.1770 -2.9587 0.5000
11.7069 -2.9702 0.5000
0.0907 4.5612 0.5000
5.6209 -3.5878 0.5000
1.7138 -0.6626 0.5000
9.3502 -2.1322 0.5000
12.1446 -2.4426 0.5000
4.2491 7.5648 0.5000
5.2547 2.7021 0.5000
-0.8502 4.4034 0.5000
11.3268 -4.4909 0.5000
1.1690 6.9670 0.5000
-3.9975 4.0372 0.5000
12.1998 -2.6821 0.5000
12.6472 -1.9153 0.5000
12.3767 -1.7647 0.5000
3.3894 2.3664 0.5000
9.4327 -1.9330 0.5000
11.7520 -2.6632 0.5000
12.2015 -2.0112 0.5000
12.1830 -1.9569 0.5000
0.5767 9.5961 0.5000
-4.5500 1.4067 0.5000
11.9683 -2.4472 0.5000
12.2205 -2.3078 0.5000
1.6716 -1.6003 0.5000
11.7063 -2.8958 0.5000
-6.0317 2.6905 0.5000
1.7778 -1.7795 0.5000
12.0822 -2.2779 0.5000
12.0262 -2.9661 0.5000
3.4148 2.4501 0.5000
-1.0852 7.6632 0.5000
12.1190 -2.4551 0.5000
3.9875 7.9969 0.5000
12.2995 -2.2401 0.5000
9.0934 -2.0277 0.5000
2.6615 -2.1644 0.5000
12.0556 -2.3247 0.5000
1.7113 -1.6055 0.5000
9.4037 -1.7143 0.5000
12.5298 -2.0766 0.5000
12.3864 -1.9440 0.5000
-3.2060 1.0853 0.5000
-0.0719 4.8529 0.5000
1.5408 2.4580 0.5000
-0.9617 7.6808 0.5000
-0.0858 5.6774 0.5000
1.8876 2.9520 0.5000
-0.2523 5.2517 0.5000
0.3939 6.5633 0.5000
12.3932 -2.1609 0.5000
9.3480 -2.2964 0.5000
12.1848 -2.6337 0.5000
12.4707 -2.2468 0.5000
1.7503 9.2692 0.5000
-3.2664 1.0891 0.5000
-3.4384 1.0553 0.5000
-3.2645 1.2588 0.5000
12.1848 -2.8207 0.5000
11.6951 -2.5383 0.5000
0.8325 7.0481 0.5000
0.4763 6.7755 0.5000
2.2990 -2.1039 0.5000
11.6188 -3.1200 0.5000
12.3535 -1.8752 0.5000
0.5444 4.5398 0.5000
11.9507 -2.4673 0.5000
12.3827 -2.3856 0.5000
3.8956 -3.0477 0.5000
-0.7357 4.6537 0.5000
7.3407 5.5358 0.5000
-0.6895 7.8072 0.5000
2.6908 -2.2486 0.5000
0.6636 4.4995 0.5000
2.2327 3.7247 0.5000
11.8827 -2.6317 0.5000
-0.9878 7.5505 0.5000
-0.3998 5.0995 0.5000
-0.7164 7.5523 0.5000
-0.7306 7.6326 0.5000
12.2270 -2.2694 0.5000
12.3999 -1.9648 0.5000
3.1003 -1.2542 0.5000
0.6238 4.5401 0.5000
0.5856 4.5023 0.5000
0.5111 4.5504 0.5000
1.5417 2.1127 0.5000
11.1847 -4.8653 0.5000
4.3600 1.9229 0.5000
3.6921 8.2760 0.5000
9.1805 -2.0877 0.5000
11.9761 -2.3460 0.5000
-0.1372 5.7689 0.5000
1.7140 2.7857 0.5000
-3.5388 4.3022 0.5000
7.6912 5.2406 0.5000
11.8244 -2.1972 0.5000
1.3416 -1.5498 0.5000
12.9120 -1.7144 0.5000
0.5625 4.5536 0.5000
11.9951 -2.9949 0.5000
2.4436 8.7745 0.5000
5.2045 2.8014 0.5000
12.0136 -2.2894 0.5000
-3.5002 1.3838 0.5000
11.6277 -3.0098 0.5000
-0.6480 4.4984 0.5000
12.5954 -1.8942 0.5000
-0.4673 5.0698 0.5000
0.1287 5.4644 0.5000
11.8521 -2.6579 0.5000
12.4480 -2.1388 0.5000
12.0710 -2.2045 0.5000
-0.4766 5.0410 0.5000
-3.3259 1.1030 0.5000
-0.5331 4.0194 0.5000
7.5748 5.4149 0.5000
-5.5957 2.4526 0.5000
1.7769 2.7644 0.5000
6.2655 4.5993 0.5000
12.1718 -2.2594 0.5000
1.7716 2.9018 0.5000
0.5438 -0.9029 0.5000
1.5433 1.9495 0.5000
12.0891 -2.9506 0.5000
12.2388 -1.8921 0.5000
2.1244 3.7532 0.5000
-3.3008 1.2721 0.5000
12.5151 -1.8939 0.5000
-0.9232 7.1433 0.5000
12.0303 -2.8150 0.5000
-5.7523 2.4839 0.5000
-0.9117 7.2650 0.5000
2.0524 -1.8940 0.5000
8.9530 -2.4222 0.5000
11.6521 -2.9729 0.5000
-3.4430 1.0498 0.5000
-1.0777 7.6397 0.5000
3.1621 8.5625 0.5000
1.2968 -1.6062 0.5000
-6.4534 2.2092 0.5000
7.7148 5.2226 0.5000
12.3629 -2.2238 0.5000
-0.7224 8.0249 0.5000
4.9649 7.5753 0.5000
9.4010 -2.2716 0.5000
11.9340 -2.7322 0.5000
12.0167 -2.5718 0.5000
11.9383 -2.5005 0.5000
12.3436 -2.4133 0.5000
-3.3253 1.3010 0.5000
-0.8884 8.0713 0.5000
12.0212 -2.3582 0.5000
2.7153 -2.1250 0.5000
-0.4425 4.9630 0.5000
-0.7976 8.3003 0.5000
11.8186 -2.6264 0.5000
-3.1757 1.0163 0.5000
7.5017 5.4659 0.5000
3.9080 -3.0464 0.5000
12.0274 -2.5343 0.5000
4.5167 7.4634 0.5000
12.6201 -2.0607 0.5000
3.3480 2.2512 0.5000
-2.7971 1.0274 0.5000
