# .PCD v0.7
VERSION 0.7
FIELDS x y z
SIZE 4 4 4
TYPE F F F
COUNT 1 1 1
WIDTH 3359
HEIGHT 1
POINTS 3359
DATA ascii
-0.1560 -0.5902 0.5000
-0.3839 -0.5652 0.5000
-0.1601 -0.6001 0.5000
-0.4042 -0.5554 0.5000
0.0414 -0.6208 0.5000
-0.2333 -0.5805 0.5000
-0.3226 -0.5871 0.5000
-0.4876 -0.5419 0.5000
-0.5017 -0.5306 0.5000
-0.5895 -0.5121 0.5000
-0.6894 -0.5023 0.5000
-0.7118 -0.5016 0.5000
-0.8329 -0.5100 0.5000
-0.3291 0.9674 0.5000
-0.3967 0.9913 0.5000
-0.2432 0.9858 0.5000
-0.2702 0.9547 0.5000
-0.1380 1.0628 0.5000
-0.1454 1.0277 0.5000
0.7716 -1.1823 0.5000
0.8413 -1.2009 0.5000
0.6588 -1.2914 0.5000
0.4044 -1.1270 0.5000
0.5049 -1.2825 0.5000
0.2563 -1.1100 0.5000
0.3476 -1.1633 0.5000
-0.4291 -0.5458 0.5000
-0.6323 -0.5087 0.5000
-0.7736 -0.4648 0.5000
-0.9098 -0.4520 0.5000
-0.9624 -0.4654 0.5000
-1.1490 -0.4188 0.5000
-0.4004 0.9691 0.5000
-0.4593 1.0246 0.5000
-0.1713 1.0969 0.5000
-0.2229 1.0554 0.5000
-0.0974 1.1878 0.5000
0.0591 1.2999 0.5000
0.0158 1.2776 0.5000
0.4910 1.2576 0.5000
1.8683 -1.3577 0.5000
0.8430 -1.1899 0.5000
0.6301 -1.1533 0.5000
0.6573 -1.1643 0.5000
0.4603 -1.1780 0.5000
-0.6634 -0.4785 0.5000
-0.8791 -0.4696 0.5000
-1.0944 -0.4368 0.5000
-1.1728 -0.4458 0.5000
-1.4009 -0.3865 0.5000
-1.5596 -0.3635 0.5000
-1.5587 1.2945 0.5000
-1.3891 1.4606 0.5000
-1.3644 1.3895 0.5000
-0.4954 1.0507 0.5000
-0.5369 1.0711 0.5000
-0.3159 1.0367 0.5000
-0.2247 1.0166 0.5000
-0.1065 1.2342 0.5000
0.0799 1.4205 0.5000
0.0180 1.5709 0.5000
0.2204 1.4694 0.5000
0.2500 1.5586 0.5000
0.3770 1.4534 0.5000
0.4458 1.6512 0.5000
0.4852 1.2331 0.5000
0.6028 1.6337 0.5000
0.6424 1.2327 0.5000
0.8920 1.7210 0.5000
0.8049 1.2341 0.5000
1.8293 1.3343 0.5000
1.7123 1.0730 0.5000
1.9169 1.0797 0.5000
2.1302 1.0349 0.5000
2.4059 1.0126 0.5000
2.8695 1.0085 0.5000
3.0969 0.8620 0.5000
4.5802 0.1702 0.5000
4.5002 -0.3461 0.5000
4.4108 -0.8339 0.5000
4.5250 -1.4391 0.5000
3.7207 -1.6577 0.5000
3.6503 -1.6313 0.5000
2.5102 -1.5189 0.5000
2.5387 -1.4848 0.5000
1.8500 -1.3923 0.5000
0.6423 -1.2897 0.5000
0.2724 -1.1536 0.5000
-0.7294 -0.4704 0.5000
-0.8330 -0.4743 0.5000
-1.0434 -0.4259 0.5000
-1.2156 -0.3836 0.5000
-1.7004 -0.4195 0.5000
-1.7379 -0.3368 0.5000
-2.8704 1.4711 0.5000
-2.3960 1.6208 0.5000
-1.6243 1.1049 0.5000
-2.3935 2.0851 0.5000
-1.7953 1.5265 0.5000
-1.4916 1.6004 0.5000
-1.5492 1.6831 0.5000
-1.3136 1.8360 0.5000
-1.2768 1.7819 0.5000
-1.0835 1.9173 0.5000
-0.9489 2.2299 0.5000
-0.9997 2.2594 0.5000
-0.3387 1.1386 0.5000
-0.2056 1.2508 0.5000
-0.0895 2.0884 0.5000
-0.1468 2.1241 0.5000
0.1111 2.0105 0.5000
0.5036 2.7669 0.5000
0.4102 2.4247 0.5000
0.5559 1.9598 0.5000
0.8139 1.9327 0.5000
2.2295 1.5772 0.5000
2.3450 1.5726 0.5000
2.7017 1.5423 0.5000
5.4508 2.7866 0.5000
5.1697 2.1777 0.5000
5.2738 1.9329 0.5000
5.0854 1.5121 0.5000
5.2257 1.2563 0.5000
4.9564 0.8990 0.5000
5.1794 0.6200 0.5000
5.1308 0.3863 0.5000
5.0578 0.0220 0.5000
5.0141 -0.1650 0.5000
4.9791 -0.5804 0.5000
4.9460 -0.7437 0.5000
4.8404 -1.1558 0.5000
4.8853 -1.2512 0.5000
4.4895 -1.6143 0.5000
4.4793 -1.7282 0.5000
3.5905 -1.8137 0.5000
2.8970 -1.5194 0.5000
2.1955 -1.4203 0.5000
2.1963 -1.4527 0.5000
1.5072 -1.2740 0.5000
0.7762 -1.8545 0.5000
0.8179 -1.8615 0.5000
0.5687 -2.0663 0.5000
0.6180 -2.0261 0.5000
0.3169 -1.8535 0.5000
0.9726 -5.6857 0.5000
-0.6310 -0.4860 0.5000
-0.9261 -0.4357 0.5000
-0.9697 -0.4373 0.5000
-4.3033 -1.3806 0.5000
-4.1364 -0.7991 0.5000
-4.1367 -0.5440 0.5000
-4.5808 -0.3131 0.5000
-4.9346 -0.0793 0.5000
-4.8762 0.2605 0.5000
-4.7910 0.4525 0.5000
-4.7827 0.8385 0.5000
-4.7714 1.0262 0.5000
-4.6933 1.4176 0.5000
-4.5962 1.5371 0.5000
-4.6100 2.0227 0.5000
-4.5779 2.1698 0.5000
-4.4921 2.6967 0.5000
-4.4829 2.7739 0.5000
-4.3942 3.3274 0.5000
-3.3469 2.6405 0.5000
-2.4033 2.3682 0.5000
-2.4042 2.4072 0.5000
-1.9562 2.4287 0.5000
-1.9145 2.4066 0.5000
-1.4663 2.3431 0.5000
-1.0531 2.2799 0.5000
-0.2867 1.1742 0.5000
-0.2750 1.2407 0.5000
-0.2397 2.1103 0.5000
0.0077 2.0549 0.5000
0.0474 2.1246 0.5000
0.2589 1.9745 0.5000
0.3740 2.9608 0.5000
0.4918 1.9468 0.5000
1.2353 5.0338 0.5000
0.7238 1.9226 0.5000
1.8437 4.9482 0.5000
0.9386 1.8954 0.5000
5.7757 4.2454 0.5000
5.4623 3.3089 0.5000
5.5350 3.1352 0.5000
5.3169 2.4583 0.5000
5.3806 2.2726 0.5000
5.1905 1.7250 0.5000
5.2812 1.5216 0.5000
5.2594 1.1111 0.5000
5.1662 0.8429 0.5000
5.1555 0.5000 0.5000
5.1149 0.2115 0.5000
5.0616 -0.0731 0.5000
5.0280 -0.3530 0.5000
4.9636 -0.6291 0.5000
4.9133 -0.9803 0.5000
4.8883 -1.1921 0.5000
4.6715 -1.5204 0.5000
4.5139 -1.6252 0.5000
3.9296 -1.7731 0.5000
3.5717 -1.7509 0.5000
2.3205 -1.4475 0.5000
2.0433 -1.6053 0.5000
2.1454 -1.7187 0.5000
0.6934 -1.5018 0.5000
0.6316 -1.9908 0.5000
1.7234 -8.7093 0.5000
-5.2170 -1.8430 0.5000
-5.0409 -1.3825 0.5000
-5.1047 -1.1397 0.5000
-5.0249 -0.7634 0.5000
-5.0031 -0.4968 0.5000
-4.9553 -0.1967 0.5000
-4.9046 0.1381 0.5000
-4.8569 0.3956 0.5000
-4.8056 0.6816 0.5000
-4.7777 0.9053 0.5000
-4.7161 1.2827 0.5000
-4.6802 1.4813 0.5000
-4.6157 1.8888 0.5000
-4.5956 2.0133 0.5000
-4.5043 2.4867 0.5000
-4.4973 2.6292 0.5000
-4.3960 3.1463 0.5000
-3.8854 3.5649 0.5000
-2.4395 2.3213 0.5000
-3.7746 4.3893 0.5000
-3.9763 5.8544 0.5000
-2.2963 3.5301 0.5000
-3.5571 6.9533 0.5000
-3.3945 6.7082 0.5000
-2.0264 5.4309 0.5000
-2.0314 5.4690 0.5000
-1.2433 5.0151 0.5000
-1.2128 4.9841 0.5000
-0.6329 4.7815 0.5000
-0.5896 4.7893 0.5000
-0.0928 4.7105 0.5000
-0.0472 4.7065 0.5000
0.4674 4.6081 0.5000
1.1134 5.0635 0.5000
1.1002 5.0492 0.5000
1.7148 4.9753 0.5000
2.3041 4.9090 0.5000
5.5610 3.4875 0.5000
5.4759 2.6402 0.5000
5.3190 1.8984 0.5000
5.2809 1.1994 0.5000
5.1377 0.5872 0.5000
5.0789 -0.0021 0.5000
4.9030 -1.1205 0.5000
4.6748 -1.6076 0.5000
3.5852 -1.7318 0.5000
0.6339 -1.8065 0.5000
0.5550 -1.8002 0.5000
0.3693 -1.7672 0.5000
0.3807 -1.8226 0.5000
-5.1376 -1.4500 0.5000
-5.1064 -1.1707 0.5000
-4.9566 -0.5496 0.5000
-4.9185 -0.2058 0.5000
-4.9106 0.0577 0.5000
-4.8705 0.3302 0.5000
-4.7720 0.8529 0.5000
-4.7268 1.2197 0.5000
-4.6498 1.8206 0.5000
-4.5342 2.4375 0.5000
-4.4201 3.0721 0.5000
-4.4032 3.2854 0.5000
-3.9244 3.5042 0.5000
-3.9322 3.6550 0.5000
-3.8082 4.3109 0.5000
-3.7948 4.4913 0.5000
-4.0467 5.8367 0.5000
-3.8773 5.8029 0.5000
-3.6968 6.9624 0.5000
-3.5013 6.9213 0.5000
-2.1874 5.5434 0.5000
-1.3398 5.0584 0.5000
-0.6903 4.8123 0.5000
0.4311 4.6170 0.5000
1.0742 5.0721 0.5000
1.6729 4.9818 0.5000
5.6030 3.5985 0.5000
5.3812 2.6264 0.5000
5.3807 1.8951 0.5000
5.2851 1.2483 0.5000
5.1606 0.5529 0.5000
4.8924 -1.1223 0.5000
-5.0916 -1.1737 0.5000
-5.0009 -0.8220 0.5000
-4.8004 0.6366 0.5000
-4.6273 1.7532 0.5000
-4.5396 2.6006 0.5000
-3.8054 4.4892 0.5000
-4.0737 5.8273 0.5000
-3.8541 5.7877 0.5000
-3.7249 6.9450 0.5000
-3.5733 6.8990 0.5000
-2.0652 5.4554 0.5000
-1.2784 4.9777 0.5000
-0.6590 4.7822 0.5000
-0.1034 4.7026 0.5000
-0.0895 4.6978 0.5000
5.4759 2.6844 0.5000
5.3562 1.9353 0.5000
4.9734 -0.5234 0.5000
4.9035 -1.0692 0.5000
3.5983 -1.6914 0.5000
2.2000 -1.3490 0.5000
2.1527 -1.7445 0.5000
0.6752 -1.9574 0.5000
0.4509 -2.0521 0.5000
1.8994 -8.6705 0.5000
-4.9750 -1.4544 0.5000
-5.0764 -1.2750 0.5000
-5.0431 -0.8756 0.5000
-4.9950 -0.6300 0.5000
-4.9448 -0.2991 0.5000
-4.9017 -0.0173 0.5000
-4.8112 0.5880 0.5000
-4.7355 1.1370 0.5000
-4.6869 1.3556 0.5000
-4.6378 1.7160 0.5000
-4.6242 1.9339 0.5000
-4.5719 2.3466 0.5000
-4.5349 2.5360 0.5000
-4.4725 3.0168 0.5000
-4.4200 3.2438 0.5000
-3.9665 3.4287 0.5000
-2.4853 2.2673 0.5000
-3.8756 4.2533 0.5000
-4.2215 4.8155 0.5000
-4.1239 5.7598 0.5000
-1.5993 2.3272 0.5000
-3.7863 6.8763 0.5000
-1.2163 2.2856 0.5000
-2.1978 5.4204 0.5000
-0.9235 2.3540 0.5000
-1.3712 4.9947 0.5000
-0.3451 1.2093 0.5000
-0.7079 4.7786 0.5000
-0.1544 4.7041 0.5000
0.3773 4.6155 0.5000
0.2514 3.0543 0.5000
1.0138 5.0771 0.5000
1.6124 4.9917 0.5000
2.2026 4.9272 0.5000
2.2503 4.9270 0.5000
5.4226 4.4813 0.5000
5.5706 4.4764 0.5000
5.3947 3.5091 0.5000
5.4973 3.4339 0.5000
5.3542 2.6775 0.5000
5.3067 2.5181 0.5000
5.3425 1.9753 0.5000
5.2511 1.7951 0.5000
5.2648 1.2539 0.5000
5.1968 1.1019 0.5000
5.1416 0.6890 0.5000
5.0826 0.4569 0.5000
5.0923 0.1051 0.5000
5.0361 -0.1249 0.5000
5.0116 -0.4178 0.5000
4.9560 -0.7397 0.5000
4.9245 -1.0100 0.5000
4.7269 -1.2822 0.5000
4.5448 -1.4637 0.5000
4.0687 -1.6466 0.5000
2.5905 -1.3728 0.5000
2.8944 -1.7059 0.5000
2.2094 -1.5561 0.5000
1.7048 -1.2570 0.5000
0.7479 -1.4470 0.5000
0.7265 -1.8280 0.5000
2.1749 -8.6757 0.5000
1.3511 -5.3026 0.5000
-1.0481 -0.4508 0.5000
-1.0793 -0.4754 0.5000
-4.1778 -1.3719 0.5000
-4.3246 -1.2900 0.5000
-4.1205 -0.8853 0.5000
-4.1368 -0.6686 0.5000
-4.4382 0.3380 0.5000
-4.6575 1.5474 0.5000
-4.6104 2.1413 0.5000
-4.5249 2.8454 0.5000
-2.6749 1.7708 0.5000
-2.6609 2.1420 0.5000
-2.2225 1.9070 0.5000
-2.1974 2.2226 0.5000
-2.0582 2.2337 0.5000
-1.7853 2.3427 0.5000
-1.7033 2.3866 0.5000
-1.3302 2.2771 0.5000
-1.2559 2.2440 0.5000
-0.9697 2.2280 0.5000
-0.9389 2.1985 0.5000
-0.4356 2.3709 0.5000
-0.1335 2.0909 0.5000
0.0678 2.0446 0.5000
0.3879 2.3489 0.5000
0.3815 2.3826 0.5000
0.5456 1.9512 0.5000
0.7607 1.9218 0.5000
2.2751 2.0311 0.5000
2.3315 1.6029 0.5000
5.1668 2.7928 0.5000
5.2134 2.7785 0.5000
5.1425 2.0804 0.5000
5.1522 2.0461 0.5000
4.9361 1.3915 0.5000
5.2129 1.3966 0.5000
5.1370 0.8966 0.5000
5.1199 0.7243 0.5000
5.0936 0.2647 0.5000
4.8674 -0.2568 0.5000
4.9923 -0.4840 0.5000
4.8268 -0.7665 0.5000
4.6965 -1.2885 0.5000
4.5229 -1.5121 0.5000
4.0247 -1.6302 0.5000
2.9516 -1.4374 0.5000
2.6503 -1.4311 0.5000
2.2219 -1.3980 0.5000
1.8918 -1.2989 0.5000
1.5377 -1.2257 0.5000
0.7565 -1.2606 0.5000
0.5944 -1.3174 0.5000
0.4336 -1.3370 0.5000
0.4107 -1.2502 0.5000
-0.7710 -0.5237 0.5000
-1.1821 -0.4620 0.5000
-1.4824 -0.5554 0.5000
-1.5915 -0.4046 0.5000
-1.6581 -0.4143 0.5000
-2.5539 1.3478 0.5000
-1.7672 1.2220 0.5000
-1.8004 1.3536 0.5000
-1.3982 1.5745 0.5000
-1.2260 1.7765 0.5000
-1.0094 1.5286 0.5000
-0.9139 1.8148 0.5000
-0.7631 1.5586 0.5000
-0.4290 1.1368 0.5000
-0.3869 1.0887 0.5000
-0.2588 1.0914 0.5000
-0.2776 2.2312 0.5000
-0.2098 1.8194 0.5000
-0.0111 2.1197 0.5000
-0.0027 1.6950 0.5000
0.1682 1.5898 0.5000
0.1214 1.5082 0.5000
0.3726 1.6809 0.5000
0.7417 2.0958 0.5000
0.5806 1.7857 0.5000
0.9258 1.9576 0.5000
1.8313 1.4451 0.5000
1.7601 1.1474 0.5000
2.1352 1.3587 0.5000
2.2454 1.0625 0.5000
2.1873 1.0605 0.5000
2.7760 -1.4190 0.5000
2.3451 -1.3256 0.5000
2.0958 -1.3923 0.5000
0.8304 -1.1401 0.5000
0.7456 -1.2495 0.5000
0.4626 -1.1456 0.5000
-1.2627 -0.4136 0.5000
-1.2237 -0.4026 0.5000
-1.6987 -0.3825 0.5000
-1.4349 1.3136 0.5000
-0.5114 1.0274 0.5000
-0.4565 0.9996 0.5000
-0.2109 1.1316 0.5000
-0.1164 1.1637 0.5000
-0.1538 1.4286 0.5000
0.0451 1.3289 0.5000
0.1895 1.4343 0.5000
0.4044 1.2899 0.5000
0.9313 -1.1594 0.5000
0.7264 -1.2618 0.5000
0.4564 -1.0851 0.5000
0.5016 -1.2411 0.5000
0.3400 -1.1397 0.5000
0.3782 -1.1631 0.5000
-0.9049 -0.5042 0.5000
-0.3825 0.9494 0.5000
-0.3047 0.9259 0.5000
-0.2806 1.0257 0.5000
-0.0071 1.1876 0.5000
-0.2947 -0.5826 0.5000
-0.4775 -0.5528 0.5000
-0.1978 0.9494 0.5000
-0.1469 -0.5957 0.5000
0.2317 -1.1063 0.5000
0.2498 -1.1858 0.5000
-0.3781 1.0112 0.5000
-0.0185 1.1388 0.5000
0.4426 1.3319 0.5000
0.5903 1.2208 0.5000
0.7547 1.2808 0.5000
0.4018 -1.1906 0.5000
0.2540 -1.2362 0.5000
0.2667 -1.0626 0.5000
-1.5012 -0.3784 0.5000
-0.4185 1.0001 0.5000
-0.1598 1.1627 0.5000
-0.1514 1.1156 0.5000
-0.0708 1.3672 0.5000
0.0610 1.3332 0.5000
0.0732 1.3741 0.5000
0.4334 1.4044 0.5000
0.5292 1.2538 0.5000
0.5359 1.2274 0.5000
0.9173 1.3061 0.5000
1.6101 1.1390 0.5000
1.7847 1.0952 0.5000
2.3451 1.2450 0.5000
2.4198 -1.4221 0.5000
0.6173 -1.2409 0.5000
0.3308 -0.9106 0.5000
-1.7344 1.5231 0.5000
-0.8400 1.5780 0.5000
-0.8661 1.5894 0.5000
-0.4843 1.1230 0.5000
-0.3292 1.0854 0.5000
-0.0951 1.7948 0.5000
-0.0958 1.8836 0.5000
0.1330 1.5616 0.5000
0.1090 2.0503 0.5000
0.2511 1.4800 0.5000
0.2779 1.5831 0.5000
0.4836 1.6427 0.5000
0.4879 1.6925 0.5000
0.6742 1.6189 0.5000
0.8341 1.9684 0.5000
1.8734 1.3769 0.5000
2.3995 1.5645 0.5000
2.0617 1.1709 0.5000
3.2645 1.6776 0.5000
2.2508 0.9829 0.5000
4.8559 1.7909 0.5000
4.8157 1.1604 0.5000
4.7202 0.5687 0.5000
4.6478 0.3903 0.5000
4.6015 0.0379 0.5000
4.5016 -0.1142 0.5000
4.6702 -0.5251 0.5000
4.4611 -0.6117 0.5000
4.5792 -1.0693 0.5000
4.3892 -1.0910 0.5000
4.4961 -1.6988 0.5000
3.2945 -1.6126 0.5000
2.2001 -1.4037 0.5000
1.8173 -1.5016 0.5000
1.8401 -1.4765 0.5000
0.5028 -1.1096 0.5000
0.3645 -1.1370 0.5000
0.2070 -1.0725 0.5000
-0.5864 -0.4965 0.5000
-1.7146 -0.5597 0.5000
-2.5614 1.5357 0.5000
-2.4520 1.8479 0.5000
-1.7656 1.3670 0.5000
-2.1098 2.0252 0.5000
-1.9370 1.8754 0.5000
-1.8318 2.2290 0.5000
-1.7217 2.0952 0.5000
-1.7020 2.6968 0.5000
-1.6306 2.5193 0.5000
-1.1443 2.2630 0.5000
-0.3602 1.1389 0.5000
-0.4184 1.1803 0.5000
-0.0282 2.0624 0.5000
0.2115 1.9727 0.5000
0.4809 2.0931 0.5000
0.5106 2.2903 0.5000
0.6593 1.9477 0.5000
0.9038 1.9402 0.5000
2.4348 1.9313 0.5000
2.4901 1.5957 0.5000
5.5365 3.2640 0.5000
5.2695 2.3212 0.5000
5.2061 1.8508 0.5000
5.2391 1.6221 0.5000
5.2364 0.9812 0.5000
5.1160 0.3278 0.5000
5.0732 0.0789 0.5000
5.0347 -0.2607 0.5000
4.9337 -0.8629 0.5000
4.8990 -1.0301 0.5000
4.6919 -1.4216 0.5000
4.3288 -1.8786 0.5000
3.6477 -1.6792 0.5000
2.8602 -1.6833 0.5000
2.1976 -1.6348 0.5000
1.7423 -1.3207 0.5000
0.6949 -1.8043 0.5000
1.2190 -5.3423 0.5000
2.0171 -8.7516 0.5000
-4.2270 -1.2772 0.5000
-5.0217 -1.2719 0.5000
-5.0084 -0.6058 0.5000
-4.1790 -0.2766 0.5000
-4.8931 0.2003 0.5000
-4.7849 0.7794 0.5000
-4.7125 1.3085 0.5000
-4.5277 2.3364 0.5000
-4.4363 2.9707 0.5000
-4.4029 3.1420 0.5000
-2.5459 2.2470 0.5000
-2.5215 2.2849 0.5000
-2.3293 2.5520 0.5000
-1.6838 2.3633 0.5000
-1.6264 2.3615 0.5000
-1.2870 2.3254 0.5000
-1.2381 2.3024 0.5000
-0.9384 2.2739 0.5000
-0.3393 1.2731 0.5000
-0.7392 4.8088 0.5000
0.9856 5.0871 0.5000
1.5921 4.9986 0.5000
2.1718 4.8920 0.5000
2.2014 4.8864 0.5000
5.6881 3.8019 0.5000
5.3640 2.7925 0.5000
5.4447 2.5793 0.5000
5.2723 2.0028 0.5000
5.2195 0.7585 0.5000
5.1018 0.1763 0.5000
4.9285 -0.9051 0.5000
4.6633 -1.4995 0.5000
3.9799 -1.7600 0.5000
2.0072 -1.4174 0.5000
2.1300 -1.5964 0.5000
0.7212 -1.9075 0.5000
-0.8107 -0.4480 0.5000
-4.9877 -1.5583 0.5000
-5.1269 -1.3948 0.5000
-4.9717 -0.9659 0.5000
-5.0252 -0.7292 0.5000
-4.9851 -0.3969 0.5000
-4.9239 -0.1057 0.5000
-4.8909 0.1808 0.5000
-4.0466 0.3988 0.5000
-4.7954 0.7212 0.5000
-4.7412 1.0216 0.5000
-4.6985 1.2751 0.5000
-4.6462 1.6170 0.5000
-4.5763 2.2235 0.5000
-4.4438 2.8843 0.5000
-4.3403 3.6269 0.5000
-3.8976 3.4245 0.5000
-3.8361 4.0317 0.5000
-3.8421 4.2194 0.5000
-3.7226 4.9882 0.5000
-3.6904 5.1409 0.5000
-3.8666 6.7156 0.5000
-3.8435 6.8993 0.5000
-2.9840 6.9652 0.5000
-2.8584 6.9195 0.5000
-1.4862 5.0816 0.5000
-1.4014 5.0515 0.5000
-0.8240 4.8022 0.5000
-0.7981 4.8255 0.5000
-0.2520 4.7104 0.5000
-0.2333 4.7239 0.5000
0.2880 4.6264 0.5000
0.3055 4.6292 0.5000
0.9269 5.0769 0.5000
1.4964 4.9619 0.5000
1.5194 4.9825 0.5000
2.1396 4.9001 0.5000
5.7088 3.8871 0.5000
5.5104 2.9136 0.5000
5.4148 2.1460 0.5000
5.3145 1.4097 0.5000
5.1439 0.7570 0.5000
4.7061 -1.4956 0.5000
3.9941 -1.7224 0.5000
2.6892 -1.5542 0.5000
0.5309 -1.3194 0.5000
0.4788 -1.7914 0.5000
0.4001 -1.7992 0.5000
-5.1106 -1.6531 0.5000
-5.0831 -1.0324 0.5000
-4.9512 -0.4323 0.5000
-4.8506 0.4718 0.5000
-4.6593 1.6405 0.5000
-4.4962 2.8574 0.5000
-4.4290 3.0364 0.5000
-4.3567 3.5851 0.5000
-3.9493 3.4216 0.5000
-3.8602 4.0234 0.5000
-3.8225 4.1832 0.5000
-3.7287 5.1472 0.5000
-3.9101 6.7013 0.5000
-3.8544 6.9381 0.5000
-3.0358 6.9500 0.5000
-2.2830 5.4525 0.5000
-1.5435 4.9681 0.5000
-1.4801 5.0157 0.5000
-0.8870 4.8497 0.5000
0.2504 4.6507 0.5000
0.8958 5.0910 0.5000
1.4876 5.0027 0.5000
1.5243 5.0067 0.5000
5.6820 3.8816 0.5000
5.4837 2.9331 0.5000
5.2826 1.4193 0.5000
5.1721 0.7913 0.5000
4.7038 -1.4444 0.5000
2.7000 -1.5514 0.5000
1.7598 -1.2931 0.5000
0.5087 -1.3953 0.5000
0.5297 -2.0776 0.5000
-4.9541 -1.6445 0.5000
-5.0336 -1.0471 0.5000
-4.9458 -0.1982 0.5000
-4.8766 0.1307 0.5000
-4.8491 0.4486 0.5000
-4.7938 0.6988 0.5000
-4.7473 0.9940 0.5000
-4.6557 1.5575 0.5000
-4.5345 2.3723 0.5000
-3.8656 4.2380 0.5000
-3.7578 4.9917 0.5000
-3.9780 6.7036 0.5000
-3.6033 6.3418 0.5000
-3.0474 6.9391 0.5000
-2.3135 5.4486 0.5000
-1.5261 5.0258 0.5000
2.0984 4.9003 0.5000
5.6292 3.8755 0.5000
5.6275 3.7142 0.5000
5.4414 2.9221 0.5000
5.3971 2.7001 0.5000
5.3190 2.1030 0.5000
5.3856 1.9920 0.5000
5.2691 1.4942 0.5000
5.0082 -0.3271 0.5000
5.0058 -0.6222 0.5000
4.9580 -0.8654 0.5000
4.9030 -1.2156 0.5000
4.5510 -1.3686 0.5000
4.6561 -1.7665 0.5000
3.6901 -1.5791 0.5000
4.6063 -2.3906 0.5000
2.9112 -1.6077 0.5000
0.7605 -1.3764 0.5000
0.7241 -1.7811 0.5000
2.3587 -8.7124 0.5000
-4.4773 -1.5612 0.5000
-5.0123 -1.5576 0.5000
-4.9608 -1.1281 0.5000
-5.0278 -0.9009 0.5000
-4.9461 -0.5326 0.5000
-4.8918 0.0465 0.5000
-4.6148 0.2839 0.5000
-4.6556 1.6857 0.5000
-4.6116 2.0795 0.5000
-4.5549 2.2782 0.5000
-4.5198 2.7247 0.5000
-4.4762 2.9183 0.5000
-4.4234 3.4431 0.5000
-2.6447 2.1519 0.5000
-2.1591 2.2580 0.5000
-1.8837 2.3883 0.5000
-1.6310 2.6731 0.5000
-1.1398 2.4888 0.5000
-0.3740 1.2434 0.5000
-0.3506 1.1673 0.5000
-0.9872 4.8427 0.5000
-0.3691 4.7330 0.5000
-0.1708 2.1297 0.5000
0.1985 4.6441 0.5000
0.7512 5.0946 0.5000
1.3781 5.0214 0.5000
0.6091 2.2991 0.5000
1.9544 4.9489 0.5000
5.0946 4.5679 0.5000
5.5979 3.9157 0.5000
5.3850 3.0355 0.5000
5.4212 2.9757 0.5000
5.2056 2.2060 0.5000
5.3695 2.1221 0.5000
5.1114 1.5294 0.5000
5.2176 1.4413 0.5000
5.1596 0.9230 0.5000
5.0966 0.1973 0.5000
4.5546 -1.5143 0.5000
4.3841 -1.6676 0.5000
3.6560 -1.7386 0.5000
2.8349 -1.4790 0.5000
0.8162 -1.8477 0.5000
0.6636 -2.0760 0.5000
0.5583 -1.7944 0.5000
1.1095 -5.6423 0.5000
-4.1407 -1.5721 0.5000
-2.4532 1.4990 0.5000
-2.5654 1.7620 0.5000
-2.1637 1.9939 0.5000
-1.6505 1.6105 0.5000
-2.1437 2.4568 0.5000
-1.5236 1.8173 0.5000
-1.5462 2.2039 0.5000
-1.2660 1.9286 0.5000
-1.1217 2.2279 0.5000
-1.0847 2.1945 0.5000
-0.2720 2.1349 0.5000
0.1968 1.9810 0.5000
0.4541 1.9583 0.5000
0.4255 1.9713 0.5000
0.6551 1.9715 0.5000
2.5691 2.0039 0.5000
2.4513 1.9941 0.5000
2.6467 1.6137 0.5000
2.9738 1.4426 0.5000
5.1997 2.4257 0.5000
3.4097 1.1907 0.5000
5.0070 1.6927 0.5000
4.6787 1.0723 0.5000
4.9007 1.0794 0.5000
4.6017 0.5382 0.5000
4.7877 0.4569 0.5000
4.5344 0.0380 0.5000
4.6914 -0.0992 0.5000
4.4662 -0.4000 0.5000
4.8427 -0.6701 0.5000
4.3986 -0.9248 0.5000
4.7272 -1.2360 0.5000
4.0522 -1.5681 0.5000
3.3142 -1.4612 0.5000
2.6496 -1.3745 0.5000
2.2544 -1.3305 0.5000
1.9140 -1.2754 0.5000
0.6564 -1.2329 0.5000
-1.3349 -0.4069 0.5000
-1.7350 -0.3814 0.5000
-1.6361 1.0636 0.5000
-0.9512 1.5898 0.5000
-0.1303 1.6235 0.5000
-0.1241 1.4534 0.5000
0.0887 1.5021 0.5000
0.0339 1.5114 0.5000
0.2111 1.4408 0.5000
0.4340 1.5643 0.5000
0.5769 1.5760 0.5000
1.5540 1.1801 0.5000
1.5298 1.1757 0.5000
2.5039 -1.3586 0.5000
1.8610 -1.3189 0.5000
0.6087 -1.1401 0.5000
0.3314 -0.7989 0.5000
-1.3057 -0.4533 0.5000
-0.4382 0.9382 0.5000
-0.0513 1.2695 0.5000
0.3617 1.5092 0.5000
0.6634 1.2606 0.5000
0.8556 -1.1911 0.5000
0.5613 -1.2488 0.5000
-0.5064 -0.5503 0.5000
0.1267 -0.6389 0.5000
-0.1237 -0.6043 0.5000
-0.0977 -0.5938 0.5000
-0.0686 1.0935 0.5000
0.0005 1.1901 0.5000
0.4655 1.3648 0.5000
0.7566 -1.2073 0.5000
0.5977 -1.2586 0.5000
0.3652 -1.0980 0.5000
-1.3699 -0.3983 0.5000
-0.1082 1.1045 0.5000
-0.0443 1.3519 0.5000
-0.0317 1.2902 0.5000
0.1049 1.4554 0.5000
0.2735 1.4243 0.5000
0.5605 1.2525 0.5000
0.7256 1.2489 0.5000
2.0441 1.1082 0.5000
2.9532 -1.5011 0.5000
0.3805 -1.2029 0.5000
-1.7076 1.2747 0.5000
-1.7759 1.3307 0.5000
-1.0463 1.6387 0.5000
-1.0775 1.6108 0.5000
-0.2469 1.9559 0.5000
0.0321 1.7539 0.5000
0.2409 2.3642 0.5000
0.4397 1.8482 0.5000
0.5301 2.3887 0.5000
0.5982 1.7364 0.5000
0.9508 2.0048 0.5000
2.2401 1.4853 0.5000
2.5847 1.5751 0.5000
2.4844 1.2852 0.5000
5.0463 2.2977 0.5000
2.8343 1.0940 0.5000
4.9975 1.6113 0.5000
3.2078 0.8512 0.5000
4.7708 0.9031 0.5000
4.6715 0.6814 0.5000
5.0245 0.3913 0.5000
4.7191 -0.1813 0.5000
4.9432 -0.7965 0.5000
4.4889 -0.8228 0.5000
4.8029 -1.3562 0.5000
4.6959 -1.3572 0.5000
4.3494 -1.7527 0.5000
4.0233 -1.6732 0.5000
2.8830 -1.5878 0.5000
2.8005 -1.5544 0.5000
1.9367 -1.3770 0.5000
0.5778 -1.1171 0.5000
0.3992 -1.2502 0.5000
-1.6834 -0.5908 0.5000
-5.1259 -1.4791 0.5000
-4.1365 -0.6193 0.5000
-4.5180 -0.1470 0.5000
-4.8502 0.4438 0.5000
-4.4783 1.5366 0.5000
-2.9652 1.9307 0.5000
-2.3968 1.9849 0.5000
-2.1828 1.8385 0.5000
-1.8621 1.9794 0.5000
-1.5404 2.0315 0.5000
-0.2293 1.2180 0.5000
0.4264 2.6374 0.5000
0.4542 2.9901 0.5000
0.5196 1.9402 0.5000
2.3665 4.3515 0.5000
2.6096 4.8224 0.5000
2.6027 1.9240 0.5000
2.6668 1.5458 0.5000
5.4926 2.8782 0.5000
5.3111 2.3274 0.5000
5.3632 2.0553 0.5000
5.2181 1.3029 0.5000
5.2505 1.0207 0.5000
5.1794 0.6983 0.5000
5.1398 0.4264 0.5000
5.0524 -0.1636 0.5000
4.8802 -1.0597 0.5000
4.5127 -1.5652 0.5000
3.5441 -1.7388 0.5000
2.9307 -1.4952 0.5000
1.5582 -1.3031 0.5000
0.6062 -2.0660 0.5000
1.5116 -8.6490 0.5000
1.5293 -8.5878 0.5000
-4.3228 -1.0771 0.5000
-4.8911 -0.0553 0.5000
-4.4520 0.4383 0.5000
-4.5998 1.9898 0.5000
-4.5628 2.1198 0.5000
-2.7514 2.1740 0.5000
-1.5007 2.3604 0.5000
-1.4909 2.3553 0.5000
-1.1119 2.3043 0.5000
-0.8813 2.5532 0.5000
-0.2840 1.2788 0.5000
-1.0953 4.9324 0.5000
-0.5139 4.7602 0.5000
-0.4965 4.7762 0.5000
0.0494 4.6702 0.5000
0.5782 4.5932 0.5000
5.6607 4.3689 0.5000
5.5327 3.3388 0.5000
5.3544 2.4623 0.5000
5.2906 1.7347 0.5000
5.2338 1.1238 0.5000
5.1098 0.4627 0.5000
4.6487 -1.7429 0.5000
-5.2056 -1.7864 0.5000
-5.0485 -1.3304 0.5000
-5.0888 -1.0863 0.5000
-4.9982 -0.4673 0.5000
-4.7512 0.4089 0.5000
-4.7631 0.9757 0.5000
-4.5971 2.0854 0.5000
-4.4116 3.1897 0.5000
-4.3914 3.3694 0.5000
-3.9186 3.6320 0.5000
-3.8818 3.7521 0.5000
-3.7813 4.4304 0.5000
-3.7637 4.5742 0.5000
-4.0031 5.9712 0.5000
-3.7423 5.7830 0.5000
-3.4104 6.9489 0.5000
-2.0201 5.5259 0.5000
-1.9058 5.4008 0.5000
-1.1575 4.9867 0.5000
-0.0335 4.6974 0.5000
0.5363 4.6023 0.5000
1.1906 5.0518 0.5000
1.1893 5.0477 0.5000
1.7937 4.9696 0.5000
5.6202 3.4551 0.5000
5.3620 1.8207 0.5000
5.1197 0.5107 0.5000
4.9127 -1.1747 0.5000
4.6769 -1.6863 0.5000
3.9957 -1.9850 0.5000
-5.0630 -1.1398 0.5000
-4.7391 0.3726 0.5000
-4.8005 0.7313 0.5000
-4.5248 2.6688 0.5000
-4.4197 3.3759 0.5000
-3.9506 3.6084 0.5000
-3.9200 3.7968 0.5000
-3.8099 4.4375 0.5000
-3.8027 4.6034 0.5000
-3.7390 5.7211 0.5000
-3.5555 6.9464 0.5000
-3.4990 6.9369 0.5000
-2.0547 5.5181 0.5000
-1.9058 5.3609 0.5000
-1.2532 5.0683 0.5000
-1.1583 4.9031 0.5000
5.5895 3.4490 0.5000
5.3431 1.8015 0.5000
4.0607 -2.0070 0.5000
2.0671 -1.3459 0.5000
0.6633 -2.0329 0.5000
-5.1620 -1.8399 0.5000
-4.9767 -1.3771 0.5000
-4.8847 0.0526 0.5000
-4.8371 0.3892 0.5000
-4.4835 3.1633 0.5000
-4.4499 3.3154 0.5000
-3.9672 3.5819 0.5000
-2.4669 2.3133 0.5000
-3.8675 4.4292 0.5000
-1.9968 2.3809 0.5000
-4.0819 5.9760 0.5000
-2.2856 3.4768 0.5000
-1.7005 3.4485 0.5000
-1.9606 5.3850 0.5000
-1.2333 4.9257 0.5000
5.6164 4.4616 0.5000
5.4600 3.2878 0.5000
5.3542 2.5591 0.5000
5.4275 2.4014 0.5000
5.2526 1.8485 0.5000
5.3130 1.6589 0.5000
5.1766 1.1593 0.5000
3.9017 -8.1079 0.5000
0.6934 -1.9260 0.5000
1.9010 -8.6786 0.5000
1.9318 -8.6430 0.5000
-4.9469 -1.2847 0.5000
-4.0979 -0.7276 0.5000
-4.9661 -0.6744 0.5000
-4.1443 -0.2528 0.5000
-4.8135 0.5336 0.5000
-4.7103 1.3630 0.5000
-4.5772 2.5033 0.5000
-4.4519 2.9646 0.5000
-4.4527 3.2041 0.5000
-2.5526 2.2212 0.5000
-2.5404 2.3340 0.5000
-2.4452 2.7523 0.5000
-1.6681 2.3233 0.5000
-1.5563 2.2987 0.5000
-1.2810 2.2514 0.5000
-0.9363 2.3344 0.5000
-0.3320 1.1728 0.5000
-0.0919 2.4427 0.5000
0.2384 2.9930 0.5000
0.4961 2.3212 0.5000
0.4037 2.3417 0.5000
0.6485 1.9302 0.5000
2.1976 4.9174 0.5000
2.4364 2.0011 0.5000
2.4409 1.6300 0.5000
5.3426 3.4323 0.5000
5.2506 2.6694 0.5000
5.2147 2.5512 0.5000
5.1307 1.9245 0.5000
5.2128 1.8337 0.5000
5.2034 1.1790 0.5000
5.0918 0.7122 0.5000
4.9983 -0.4354 0.5000
4.8185 -1.2307 0.5000
4.5822 -1.4026 0.5000
2.9138 -1.5304 0.5000
2.4144 -1.3916 0.5000
1.9810 -1.3103 0.5000
0.7507 -1.4172 0.5000
1.4507 -5.3112 0.5000
0.4411 -1.5770 0.5000
-1.5150 -0.5066 0.5000
-4.0858 -0.8445 0.5000
-2.7256 1.3667 0.5000
-1.6606 1.0544 0.5000
-2.2810 1.7584 0.5000
-1.9708 1.9160 0.5000
-1.5189 1.5875 0.5000
-1.5657 1.9876 0.5000
-1.3742 1.7739 0.5000
-1.5608 2.5245 0.5000
-1.1201 1.8734 0.5000
-1.0172 2.1718 0.5000
-0.9645 2.1922 0.5000
-0.2751 1.3804 0.5000
-0.4873 2.4039 0.5000
-0.1837 2.0772 0.5000
0.3688 2.6287 0.5000
0.7515 1.9511 0.5000
2.3074 1.6614 0.5000
2.2809 1.6790 0.5000
2.8738 1.6299 0.5000
3.4586 1.9692 0.5000
3.0149 1.2974 0.5000
4.8101 2.0410 0.5000
3.0746 0.9177 0.5000
4.8546 1.4246 0.5000
4.6848 0.8080 0.5000
4.5876 0.3795 0.5000
4.6033 0.2866 0.5000
4.5483 -0.2777 0.5000
4.5489 -1.3590 0.5000
3.3647 -1.4961 0.5000
2.4720 -1.4379 0.5000
-0.8717 -0.5078 0.5000
-1.1028 -0.4692 0.5000
-1.4449 -0.4248 0.5000
-1.4511 -0.4251 0.5000
-1.8121 1.4900 0.5000
-0.8589 1.5453 0.5000
-0.4252 1.0512 0.5000
-0.0685 1.4035 0.5000
-0.0564 1.3165 0.5000
0.1175 1.6157 0.5000
0.0628 1.4552 0.5000
0.3272 1.6404 0.5000
0.4658 1.5609 0.5000
0.3759 1.2926 0.5000
0.6571 1.4831 0.5000
0.7011 1.2668 0.5000
0.6616 1.1989 0.5000
1.6952 1.1155 0.5000
1.6339 1.1522 0.5000
2.0880 1.0974 0.5000
1.0076 -1.2700 0.5000
0.7147 -1.1421 0.5000
0.5839 -1.1946 0.5000
0.2180 -0.9090 0.5000
-0.0512 1.2378 0.5000
0.4788 1.4658 0.5000
0.4085 1.4718 0.5000
-0.2647 0.9151 0.5000
-0.1589 0.9708 0.5000
0.4999 -1.2265 0.5000
-1.7104 1.1348 0.5000
-1.4887 1.2501 0.5000
0.2177 1.6045 0.5000
0.6044 1.1915 0.5000
0.8635 1.6647 0.5000
1.7052 1.2387 0.5000
1.8703 -1.4131 0.5000
-2.8482 1.4721 0.5000
-1.6606 1.1721 0.5000
-1.2642 1.8320 0.5000
-1.2428 1.7040 0.5000
-1.0456 1.9109 0.5000
-1.0634 1.8752 0.5000
-0.4956 1.2341 0.5000
-0.3878 2.4266 0.5000
-0.2149 1.3034 0.5000
0.4945 2.7200 0.5000
0.5528 1.9488 0.5000
5.2388 1.9342 0.5000
5.0178 1.5208 0.5000
4.9272 0.9107 0.5000
3.5451 -1.7663 0.5000
2.1456 -1.4030 0.5000
0.3076 -1.8097 0.5000
1.0356 -5.6785 0.5000
-4.2015 -1.3683 0.5000
-4.2155 -0.2876 0.5000
-4.8337 0.4516 0.5000
-3.3674 2.6162 0.5000
-2.4741 2.3841 0.5000
-2.4663 2.4402 0.5000
2.4366 4.7780 0.5000
2.1919 -1.3603 0.5000
2.1334 -1.6556 0.5000
0.6406 -1.9226 0.5000
-5.0658 -1.3707 0.5000
-3.8899 3.5372 0.5000
-0.6452 4.8055 0.5000
2.3126 4.8783 0.5000
5.5880 3.5443 0.5000
3.6054 -1.7429 0.5000
2.4865 -1.5656 0.5000
-4.9605 -0.2349 0.5000
-4.3963 3.2710 0.5000
-3.9380 3.4621 0.5000
-3.7211 6.9774 0.5000
5.4327 2.6038 0.5000
5.1011 0.6244 0.5000
5.0001 -0.5129 0.5000
2.2935 -1.4413 0.5000
-4.9868 -0.5903 0.5000
-4.9091 0.0350 0.5000
-4.7238 1.1569 0.5000
-4.5149 2.5795 0.5000
-3.9625 3.4732 0.5000
-2.1590 5.4886 0.5000
-2.0767 5.4170 0.5000
0.4461 -2.0084 0.5000
-5.0098 -1.4887 0.5000
-4.6556 1.7156 0.5000
-4.1136 5.7450 0.5000
-1.6375 2.3179 0.5000
0.2481 3.0890 0.5000
5.3558 3.4987 0.5000
5.2702 1.9505 0.5000
5.2602 1.3294 0.5000
5.0611 -0.1434 0.5000
2.2269 -8.6930 0.5000
1.3914 -5.2962 0.5000
-4.0992 -0.6935 0.5000
-2.6847 1.8019 0.5000
-2.2607 1.9366 0.5000
-2.0884 2.2648 0.5000
-1.7252 2.3421 0.5000
-1.3635 2.2980 0.5000
5.2426 2.8177 0.5000
5.1670 2.1040 0.5000
5.2618 2.0679 0.5000
5.1382 1.4580 0.5000
4.9336 -0.2523 0.5000
4.0400 -1.5790 0.5000
0.4067 -1.3877 0.5000
-1.5066 -0.5615 0.5000
-2.5851 1.3510 0.5000
-1.4042 1.6087 0.5000
-1.2300 1.8024 0.5000
-0.9967 1.5314 0.5000
-0.9939 1.8226 0.5000
-0.2957 2.1759 0.5000
-0.0284 1.7710 0.5000
0.7472 2.1154 0.5000
0.9291 2.0043 0.5000
2.1578 1.3751 0.5000
2.2847 1.0599 0.5000
2.8987 -1.4974 0.5000
-0.1018 1.3598 0.5000
0.0309 1.4539 0.5000
0.3743 1.4125 0.5000
0.9223 -1.2004 0.5000
-0.0290 1.2140 0.5000
-0.1800 1.0346 0.5000
0.7785 -1.3169 0.5000
-0.5762 1.1559 0.5000
-0.1876 1.2350 0.5000
0.4562 1.5198 0.5000
1.6564 1.0710 0.5000
0.5121 -1.1572 0.5000
-1.3632 -0.4106 0.5000
-1.6680 -0.3379 0.5000
-1.6493 1.2255 0.5000
-1.5794 1.1443 0.5000
-1.5008 1.4405 0.5000
-1.4504 1.3299 0.5000
-0.0157 1.4848 0.5000
0.3392 1.5095 0.5000
0.5245 1.5932 0.5000
0.5219 1.6756 0.5000
0.7001 1.5562 0.5000
0.7238 1.6100 0.5000
1.5774 1.1334 0.5000
2.0864 1.0476 0.5000
2.8460 0.9902 0.5000
3.3626 0.9802 0.5000
4.7161 1.0103 0.5000
4.6162 0.4761 0.5000
4.5406 -0.0757 0.5000
4.4617 -0.5645 0.5000
4.3801 -1.1000 0.5000
-1.5163 -0.4872 0.5000
-1.4749 -0.3729 0.5000
-2.4426 1.4900 0.5000
-1.7940 1.4000 0.5000
-1.6840 1.6722 0.5000
-1.7327 1.7064 0.5000
-1.5120 1.9427 0.5000
-1.4215 1.7711 0.5000
-1.2348 1.9915 0.5000
-1.2024 1.9327 0.5000
-0.2293 2.1534 0.5000
0.7187 1.9752 0.5000
0.9689 1.9026 0.5000
2.5593 1.9194 0.5000
2.5423 1.5749 0.5000
2.6288 1.5304 0.5000
5.2677 2.5228 0.5000
5.3314 2.2809 0.5000
5.1091 1.7840 0.5000
5.2778 1.5823 0.5000
5.2370 1.2080 0.5000
5.2190 0.8905 0.5000
5.1201 0.2887 0.5000
0.7460 -1.4892 0.5000
0.6962 -1.8786 0.5000
1.1808 -5.3510 0.5000
-4.7521 -1.1716 0.5000
-4.1464 -0.7488 0.5000
-4.9695 -0.3111 0.5000
-2.5592 2.3123 0.5000
-0.8992 2.2414 0.5000
0.1867 2.0130 0.5000
0.6522 2.0707 0.5000
1.5563 4.9410 0.5000
5.2670 4.4492 0.5000
5.6951 3.7955 0.5000
5.3392 2.7965 0.5000
5.3046 1.3962 0.5000
4.8794 -1.3269 0.5000
4.6384 -1.8627 0.5000
2.1575 -8.7870 0.5000
2.1041 -8.7791 0.5000
-4.3492 3.5856 0.5000
-3.6905 5.0923 0.5000
-3.5515 6.1963 0.5000
-3.5575 6.3099 0.5000
-1.5676 3.6257 0.5000
-2.9225 6.9342 0.5000
-1.5345 5.0688 0.5000
2.1306 4.9514 0.5000
5.6857 3.9256 0.5000
5.5475 2.9925 0.5000
5.3752 2.1986 0.5000
4.9546 -0.9054 0.5000
2.7724 -1.5516 0.5000
-4.4687 2.8157 0.5000
-4.3620 3.5084 0.5000
-3.9715 3.3842 0.5000
-3.8616 3.9532 0.5000
-3.8219 4.1178 0.5000
-3.7631 4.9448 0.5000
-3.7328 5.0807 0.5000
-3.9403 6.6278 0.5000
-3.9370 6.8097 0.5000
-3.0782 6.9612 0.5000
-2.9838 6.9277 0.5000
-0.9429 4.8360 0.5000
-0.3161 4.7346 0.5000
0.2237 4.6536 0.5000
0.8025 5.1075 0.5000
0.8514 5.1006 0.5000
1.4327 5.0029 0.5000
2.0064 4.9657 0.5000
5.6711 3.9718 0.5000
5.4001 2.1930 0.5000
5.3212 1.4989 0.5000
0.4014 -1.5161 0.5000
0.4813 -1.8213 0.5000
-4.9522 -1.6882 0.5000
-4.9970 -1.0741 0.5000
-4.7970 0.6470 0.5000
-4.4478 3.5149 0.5000
-3.9133 3.9576 0.5000
-3.8959 4.1243 0.5000
-3.8061 4.9306 0.5000
-3.7878 5.0718 0.5000
-3.9845 6.6493 0.5000
-3.9565 6.8434 0.5000
-3.1449 6.9363 0.5000
-2.3674 5.4554 0.5000
-1.5532 5.0281 0.5000
0.2265 4.6346 0.5000
0.8375 5.0908 0.5000
5.6360 3.9948 0.5000
5.5100 3.0368 0.5000
5.2055 1.4716 0.5000
5.1633 0.8776 0.5000
4.7004 -1.3744 0.5000
3.9963 -1.6902 0.5000
2.4826 -1.3511 0.5000
2.1729 -1.5891 0.5000
-4.9238 -1.7020 0.5000
-5.1197 -1.5634 0.5000
-4.9338 -1.1144 0.5000
-4.7297 0.2997 0.5000
-4.4001 3.4796 0.5000
-3.9020 3.9444 0.5000
-3.8006 4.8313 0.5000
-3.6995 6.0111 0.5000
-1.6394 3.5434 0.5000
-1.0421 2.2048 0.5000
-1.6309 5.0136 0.5000
-0.9512 4.7999 0.5000
0.7833 5.1133 0.5000
1.9697 4.9656 0.5000
5.3947 2.9409 0.5000
5.2044 1.5711 0.5000
5.0952 0.3849 0.5000
5.0192 -0.2404 0.5000
4.9550 -0.7512 0.5000
4.6325 -1.5781 0.5000
4.3779 -1.7182 0.5000
3.9277 -8.8535 0.5000
0.6544 -2.1604 0.5000
0.6705 -2.1214 0.5000
-4.1373 -1.6103 0.5000
-4.1468 -1.4841 0.5000
-4.0987 -0.9386 0.5000
-4.2191 -0.4416 0.5000
-4.6569 1.8570 0.5000
-3.4567 2.4780 0.5000
-2.2653 1.7485 0.5000
-1.9788 2.3363 0.5000
-1.5738 1.9236 0.5000
-1.5044 2.3026 0.5000
-1.5946 2.4079 0.5000
0.0022 2.0445 0.5000
-0.0158 2.0356 0.5000
0.3683 3.0025 0.5000
2.5300 1.9957 0.5000
2.5920 1.9715 0.5000
2.6853 1.6286 0.5000
5.3542 2.4401 0.5000
5.0397 1.7462 0.5000
5.0714 1.6330 0.5000
5.1581 1.0185 0.5000
4.7347 0.5113 0.5000
4.7671 -0.0087 0.5000
4.8780 -0.5433 0.5000
4.4618 -1.0041 0.5000
4.5524 -1.2905 0.5000
3.7133 -1.5080 0.5000
3.2873 -1.5306 0.5000
-1.6301 -0.5010 0.5000
-1.7342 1.1842 0.5000
-1.5608 1.6038 0.5000
-1.2076 1.5815 0.5000
-1.0289 1.7305 0.5000
-0.5053 1.1702 0.5000
-0.3736 2.0513 0.5000
-0.1085 1.7989 0.5000
0.0628 1.6018 0.5000
0.2359 1.5482 0.5000
0.5117 1.7498 0.5000
0.7613 1.8010 0.5000
1.9846 1.1370 0.5000
2.7108 1.1084 0.5000
2.6764 1.1392 0.5000
3.2292 0.9216 0.5000
3.2949 -1.4423 0.5000
1.9746 -1.2864 0.5000
-0.5506 1.0184 0.5000
0.4206 -1.0843 0.5000
-0.0704 1.1268 0.5000
-0.3914 -0.5482 0.5000
-0.0462 1.0956 0.5000
0.6900 1.2120 0.5000
0.7138 -1.3034 0.5000
0.3462 -1.0890 0.5000
-0.1406 1.4136 0.5000
0.0435 1.4044 0.5000
0.8007 1.2803 0.5000
0.8843 1.2892 0.5000
2.3759 1.3822 0.5000
2.1048 1.0622 0.5000
2.3222 0.9957 0.5000
2.5026 -1.4284 0.5000
2.6000 -1.4724 0.5000
1.9420 -1.3218 0.5000
-1.6099 -0.3387 0.5000
-1.8052 1.5045 0.5000
-0.9097 1.5834 0.5000
-0.4692 1.1537 0.5000
-0.5619 1.2666 0.5000
-0.1121 1.8456 0.5000
-0.1828 2.0280 0.5000
0.0537 1.7201 0.5000
0.0985 2.1343 0.5000
0.6963 1.7006 0.5000
0.9674 1.8952 0.5000
2.2866 1.6073 0.5000
2.3278 1.4155 0.5000
3.5373 1.9213 0.5000
2.1626 1.0005 0.5000
5.1683 2.0780 0.5000
2.8240 0.9492 0.5000
4.9842 1.3404 0.5000
4.5539 -0.0201 0.5000
4.7798 -0.4172 0.5000
4.4562 -0.5085 0.5000
4.5707 -0.9436 0.5000
4.4996 -1.5611 0.5000
3.3711 -1.5991 0.5000
2.5013 -1.5523 0.5000
1.8476 -1.4280 0.5000
0.4055 -1.2218 0.5000
0.2795 -1.2738 0.5000
-5.0106 -0.5015 0.5000
-2.8080 1.5961 0.5000
-2.6314 1.8798 0.5000
-2.2525 2.0532 0.5000
-2.0537 1.9348 0.5000
-2.0145 2.3524 0.5000
-1.9210 2.2279 0.5000
-1.5714 2.3744 0.5000
-1.6551 2.4299 0.5000
-1.1633 2.2554 0.5000
-0.8720 2.2515 0.5000
-0.2817 1.1135 0.5000
0.8978 1.9092 0.5000
2.3015 1.9670 0.5000
5.4777 3.3752 0.5000
5.3574 2.5096 0.5000
5.3272 1.7961 0.5000
5.1275 1.3427 0.5000
5.2130 1.0907 0.5000
2.8731 -1.6198 0.5000
2.1822 -1.5219 0.5000
1.8395 -1.3378 0.5000
2.2442 -8.7755 0.5000
-4.1125 -0.8342 0.5000
-4.1676 -0.3713 0.5000
-4.5432 2.2333 0.5000
-2.3321 2.4977 0.5000
-2.3310 2.5101 0.5000
-1.7776 2.4045 0.5000
-1.3612 2.3051 0.5000
-1.3139 2.3356 0.5000
-1.0660 2.4793 0.5000
-0.3635 1.2783 0.5000
5.7005 3.9942 0.5000
5.4921 2.9526 0.5000
5.3410 2.1794 0.5000
4.0541 -1.7265 0.5000
-4.9472 -1.6819 0.5000
-5.1400 -1.5444 0.5000
-4.4500 2.9295 0.5000
-4.3649 3.4858 0.5000
-3.8900 3.9069 0.5000
-3.8342 4.0753 0.5000
-3.7396 4.7958 0.5000
-3.9472 6.4822 0.5000
-3.5671 6.0966 0.5000
-3.1761 7.0064 0.5000
-1.7443 5.4447 0.5000
-1.5895 5.0783 0.5000
-0.9493 4.8518 0.5000
0.1724 4.6559 0.5000
5.7412 4.0600 0.5000
5.4873 3.0247 0.5000
5.4204 2.2947 0.5000
5.3016 1.5753 0.5000
4.9560 -0.8251 0.5000
4.5573 -2.5167 0.5000
-4.4742 2.7351 0.5000
-3.9272 3.2551 0.5000
-3.8778 3.8828 0.5000
-3.7807 4.7678 0.5000
-3.9638 6.4655 0.5000
-3.6124 6.1278 0.5000
-3.2499 6.9853 0.5000
-0.9737 4.8509 0.5000
5.6716 4.0648 0.5000
5.4455 3.0054 0.5000
4.9409 -0.8187 0.5000
4.7173 -1.3159 0.5000
0.5631 -1.3653 0.5000
0.5987 -2.1059 0.5000
-4.6470 1.6941 0.5000
-2.5797 2.1982 0.5000
-3.9097 3.8823 0.5000
-2.3774 2.4715 0.5000
-3.8063 4.7829 0.5000
-4.0203 6.4979 0.5000
-3.6613 6.1233 0.5000
-1.5666 3.5307 0.5000
-1.6699 5.0626 0.5000
-0.4322 4.7293 0.5000
0.1073 4.6574 0.5000
1.3032 5.0323 0.5000
5.6291 3.9360 0.5000
5.4313 3.0762 0.5000
5.2836 1.3999 0.5000
5.1936 0.7253 0.5000
5.0041 -0.4768 0.5000
4.1408 -1.6222 0.5000
4.0548 -1.9830 0.5000
2.2078 -1.5252 0.5000
3.8282 -8.9137 0.5000
3.7892 -8.8938 0.5000
0.6494 -2.1504 0.5000
-4.3111 -1.6138 0.5000
-4.4770 -1.1147 0.5000
-4.2111 -0.5370 0.5000
-4.9426 -0.4058 0.5000
-4.6061 2.1803 0.5000
-4.5252 2.7650 0.5000
-4.4570 3.3024 0.5000
-3.1137 2.4606 0.5000
-2.4692 2.4573 0.5000
-1.8760 2.3254 0.5000
-1.6759 2.6725 0.5000
-1.0773 2.2210 0.5000
-0.4062 1.2344 0.5000
-0.2608 2.5211 0.5000
0.0275 2.4355 0.5000
1.8905 4.9604 0.5000
0.7998 2.1959 0.5000
2.6359 1.5977 0.5000
5.4589 3.1024 0.5000
5.2969 2.3775 0.5000
5.2694 2.2566 0.5000
5.2163 1.7265 0.5000
4.9963 -0.0912 0.5000
2.9373 -1.4214 0.5000
1.6938 -1.2567 0.5000
0.8550 -1.8440 0.5000
1.2510 -5.6287 0.5000
0.3967 -1.7354 0.5000
-2.4556 1.3507 0.5000
-2.7159 1.7976 0.5000
-1.8449 1.3352 0.5000
-2.2493 1.8687 0.5000
-1.8257 1.6673 0.5000
-2.0179 2.1905 0.5000
-1.4725 1.6764 0.5000
-1.4162 2.5636 0.5000
-1.0752 2.0105 0.5000
0.4394 2.1446 0.5000
0.6177 1.9775 0.5000
0.8702 1.9650 0.5000
2.4785 1.6690 0.5000
2.7683 1.4121 0.5000
4.8359 2.4453 0.5000
3.1081 1.1747 0.5000
4.9794 1.8409 0.5000
4.6765 1.1911 0.5000
4.7299 1.1481 0.5000
4.6092 0.6549 0.5000
4.7701 0.5844 0.5000
4.5408 0.1487 0.5000
4.6564 0.0303 0.5000
4.4831 -0.3376 0.5000
4.5448 -0.4738 0.5000
-1.6346 -0.3519 0.5000
-1.8507 1.3164 0.5000
-0.7690 1.5242 0.5000
-0.1786 1.5733 0.5000
0.0002 1.6228 0.5000
0.1567 1.4863 0.5000
0.3736 1.6500 0.5000
0.4401 1.2334 0.5000
1.4929 1.2076 0.5000
1.8242 1.1580 0.5000
2.2302 1.0429 0.5000
-1.2482 -0.4576 0.5000
0.9649 -1.1819 0.5000
0.6924 -1.3030 0.5000
0.1834 -1.0839 0.5000
0.0437 1.3994 0.5000
0.3110 1.3685 0.5000
0.6566 1.3754 0.5000
1.5417 1.1418 0.5000
1.8899 1.0724 0.5000
2.2391 1.1310 0.5000
2.5671 -1.4652 0.5000
-1.5880 -0.3483 0.5000
-1.7880 1.4803 0.5000
-1.2165 1.6366 0.5000
-0.7686 1.7079 0.5000
-0.2338 1.1943 0.5000
-0.1362 1.8856 0.5000
-0.1842 2.2525 0.5000
0.4668 1.8265 0.5000
1.1515 2.1769 0.5000
2.4560 1.4709 0.5000
2.7696 1.2732 0.5000
5.2244 2.0661 0.5000
3.1108 1.0394 0.5000
5.0085 1.3502 0.5000
4.6145 -0.0298 0.5000
4.5289 -0.5226 0.5000
4.4014 -1.0010 0.5000
3.3468 -1.5993 0.5000
1.7827 -1.4041 0.5000
0.4982 -1.4591 0.5000
0.2385 -1.2290 0.5000
0.3146 -1.4613 0.5000
-2.7421 1.9440 0.5000
-2.5703 1.8837 0.5000
-2.6176 2.3812 0.5000
-2.3398 2.6986 0.5000
-2.0166 2.3422 0.5000
2.3824 1.9754 0.5000
5.2240 1.9741 0.5000
5.2553 1.0506 0.5000
5.2046 0.7397 0.5000
4.8600 -1.3624 0.5000
4.2327 -1.7210 0.5000
4.3236 -1.9031 0.5000
0.6716 -1.7951 0.5000
3.3472 -8.9472 0.5000
-4.4265 -1.4224 0.5000
-1.5866 2.7685 0.5000
-1.5466 3.5856 0.5000
-1.0831 2.5773 0.5000
2.0781 4.8964 0.5000
2.1180 4.8888 0.5000
-3.8974 3.3196 0.5000
-3.7115 4.8432 0.5000
-3.7479 5.0109 0.5000
-3.9263 6.5043 0.5000
-3.7052 6.4151 0.5000
-3.1032 6.9823 0.5000
2.0447 4.9150 0.5000
5.6954 4.0486 0.5000
5.4132 2.2482 0.5000
5.3225 1.5213 0.5000
4.0145 -1.7319 0.5000
4.5652 -2.5622 0.5000
-5.1388 -1.7386 0.5000
-3.9039 3.3037 0.5000
-3.8629 4.0709 0.5000
-3.7924 4.8704 0.5000
-3.9888 6.5982 0.5000
-3.9209 6.7801 0.5000
-3.1806 6.9773 0.5000
-1.5985 4.9850 0.5000
2.7101 -1.5226 0.5000
1.8053 -1.2743 0.5000
0.5853 -1.4453 0.5000
2.3199 -8.7807 0.5000
-1.7974 2.3556 0.5000
-4.0033 6.5503 0.5000
-1.6237 2.7202 0.5000
-3.1892 6.9416 0.5000
-1.5546 3.5792 0.5000
-1.6071 5.0620 0.5000
5.4437 2.8962 0.5000
5.1794 1.5321 0.5000
5.0863 0.3266 0.5000
4.3736 -1.7867 0.5000
2.9107 -1.5815 0.5000
-4.1303 -1.5335 0.5000
-4.2378 -1.0429 0.5000
-4.6143 1.9772 0.5000
-2.4406 1.9124 0.5000
-1.8334 2.3160 0.5000
-1.4295 2.2646 0.5000
0.5396 2.1741 0.5000
0.8155 2.1816 0.5000
2.3585 1.7850 0.5000
2.6696 1.5846 0.5000
5.3907 3.1067 0.5000
5.1937 1.6891 0.5000
5.1954 1.0539 0.5000
2.1046 -1.3904 0.5000
0.7023 -1.5188 0.5000
0.6814 -1.4084 0.5000
0.4815 -1.3737 0.5000
0.3168 -1.3342 0.5000
-2.0745 1.7663 0.5000
-1.8735 2.0031 0.5000
-1.5889 2.1976 0.5000
-1.3596 2.4966 0.5000
-0.9591 1.8764 0.5000
-0.3612 2.3208 0.5000
-0.0917 2.2144 0.5000
0.1404 1.9910 0.5000
0.4762 2.5544 0.5000
2.3354 1.9370 0.5000
2.4893 1.6034 0.5000
2.6232 1.3376 0.5000
2.8943 1.4805 0.5000
2.7841 1.0528 0.5000
3.5088 1.3359 0.5000
4.6761 1.1205 0.5000
4.6536 0.5794 0.5000
2.5850 -1.4145 0.5000
-1.6367 -0.4004 0.5000
-1.8131 1.2999 0.5000
-1.6804 1.5081 0.5000
-0.0027 1.5107 0.5000
-0.0277 1.4481 0.5000
0.1833 1.5485 0.5000
0.1279 1.3990 0.5000
0.3492 1.4078 0.5000
1.7924 1.1527 0.5000
2.0456 -1.3435 0.5000
0.9030 -1.2804 0.5000
0.7186 -1.1681 0.5000
-0.5944 1.1349 0.5000
0.4748 1.4132 0.5000
0.0765 -0.6168 0.5000
0.4292 1.3818 0.5000
0.2598 1.3841 0.5000
0.3582 1.3958 0.5000
0.4438 1.5038 0.5000
0.6491 1.5424 0.5000
0.9051 1.2978 0.5000
1.6181 1.0942 0.5000
2.0042 1.0882 0.5000
2.1780 0.9914 0.5000
2.7246 1.0241 0.5000
3.2002 0.8085 0.5000
3.2898 -1.5833 0.5000
-2.6494 1.4612 0.5000
-1.6119 1.1624 0.5000
-1.4273 1.6898 0.5000
-1.1448 1.6641 0.5000
-0.3230 2.3413 0.5000
-0.0486 2.3195 0.5000
0.2288 2.4139 0.5000
0.5051 2.4185 0.5000
0.4596 2.3614 0.5000
2.3735 1.9500 0.5000
2.3950 1.6269 0.5000
3.1451 1.6627 0.5000
5.2577 2.4500 0.5000
3.4948 1.3842 0.5000
5.2436 1.7529 0.5000
4.9178 1.3428 0.5000
4.7483 0.7597 0.5000
5.1599 0.4891 0.5000
4.6694 0.2323 0.5000
4.9754 -0.1218 0.5000
4.6788 -0.2666 0.5000
4.8436 -0.8357 0.5000
4.7933 -1.3520 0.5000
4.4714 -1.7568 0.5000
1.4343 -1.2595 0.5000
0.6000 -2.1742 0.5000
0.5101 -1.9859 0.5000
-4.2498 -1.2421 0.5000
-4.1610 -0.6841 0.5000
-4.4075 1.6031 0.5000
-2.4880 2.0097 0.5000
-2.3318 2.3741 0.5000
-2.1311 2.2026 0.5000
-1.8409 2.3674 0.5000
-1.6575 2.7746 0.5000
-1.0092 2.2504 0.5000
0.0596 2.0848 0.5000
0.6106 2.3015 0.5000
5.7093 4.0259 0.5000
5.3114 2.0909 0.5000
5.2793 1.6204 0.5000
5.1511 1.3956 0.5000
5.2498 1.0242 0.5000
5.1025 0.1201 0.5000
4.6118 -1.6020 0.5000
3.3710 -1.6362 0.5000
3.7197 -8.5294 0.5000
3.7120 -8.5864 0.5000
1.5217 -8.6562 0.5000
1.5401 -8.7008 0.5000
-4.8965 -1.2310 0.5000
-5.0251 -0.6925 0.5000
-4.4910 2.5759 0.5000
-4.3709 3.4105 0.5000
-3.8960 3.6696 0.5000
-3.7481 4.5197 0.5000
-1.7057 2.7820 0.5000
-3.3682 6.8524 0.5000
-1.6974 3.4874 0.5000
-1.8825 5.4086 0.5000
-1.1090 4.9515 0.5000
5.6780 4.3472 0.5000
5.4359 2.4589 0.5000
4.9515 -0.6943 0.5000
4.8869 -1.2363 0.5000
0.5544 -1.8663 0.5000
-5.0835 -1.3186 0.5000
-5.0025 -0.4392 0.5000
-4.9008 0.1728 0.5000
-4.6762 0.4127 0.5000
-3.7842 4.6385 0.5000
-3.9914 5.9755 0.5000
-3.5444 6.9584 0.5000
0.5344 4.5971 0.5000
5.6024 3.4299 0.5000
5.3503 1.7686 0.5000
4.6621 -1.7314 0.5000
4.0471 -2.0142 0.5000
-3.4061 6.9654 0.5000
-1.2055 5.0705 0.5000
0.4890 4.5996 0.5000
5.4715 2.5048 0.5000
-5.1797 -1.8530 0.5000
-4.5724 2.4615 0.5000
-3.9343 3.5628 0.5000
-3.8462 4.3753 0.5000
-3.9609 5.7980 0.5000
-3.6006 6.8928 0.5000
-0.9398 2.5346 0.5000
0.3474 3.0592 0.5000
5.5968 4.4400 0.5000
5.7069 4.3979 0.5000
5.1930 0.9569 0.5000
2.3670 -1.3568 0.5000
2.0685 -1.5377 0.5000
1.7426 -1.3601 0.5000
1.9564 -8.6774 0.5000
1.3056 -5.7056 0.5000
-4.9942 -0.7182 0.5000
-4.9479 -0.3316 0.5000
-4.7424 1.0835 0.5000
-4.6992 1.3497 0.5000
-2.7719 1.9698 0.5000
-1.6171 2.2978 0.5000
-1.2075 2.2431 0.5000
-0.7510 4.7986 0.5000
2.3896 2.0140 0.5000
5.4462 2.7706 0.5000
5.2641 2.6158 0.5000
5.1726 1.9825 0.5000
5.0396 -0.0250 0.5000
4.9968 -0.3729 0.5000
4.3742 -1.6390 0.5000
0.5138 -1.7887 0.5000
-1.4862 -0.5222 0.5000
-2.5361 1.4403 0.5000
-1.7425 1.6597 0.5000
-1.5776 1.8648 0.5000
-1.2931 2.0195 0.5000
-0.6202 1.3232 0.5000
0.3693 2.6749 0.5000
2.0639 1.5276 0.5000
2.3418 1.7864 0.5000
2.2603 1.3193 0.5000
2.5431 1.5430 0.5000
2.3883 1.0695 0.5000
2.6380 1.1856 0.5000
3.0495 0.9684 0.5000
4.6381 0.8841 0.5000
4.5678 0.3344 0.5000
4.4926 -0.1914 0.5000
4.4296 -0.7084 0.5000
4.5402 -1.2780 0.5000
3.6907 -1.5371 0.5000
-1.4754 1.4667 0.5000
0.2056 1.3901 0.5000
0.3935 1.3317 0.5000
0.7958 -1.1492 0.5000
0.1703 -1.0025 0.5000
-0.5227 1.1095 0.5000
0.0156 1.2021 0.5000
0.7801 1.2473 0.5000
-1.3845 1.3357 0.5000
-0.0123 1.3398 0.5000
0.1063 1.4491 0.5000
0.5229 1.6449 0.5000
2.4520 1.3288 0.5000
-2.3959 2.3700 0.5000
-1.3030 1.6544 0.5000
-1.2852 1.6084 0.5000
-1.1461 1.8044 0.5000
-0.9317 1.9413 0.5000
-0.2146 2.2855 0.5000
0.2062 2.0055 0.5000
0.4544 1.8510 0.5000
5.4309 2.3360 0.5000
5.0395 1.7773 0.5000
4.8068 1.1283 0.5000
5.2349 0.9319 0.5000
4.8621 0.5940 0.5000
4.8493 -0.4693 0.5000
3.7431 -1.6500 0.5000
3.6685 -1.6769 0.5000
2.8000 -1.6438 0.5000
0.3825 -1.6313 0.5000
-4.3704 -1.3373 0.5000
-4.1549 -0.5415 0.5000
-4.3877 2.9892 0.5000
-2.5892 2.2557 0.5000
-4.3461 3.8760 0.5000
-2.0761 2.3069 0.5000
-2.0205 2.2755 0.5000
0.4010 2.3902 0.5000
2.3317 2.0361 0.5000
5.5683 3.5865 0.5000
5.2008 0.8051 0.5000
5.0555 0.2108 0.5000
4.6446 -1.8033 0.5000
4.3321 -1.8199 0.5000
2.7638 -1.4726 0.5000
3.4566 -8.9420 0.5000
3.4517 -8.9676 0.5000
2.2945 -8.7756 0.5000
-4.6296 -1.5376 0.5000
-3.8495 3.9799 0.5000
-3.7353 4.8570 0.5000
-3.5589 6.0431 0.5000
5.3670 2.2196 0.5000
5.2179 1.5324 0.5000
3.9161 -1.6252 0.5000
2.7138 -1.4946 0.5000
-3.7769 4.8147 0.5000
-3.5587 6.1185 0.5000
-5.0784 -1.7555 0.5000
-3.9567 3.3328 0.5000
-3.9726 6.5115 0.5000
-3.8064 6.5215 0.5000
-3.0792 6.9180 0.5000
-1.6425 4.9933 0.5000
5.4698 3.0790 0.5000
0.7675 -1.8328 0.5000
3.6399 -8.8628 0.5000
0.5228 -1.8293 0.5000
2.4181 -8.7241 0.5000
-4.9003 -1.7706 0.5000
-5.1213 -1.6276 0.5000
-4.9485 -1.1656 0.5000
-4.8991 -0.0431 0.5000
-2.6487 2.1500 0.5000
-3.6901 5.9000 0.5000
-1.6675 3.5079 0.5000
-1.0925 2.3882 0.5000
-1.0086 4.8312 0.5000
0.7365 5.1119 0.5000
1.9125 4.9536 0.5000
5.6486 4.1062 0.5000
5.5987 3.9736 0.5000
5.4158 3.1286 0.5000
5.1815 2.2406 0.5000
5.1315 1.5809 0.5000
4.6958 -1.5583 0.5000
2.2187 -1.4658 0.5000
3.9448 -8.8209 0.5000
-4.4695 -1.6092 0.5000
-5.0065 -1.1032 0.5000
-3.0480 1.8313 0.5000
-2.4585 1.8904 0.5000
-2.1734 2.1051 0.5000
-1.6194 1.9500 0.5000
-1.5090 2.2955 0.5000
-1.4854 2.2670 0.5000
5.2260 2.3727 0.5000
5.1535 1.7567 0.5000
3.3309 -1.5321 0.5000
0.5514 -1.0876 0.5000
0.3601 -1.4062 0.5000
-1.5509 -0.4810 0.5000
-2.4859 1.5236 0.5000
-2.4513 1.9664 0.5000
-1.3733 1.8007 0.5000
-1.1231 1.5496 0.5000
-0.9068 1.6041 0.5000
-0.5062 1.2357 0.5000
-0.3546 2.2174 0.5000
-0.3426 1.9091 0.5000
-0.1342 2.2914 0.5000
-0.1272 1.9374 0.5000
0.9204 2.1999 0.5000
0.8835 2.1822 0.5000
2.0067 1.4094 0.5000
2.1784 1.5491 0.5000
2.2998 1.2690 0.5000
2.6681 1.0999 0.5000
2.6380 1.0813 0.5000
3.2123 -1.4375 0.5000
2.6501 -1.3655 0.5000
2.2457 -1.3142 0.5000
-1.5268 1.2734 0.5000
-0.5607 1.0990 0.5000
-0.0748 1.4515 0.5000
0.6339 1.3925 0.5000
-0.9560 -0.5005 0.5000
-0.2381 0.9340 0.5000
0.8732 -1.2256 0.5000
0.7707 1.4479 0.5000
0.8575 1.3156 0.5000
2.4860 -1.4564 0.5000
1.7782 -1.3272 0.5000
-1.7845 1.5652 0.5000
-1.1216 1.5864 0.5000
-1.1583 1.6010 0.5000
-0.9437 1.7308 0.5000
-0.9647 1.7138 0.5000
-0.3003 2.1217 0.5000
-0.3745 2.2823 0.5000
-0.0948 2.1727 0.5000
-0.1160 2.3103 0.5000
0.1729 2.3131 0.5000
0.2574 1.5260 0.5000
0.4786 2.6913 0.5000
2.9150 1.6464 0.5000
5.3240 2.7063 0.5000
3.2679 1.4021 0.5000
4.8040 1.4625 0.5000
5.0640 1.2497 0.5000
4.6784 0.3636 0.5000
4.6477 -0.1497 0.5000
4.7565 -0.6767 0.5000
4.6105 -1.1786 0.5000
3.0526 -1.5638 0.5000
1.5594 -1.2952 0.5000
1.6757 -1.3885 0.5000
0.4187 -1.4042 0.5000
0.3125 -1.7975 0.5000
-4.1501 -0.8164 0.5000
-4.2190 -0.5590 0.5000
-2.5142 1.9529 0.5000
-2.5104 2.4147 0.5000
-2.1315 2.1453 0.5000
-2.1336 2.6039 0.5000
-2.0698 2.5456 0.5000
0.4903 2.0449 0.5000
0.8389 2.2236 0.5000
2.4382 4.8365 0.5000
5.7646 4.3228 0.5000
2.4984 1.5441 0.5000
5.5765 3.2284 0.5000
2.8515 -1.7716 0.5000
2.1937 -1.6515 0.5000
0.6492 -1.8573 0.5000
1.8486 -8.7231 0.5000
-4.6144 -1.3263 0.5000
-5.0164 -1.1988 0.5000
-5.0063 -0.5574 0.5000
-4.9546 -0.2587 0.5000
-4.3985 3.2476 0.5000
-3.7954 4.2803 0.5000
-3.6278 5.2257 0.5000
-3.4510 6.4762 0.5000
-3.5100 6.7257 0.5000
-2.1344 5.4668 0.5000
-1.3270 5.0254 0.5000
-1.2715 5.0066 0.5000
2.3000 4.8874 0.5000
5.4189 4.4304 0.5000
5.6218 3.6389 0.5000
5.4431 2.6897 0.5000
5.3418 1.9497 0.5000
3.9549 -1.8283 0.5000
2.6294 -1.6057 0.5000
0.4194 -1.9650 0.5000
-5.0599 -1.5265 0.5000
-5.1145 -1.2792 0.5000
-3.7739 4.3102 0.5000
-3.8449 6.9751 0.5000
-2.8357 6.9400 0.5000
-2.1241 5.4312 0.5000
-1.3572 5.0677 0.5000
5.4044 2.7187 0.5000
5.3614 2.0244 0.5000
5.1048 0.0896 0.5000
3.4336 -2.0815 0.5000
0.4826 -1.3299 0.5000
-3.8756 4.1923 0.5000
-4.0067 5.7668 0.5000
-3.8830 6.9560 0.5000
-1.4041 4.9978 0.5000
-1.3792 5.0077 0.5000
2.3293 -1.3886 0.5000
2.0176 -8.6852 0.5000
-4.4738 3.1171 0.5000
-3.7680 5.1339 0.5000
-3.9209 6.9269 0.5000
-2.2651 5.4475 0.5000
-1.0398 2.5544 0.5000
-1.4071 5.0445 0.5000
-0.3666 1.3211 0.5000
1.5807 5.0003 0.5000
2.1797 4.9583 0.5000
5.5747 3.7343 0.5000
2.7122 -1.4103 0.5000
2.2008 -1.6093 0.5000
2.2673 -8.7005 0.5000
2.2927 -8.6944 0.5000
-4.1939 -1.4039 0.5000
-5.0976 -1.5588 0.5000
-4.8484 0.3166 0.5000
-2.7986 1.8598 0.5000
-2.3030 1.9724 0.5000
-1.7223 2.2992 0.5000
2.2937 2.0512 0.5000
5.5391 3.8729 0.5000
5.2496 2.8975 0.5000
5.3690 2.8911 0.5000
5.2151 2.1666 0.5000
5.0409 1.4703 0.5000
3.5452 -1.6574 0.5000
0.8513 -1.8642 0.5000
-1.6221 -0.6073 0.5000
-2.6619 1.4091 0.5000
-1.7889 1.2710 0.5000
-1.8401 1.6481 0.5000
-1.6532 1.8856 0.5000
-1.3007 1.5674 0.5000
-1.4352 2.1012 0.5000
-1.1599 2.2119 0.5000
0.4226 1.8587 0.5000
2.1815 1.7180 0.5000
2.3581 1.4665 0.5000
2.7347 1.3170 0.5000
3.1046 1.0757 0.5000
4.6828 1.0083 0.5000
4.5812 0.4626 0.5000
4.1605 -1.5757 0.5000
3.2998 -1.4979 0.5000
-1.2548 -0.4514 0.5000
1.0277 1.3100 0.5000
0.6910 1.5798 0.5000
2.3641 1.3081 0.5000
3.0640 -1.5226 0.5000
3.1971 -1.5943 0.5000
-1.3684 -0.4593 0.5000
-1.6993 1.2723 0.5000
-1.3677 1.6078 0.5000
-1.1111 1.7122 0.5000
-0.9172 1.8545 0.5000
-0.2635 2.2957 0.5000
-0.3245 2.4217 0.5000
0.2233 2.0868 0.5000
0.5078 2.3190 0.5000
2.4101 1.5784 0.5000
5.2607 2.4408 0.5000
4.8656 1.8552 0.5000
5.1425 1.6974 0.5000
4.9618 1.2968 0.5000
4.7658 0.7083 0.5000
4.7240 -0.3390 0.5000
4.8088 -0.8535 0.5000
1.9762 -1.4372 0.5000
-5.1550 -1.4525 0.5000
-4.4065 -0.1394 0.5000
-4.4521 1.6706 0.5000
-2.8692 1.9149 0.5000
-2.4198 2.0023 0.5000
-2.4007 2.5170 0.5000
2.6532 4.8279 0.5000
5.2739 2.2404 0.5000
5.3323 2.0299 0.5000
5.0466 0.0487 0.5000
4.6372 -1.6689 0.5000
1.4922 -1.2582 0.5000
3.7053 -8.8040 0.5000
3.6981 -8.8148 0.5000
0.6417 -2.1003 0.5000
-5.0901 -1.6112 0.5000
-5.0287 -1.2010 0.5000
-5.0656 -0.9818 0.5000
-2.6520 2.1667 0.5000
-3.7424 4.6179 0.5000
-2.2333 3.5447 0.5000
-1.6106 3.4940 0.5000
-1.8443 5.4363 0.5000
-1.8031 5.3984 0.5000
-1.0505 4.8579 0.5000
-1.0202 4.8671 0.5000
-0.4381 4.7575 0.5000
0.0574 4.6864 0.5000
0.4122 3.0651 0.5000
0.6219 4.5873 0.5000
1.2981 5.0295 0.5000
1.8950 4.9267 0.5000
1.9323 4.9275 0.5000
5.5435 3.2138 0.5000
5.2783 1.6859 0.5000
4.6410 -1.7867 0.5000
4.5808 -2.3840 0.5000
2.0350 -1.3774 0.5000
-5.1891 -1.7440 0.5000
-3.8853 3.8107 0.5000
-3.7779 4.5095 0.5000
-3.7855 4.7376 0.5000
-3.9839 6.1116 0.5000
-3.6474 5.7852 0.5000
-3.3891 7.0247 0.5000
-1.9708 5.4901 0.5000
-1.1857 5.0390 0.5000
1.8260 4.9671 0.5000
5.5509 3.3447 0.5000
-4.5621 0.4352 0.5000
-3.8319 4.5180 0.5000
-4.0242 6.1368 0.5000
5.3184 1.7034 0.5000
3.8624 -8.7888 0.5000
-5.1650 -1.7683 0.5000
-4.9893 -1.3139 0.5000
-5.0276 -1.0834 0.5000
-4.5324 0.3564 0.5000
-2.7260 2.1186 0.5000
-2.3849 2.3323 0.5000
-3.8016 5.7371 0.5000
-0.8689 2.5194 0.5000
-1.1684 4.8921 0.5000
-1.1096 4.8408 0.5000
-0.5489 4.7434 0.5000
5.6008 4.3430 0.5000
5.6814 4.2547 0.5000
5.5458 3.3609 0.5000
5.3873 2.3101 0.5000
5.3235 1.6389 0.5000
1.5852 -1.2403 0.5000
3.9716 -8.3350 0.5000
1.8503 -8.6194 0.5000
1.2317 -5.6732 0.5000
-5.0850 -1.4843 0.5000
-4.4864 -0.2547 0.5000
-2.7069 1.9756 0.5000
-2.1769 2.0002 0.5000
-2.1729 2.5047 0.5000
-0.9769 2.4513 0.5000
0.4519 2.2980 0.5000
5.2083 2.5288 0.5000
4.9887 0.1169 0.5000
5.0438 -0.0506 0.5000
4.3435 -1.6587 0.5000
3.5884 -1.5686 0.5000
-1.4271 -0.4831 0.5000
-2.4645 1.4438 0.5000
-1.8558 1.4180 0.5000
-1.5285 1.8911 0.5000
-1.1562 1.5706 0.5000
-0.9785 1.6130 0.5000
0.0524 2.1789 0.5000
0.3797 2.5027 0.5000
0.4860 1.7925 0.5000
0.8617 2.2725 0.5000
2.2178 1.6601 0.5000
2.4800 1.4380 0.5000
2.5825 1.1279 0.5000
2.7482 1.1945 0.5000
4.5578 0.2854 0.5000
4.5024 -0.2386 0.5000
4.4265 -0.7526 0.5000
2.8806 -1.4297 0.5000
-1.5752 1.5947 0.5000
-0.8404 1.6203 0.5000
-0.1651 1.7673 0.5000
0.4251 1.6401 0.5000
0.5848 1.6428 0.5000
0.7970 1.6570 0.5000
1.4802 1.1769 0.5000
1.8636 1.1630 0.5000
2.2624 1.0014 0.5000
0.1297 -0.8076 0.5000
2.9363 1.0524 0.5000
4.5932 0.2150 0.5000
3.7917 -1.6798 0.5000
-1.6668 1.1190 0.5000
-1.5558 1.6953 0.5000
0.4927 2.7511 0.5000
2.4160 4.2960 0.5000
4.8365 -1.1389 0.5000
3.6078 -1.8325 0.5000
-4.3464 -1.4076 0.5000
-4.1276 -0.5610 0.5000
-4.6150 -0.3280 0.5000
5.5050 3.1747 0.5000
2.0249 -1.5836 0.5000
-5.2277 -1.8515 0.5000
-2.3142 3.5146 0.5000
-3.6154 6.9547 0.5000
5.6012 3.5193 0.5000
3.6542 -1.7646 0.5000
-4.5635 2.4356 0.5000
0.4519 -2.0391 0.5000
5.5388 4.4797 0.5000
5.4003 3.5380 0.5000
5.4764 3.4560 0.5000
-4.3380 -1.3109 0.5000
-4.8995 -0.2569 0.5000
5.1906 2.8365 0.5000
5.1346 2.1098 0.5000
4.9460 1.4210 0.5000
4.9214 -0.2363 0.5000
3.2336 -1.5135 0.5000
0.6087 -1.3328 0.5000
-1.5392 -0.4174 0.5000
2.8888 1.7535 0.5000
3.1385 1.4393 0.5000
2.9675 0.9948 0.5000
4.6485 0.9313 0.5000
4.5440 -0.1516 0.5000
4.4618 -0.6699 0.5000
4.6190 -1.2540 0.5000
3.0938 -1.4348 0.5000
-1.5509 1.5247 0.5000
0.1517 1.3982 0.5000
2.2603 1.2369 0.5000
2.3911 -1.4176 0.5000
1.7994 -1.3721 0.5000
-1.7365 1.4981 0.5000
1.8152 1.0764 0.5000
3.1574 1.6434 0.5000
4.7333 0.6351 0.5000
4.6263 0.4269 0.5000
4.6479 0.0533 0.5000
4.5641 -0.4740 0.5000
-1.7156 -0.4618 0.5000
-2.5556 1.4992 0.5000
-2.5005 1.8998 0.5000
-2.1160 1.9915 0.5000
-1.9063 1.8084 0.5000
-1.8752 2.2184 0.5000
-1.7587 2.0961 0.5000
-1.6762 2.5554 0.5000
-1.6346 2.4685 0.5000
5.3276 2.4421 0.5000
5.1836 1.2974 0.5000
1.2753 -5.3441 0.5000
-4.2005 -1.3232 0.5000
-4.2195 -0.3230 0.5000
-4.5869 0.4554 0.5000
-4.5451 2.2992 0.5000
0.2238 3.0143 0.5000
5.6534 3.6621 0.5000
5.1821 1.4067 0.5000
-4.9811 -1.0097 0.5000
-3.6980 5.0269 0.5000
-3.9126 6.5599 0.5000
2.0129 -1.4537 0.5000
0.5305 -2.0237 0.5000
-4.0453 0.3084 0.5000
-3.8006 4.8824 0.5000
-3.7625 5.0362 0.5000
-3.6694 6.2102 0.5000
5.2807 2.1707 0.5000
5.0060 -0.5662 0.5000
4.6062 -1.3099 0.5000
4.6031 -2.3343 0.5000
2.4643 -8.7239 0.5000
-4.5065 -1.6230 0.5000
-5.0113 -1.6149 0.5000
-4.9595 -1.1720 0.5000
-5.0335 -0.9546 0.5000
-4.5085 2.8844 0.5000
-1.9435 2.3913 0.5000
-1.7178 2.7056 0.5000
-0.8403 2.5250 0.5000
0.1185 4.6498 0.5000
0.3116 2.3939 0.5000
0.5775 2.3108 0.5000
5.5813 4.0267 0.5000
5.1716 2.2588 0.5000
5.0869 1.5814 0.5000
5.1232 1.4474 0.5000
4.5529 -1.4650 0.5000
1.1596 -5.6285 0.5000
-2.6400 1.8168 0.5000
-2.2885 2.0233 0.5000
-1.7338 1.6370 0.5000
-2.2069 2.4808 0.5000
0.4273 2.0495 0.5000
2.5998 1.6031 0.5000
2.9089 1.4287 0.5000
5.1243 2.4699 0.5000
3.5054 1.2564 0.5000
5.0942 1.7664 0.5000
4.8581 1.0790 0.5000
4.6058 0.5854 0.5000
-1.6377 -0.4739 0.5000
-2.7794 1.3752 0.5000
-1.9550 1.6572 0.5000
-1.6319 1.7653 0.5000
-1.3611 1.8809 0.5000
-1.0658 1.5472 0.5000
-1.1924 2.1480 0.5000
-0.8529 1.6538 0.5000
-0.3739 2.4523 0.5000
-0.3206 2.0863 0.5000
0.1570 2.2339 0.5000
0.6055 2.0632 0.5000
0.9550 2.2052 0.5000
2.0359 1.6946 0.5000
2.1285 1.4079 0.5000
2.6090 1.3594 0.5000
2.8501 1.0838 0.5000
4.6086 0.6005 0.5000
4.5360 0.0646 0.5000
4.3925 -0.9910 0.5000
1.7332 1.1394 0.5000
0.8645 -1.1468 0.5000
0.5205 1.3738 0.5000
2.0725 1.1096 0.5000
-1.3141 -0.3969 0.5000
-0.7297 1.5886 0.5000
-0.7726 1.6144 0.5000
-0.1976 1.8183 0.5000
-0.2073 1.9411 0.5000
0.0332 1.7129 0.5000
0.6467 1.7714 0.5000
0.9777 1.9698 0.5000
2.2961 1.4619 0.5000
2.6002 1.2856 0.5000
5.0962 2.1719 0.5000
2.7827 1.0191 0.5000
4.9716 1.4910 0.5000
4.7397 1.1524 0.5000
5.0649 0.8966 0.5000
4.6503 0.6255 0.5000
4.9881 0.2927 0.5000
4.5750 0.1406 0.5000
4.8274 -0.2834 0.5000
4.5048 -0.3549 0.5000
4.5141 -0.8997 0.5000
0.4737 -1.2535 0.5000
0.3133 -1.2775 0.5000
-5.1138 -1.3188 0.5000
-4.4932 1.6469 0.5000
-2.8339 1.5152 0.5000
-2.8350 1.9070 0.5000
-2.6885 1.8587 0.5000
-2.2895 1.9740 0.5000
-2.1570 1.8879 0.5000
-1.8473 2.0181 0.5000
-1.9588 2.7195 0.5000
-1.8036 2.5020 0.5000
4.5046 -1.6852 0.5000
-5.0399 -1.5137 0.5000
-4.3669 -1.0117 0.5000
-5.0596 -0.9496 0.5000
-4.2227 -0.4791 0.5000
-1.8931 2.4267 0.5000
-1.4447 2.3523 0.5000
-1.5902 2.6374 0.5000
-1.0700 2.3014 0.5000
0.6650 4.5883 0.5000
5.6285 4.1750 0.5000
5.0727 0.4260 0.5000
3.0088 -1.5661 0.5000
-5.1914 -1.6934 0.5000
-4.5476 0.4731 0.5000
-3.8896 3.7075 0.5000
-3.8479 3.8630 0.5000
-3.7348 4.7351 0.5000
-3.9730 6.1697 0.5000
-3.6382 5.8065 0.5000
-1.8575 5.3900 0.5000
-1.1136 4.9016 0.5000
5.7640 4.3546 0.5000
5.4531 2.4596 0.5000
-3.9462 3.7182 0.5000
-3.8340 4.5855 0.5000
-4.0139 6.1537 0.5000
-3.4909 6.9631 0.5000
-3.3413 6.9990 0.5000
-1.8740 5.4735 0.5000
5.4496 3.2502 0.5000
-4.9600 -1.2546 0.5000
-3.9502 3.6960 0.5000
-4.0561 6.1583 0.5000
-1.7558 2.7702 0.5000
-1.1068 4.8528 0.5000
1.2173 5.0513 0.5000
5.6599 4.1780 0.5000
4.0150 -1.8202 0.5000
3.9381 -8.4849 0.5000
3.9303 -8.5584 0.5000
1.7603 -8.6603 0.5000
1.7587 -8.6055 0.5000
-4.8740 -1.8069 0.5000
-4.3201 -1.2010 0.5000
-4.4530 0.3190 0.5000
-4.7029 1.4495 0.5000
-4.6600 1.7879 0.5000
-2.8049 2.0980 0.5000
-2.5113 2.3680 0.5000
-0.9626 2.5103 0.5000
-0.0420 2.4633 0.5000
0.2944 2.9951 0.5000
0.6719 2.0294 0.5000
2.5253 2.0368 0.5000
2.5149 1.6251 0.5000
5.2568 2.5540 0.5000
4.9737 0.0580 0.5000
1.3346 -5.2970 0.5000
0.4755 -1.7288 0.5000
5.2021 2.6648 0.5000
5.1657 2.6189 0.5000
4.9910 1.8996 0.5000
4.7464 1.2313 0.5000
4.6042 0.1675 0.5000
0.0156 1.8242 0.5000
-0.0013 1.5654 0.5000
0.8250 1.7183 0.5000
1.8297 1.1475 0.5000
-0.1319 1.2761 0.5000
1.0538 1.2890 0.5000
0.3284 -1.2499 0.5000
-1.4591 1.2375 0.5000
-1.3747 1.4456 0.5000
2.9701 1.0752 0.5000
3.8499 -1.6998 0.5000
-2.4009 1.6203 0.5000
-1.8087 1.5650 0.5000
-1.0201 1.8647 0.5000
0.5519 1.8753 0.5000
5.4895 2.8166 0.5000
4.8866 0.9135 0.5000
3.0404 -1.5143 0.5000
3.4793 -7.9377 0.5000
-0.8642 -0.4494 0.5000
-4.1902 -0.3212 0.5000
-2.3182 2.8330 0.5000
5.7748 4.2746 0.5000
5.5588 3.1687 0.5000
1.7543 -8.7081 0.5000
-4.6964 -1.3112 0.5000
-3.9879 5.8047 0.5000
-1.8905 2.8432 0.5000
-3.4829 6.6246 0.5000
-3.4078 6.6492 0.5000
3.9468 -1.8822 0.5000
2.5942 -1.6152 0.5000
-5.1067 -1.2002 0.5000
-3.6653 5.2341 0.5000
-3.9120 5.8068 0.5000
-3.7522 6.9799 0.5000
-3.6072 6.9130 0.5000
-2.2023 5.5367 0.5000
5.6525 3.6406 0.5000
3.9760 -1.8630 0.5000
-5.0987 -1.2144 0.5000
-4.5576 2.3920 0.5000
-3.8394 4.2756 0.5000
-3.9176 5.7828 0.5000
-2.0918 5.3991 0.5000
-1.3458 4.9870 0.5000
5.4683 2.7277 0.5000
0.4503 -1.9698 0.5000
-2.4998 2.2486 0.5000
-3.7377 5.1847 0.5000
-2.2280 5.4010 0.5000
5.3585 4.4834 0.5000
5.4911 4.4851 0.5000
5.3984 3.5842 0.5000
5.4950 3.5043 0.5000
5.0507 0.5171 0.5000
4.7700 -1.2451 0.5000
2.9014 -1.6642 0.5000
-2.7088 1.8051 0.5000
-2.3754 2.0058 0.5000
-1.3053 2.2373 0.5000
-4.1160 -0.9318 0.5000
-4.5991 1.2315 0.5000
-1.8849 1.4939 0.5000
-1.6320 1.9224 0.5000
-1.9205 2.9078 0.5000
-1.3789 2.1664 0.5000
0.3921 3.1217 0.5000
2.2740 1.7489 0.5000
2.4621 1.9403 0.5000
3.5332 1.6283 0.5000
4.7389 1.5763 0.5000
4.9559 1.5907 0.5000
4.5491 -0.0261 0.5000
4.9746 -0.1847 0.5000
4.8544 -0.7531 0.5000
-1.8472 1.4499 0.5000
-0.9104 1.5150 0.5000
-0.1167 1.7469 0.5000
0.9603 1.3246 0.5000
0.1971 -0.9611 0.5000
-1.5599 1.3992 0.5000
-1.4494 1.2679 0.5000
-0.0705 1.5987 0.5000
0.6503 1.5417 0.5000
2.0736 1.3949 0.5000
1.9039 1.1044 0.5000
2.0429 1.0371 0.5000
2.6700 0.9846 0.5000
3.3019 1.0464 0.5000
4.5685 0.0355 0.5000
4.4695 -0.4523 0.5000
3.1594 -1.5397 0.5000
-1.6473 -0.5585 0.5000
-1.8209 1.7227 0.5000
-2.3962 2.2465 0.5000
-1.2626 1.8926 0.5000
-0.2993 2.4531 0.5000
4.9251 1.2706 0.5000
0.7180 -1.3831 0.5000
0.7245 -1.8823 0.5000
1.3285 -5.3658 0.5000
1.3702 -5.3613 0.5000
-4.3974 -1.2071 0.5000
-4.1687 -0.8622 0.5000
-4.3536 3.6177 0.5000
-2.4445 2.0994 0.5000
-2.2248 2.3535 0.5000
-2.2799 2.4614 0.5000
-0.1405 2.2049 0.5000
0.5848 2.0360 0.5000
4.7979 -1.3099 0.5000
4.0241 -2.0526 0.5000
3.6570 -8.9761 0.5000
3.6407 -8.9710 0.5000
-4.8459 -1.7036 0.5000
-5.1581 -1.5605 0.5000
-3.5953 5.8413 0.5000
-3.5600 5.9874 0.5000
-1.7565 5.3466 0.5000
0.6914 4.6105 0.5000
5.7278 4.1831 0.5000
3.9991 -1.5932 0.5000
4.5683 -2.4640 0.5000
-5.1760 -1.6328 0.5000
-3.9357 3.8264 0.5000
-3.7717 4.6521 0.5000
-3.9788 6.2993 0.5000
-3.6319 5.9368 0.5000
-1.7780 5.4326 0.5000
0.7088 5.0463 0.5000
5.4512 3.1980 0.5000
5.4133 2.3752 0.5000
4.7592 -1.2868 0.5000
-3.8040 4.6723 0.5000
-4.0065 6.3126 0.5000
-3.6486 5.9541 0.5000
-3.3580 6.9933 0.5000
-0.4596 4.7471 0.5000
0.7037 5.0794 0.5000
5.6819 4.2136 0.5000
4.5597 -1.7716 0.5000
-4.5052 -1.7053 0.5000
-5.0892 -1.7161 0.5000
-4.4594 3.2615 0.5000
-3.9555 3.7221 0.5000
-1.7118 3.4589 0.5000
-1.9010 5.3340 0.5000
2.2015 -1.6883 0.5000
3.9376 -8.3004 0.5000
-4.3191 -1.0267 0.5000
-4.5844 -0.5269 0.5000
-2.2300 2.2921 0.5000
-1.6863 2.7030 0.5000
-0.2144 2.5249 0.5000
0.5215 2.0398 0.5000
0.8752 2.2472 0.5000
5.3887 3.0934 0.5000
5.3351 2.9697 0.5000
4.9470 -0.6960 0.5000
1.6344 -1.2677 0.5000
0.6005 -1.7915 0.5000
-2.2124 1.9551 0.5000
-1.9906 2.2387 0.5000
-1.4697 1.7429 0.5000
-1.7801 2.5631 0.5000
-1.2457 1.8706 0.5000
-1.1034 2.1458 0.5000
0.4316 2.0675 0.5000
2.8274 2.2701 0.5000
2.4297 1.9996 0.5000
5.0702 2.4630 0.5000
3.2424 1.1723 0.5000
4.9544 1.7381 0.5000
4.7367 1.0700 0.5000
4.6675 0.4979 0.5000
4.6912 -0.0460 0.5000
4.6187 -0.5852 0.5000
4.4140 -0.8657 0.5000
-1.8770 1.3901 0.5000
-0.1309 1.5985 0.5000
0.3718 1.5519 0.5000
0.6343 1.5660 0.5000
2.0461 1.1527 0.5000
-1.6979 1.4394 0.5000
-1.6093 1.3368 0.5000
-1.4432 1.5075 0.5000
0.0967 1.5715 0.5000
0.6570 1.6796 0.5000
0.8275 1.5838 0.5000
2.1861 1.5725 0.5000
2.5083 1.3870 0.5000
2.8328 1.1053 0.5000
4.6754 0.7264 0.5000
4.4092 -0.9375 0.5000
-2.7342 1.4649 0.5000
-1.9245 1.7254 0.5000
-2.4043 2.1582 0.5000
-1.6976 1.9263 0.5000
-1.5740 1.7798 0.5000
-1.4368 2.0794 0.5000
-1.3954 1.9946 0.5000
-1.2804 2.3609 0.5000
-1.0016 2.4832 0.5000
-0.2214 1.4119 0.5000
-0.0959 2.1011 0.5000
5.2835 2.8003 0.5000
5.3041 2.6302 0.5000
4.9559 1.4450 0.5000
-4.1845 -1.4596 0.5000
-4.5870 -1.3749 0.5000
-5.0532 -0.8528 0.5000
-2.7408 2.1688 0.5000
-3.0668 2.5254 0.5000
-2.3251 2.4100 0.5000
0.4089 2.9851 0.5000
5.3756 2.3618 0.5000
4.5002 -1.7296 0.5000
2.3098 -1.4699 0.5000
3.7361 -8.6623 0.5000
-4.9913 -1.2405 0.5000
-4.4484 0.4390 0.5000
-2.2244 3.5603 0.5000
5.6025 3.3448 0.5000
-4.0123 6.0883 0.5000
-3.6676 5.7595 0.5000
4.5882 -2.3448 0.5000
-4.0559 6.1193 0.5000
5.4498 2.5099 0.5000
3.9148 -8.6339 0.5000
1.7076 -8.6196 0.5000
-4.9890 -0.7522 0.5000
-2.7846 2.1046 0.5000
-2.3538 3.4559 0.5000
-1.8074 3.4723 0.5000
-2.0388 5.3702 0.5000
-4.9993 -0.8235 0.5000
-2.6052 2.2453 0.5000
-0.8523 4.7624 0.5000
-0.1190 2.1716 0.5000
0.1334 2.1232 0.5000
0.6644 2.2801 0.5000
5.4261 3.7001 0.5000
5.1324 1.9653 0.5000
5.0628 1.4119 0.5000
1.4572 -1.2095 0.5000
0.6284 -1.4288 0.5000
-2.0412 1.8901 0.5000
-1.3198 1.6229 0.5000
-0.9639 1.9809 0.5000
0.3648 2.9396 0.5000
2.5321 1.9279 0.5000
2.1976 1.6630 0.5000
2.9602 1.8023 0.5000
2.7459 1.2874 0.5000
3.3980 1.5634 0.5000
2.9474 0.9878 0.5000
4.7327 1.5397 0.5000
4.7087 0.9584 0.5000
4.5058 -0.6720 0.5000
-1.6151 1.5738 0.5000
0.2009 -0.9769 0.5000
2.2345 1.1987 0.5000
-1.6910 1.4547 0.5000
-0.0842 1.6982 0.5000
0.0963 1.7961 0.5000
0.8581 2.0442 0.5000
2.9797 1.5482 0.5000
2.3363 1.0340 0.5000
3.2938 1.2506 0.5000
3.1962 0.8039 0.5000
3.2363 -1.5885 0.5000
-1.6908 -0.4720 0.5000
-2.5027 1.4599 0.5000
-2.0343 1.9108 0.5000
-1.8211 2.1667 0.5000
-1.6912 2.0083 0.5000
-1.6007 2.4367 0.5000
-1.2454 2.4857 0.5000
-1.3456 2.6339 0.5000
-0.2871 2.4074 0.5000
-4.1939 -1.3214 0.5000
-4.4490 0.4673 0.5000
-0.1216 2.4858 0.5000
5.7086 3.9240 0.5000
5.2927 2.1251 0.5000
4.5726 -2.4116 0.5000
0.5231 -1.9079 0.5000
-4.0004 6.5445 0.5000
-3.0565 6.8888 0.5000
5.6329 4.0275 0.5000
5.3215 2.2086 0.5000
3.6872 -8.8859 0.5000
-2.3569 2.5008 0.5000
-3.8558 6.3817 0.5000
-1.5646 2.6836 0.5000
-1.1258 2.5665 0.5000
5.6219 3.8375 0.5000
3.7808 -8.9066 0.5000
-5.1599 -1.9117 0.5000
-4.5300 -1.5232 0.5000
-2.3855 1.9061 0.5000
-2.1703 2.1800 0.5000
-1.5454 2.4120 0.5000
0.4199 3.1739 0.5000
2.4886 4.9045 0.5000
5.1844 2.3249 0.5000
-2.8301 1.3673 0.5000
-1.7349 1.8732 0.5000
-1.4581 2.0127 0.5000
-1.1336 1.6121 0.5000
-0.9545 1.7798 0.5000
-0.3377 2.1574 0.5000
-0.0967 2.2773 0.5000
0.1946 2.4244 0.5000
0.3966 2.0029 0.5000
2.2019 1.8350 0.5000
2.2796 1.5101 0.5000
2.7023 1.4142 0.5000
3.0909 1.1725 0.5000
4.4430 -0.9628 0.5000
-1.6136 1.4374 0.5000
0.5095 1.3218 0.5000
0.1552 -0.8952 0.5000
-0.1028 1.3494 0.5000
0.4629 1.3349 0.5000
1.9804 -1.3752 0.5000
-0.7135 1.5240 0.5000
-0.1992 1.8629 0.5000
0.0323 1.6871 0.5000
0.9140 1.8471 0.5000
2.6529 1.9928 0.5000
2.0995 1.3445 0.5000
2.8242 1.6472 0.5000
3.5151 1.5301 0.5000
3.3708 0.8363 0.5000
4.7521 0.8780 0.5000
4.7076 0.2843 0.5000
4.4928 -0.3749 0.5000
4.7135 -0.8286 0.5000
-4.6296 0.4980 0.5000
-2.0461 1.7080 0.5000
-1.9145 2.0843 0.5000
4.9975 -0.2165 0.5000
4.4449 -1.7593 0.5000
0.9223 -5.7066 0.5000
-4.1601 -0.4955 0.5000
-4.7509 1.0966 0.5000
-1.4711 2.4102 0.5000
2.4043 4.6486 0.5000
5.3300 2.3838 0.5000
5.1528 0.4451 0.5000
-5.2032 -1.7263 0.5000
-4.7195 0.4513 0.5000
-4.5949 1.9497 0.5000
-3.7426 4.6511 0.5000
-3.9735 6.0657 0.5000
5.6203 3.3860 0.5000
-4.0107 6.0465 0.5000
-3.4068 7.0003 0.5000
5.5824 3.3813 0.5000
0.5536 -1.7468 0.5000
-4.4412 0.3834 0.5000
5.5824 3.2936 0.5000
3.8329 -8.7949 0.5000
-4.5388 0.4068 0.5000
-0.5513 4.7495 0.5000
5.2243 2.4201 0.5000
3.8563 -8.1568 0.5000
-4.4869 -0.2431 0.5000
-2.2389 2.5862 0.5000
-0.9600 2.4145 0.5000
5.1822 1.8073 0.5000
4.8253 0.1083 0.5000
-1.4715 1.8293 0.5000
-1.1857 1.9033 0.5000
-0.4888 2.3962 0.5000
-0.1850 2.1996 0.5000
4.4957 -0.2367 0.5000
-0.8645 1.6063 0.5000
-0.2572 1.8604 0.5000
-0.0465 1.8835 0.5000
0.3123 1.5746 0.5000
0.4675 2.4125 0.5000
0.5667 1.8140 0.5000
0.7855 1.7760 0.5000
2.2987 1.5978 0.5000
2.5624 1.3948 0.5000
2.5208 1.0384 0.5000
3.0191 0.8718 0.5000
4.7295 -0.0930 0.5000
4.5749 -0.2326 0.5000
4.5091 -0.7136 0.5000
0.2415 -1.4377 0.5000
-4.5134 1.4170 0.5000
-2.6643 2.0884 0.5000
-2.2588 1.8083 0.5000
-1.9572 1.9738 0.5000
-1.6202 2.0488 0.5000
5.5186 3.0901 0.5000
4.9484 -0.6233 0.5000
1.7073 -8.6944 0.5000
-4.4407 -1.2252 0.5000
-1.8886 2.7889 0.5000
-3.5515 6.8416 0.5000
-1.1819 2.3209 0.5000
-0.9661 2.5932 0.5000
0.3004 3.0197 0.5000
1.6480 4.8330 0.5000
1.7401 4.9467 0.5000
5.4530 4.3830 0.5000
5.2634 1.8775 0.5000
0.4547 -2.1580 0.5000
3.4053 -2.1003 0.5000
-3.6814 6.9427 0.5000
-2.2641 5.5712 0.5000
5.6438 3.6757 0.5000
-4.4590 0.3640 0.5000
-4.4076 3.5601 0.5000
-3.9066 4.0108 0.5000
-3.8071 4.9702 0.5000
5.1452 4.5342 0.5000
5.2695 4.5440 0.5000
5.5807 3.7756 0.5000
2.8343 -1.4099 0.5000
3.7397 -8.8663 0.5000
2.5268 -8.7197 0.5000
1.5515 -5.3161 0.5000
-4.1589 -1.5294 0.5000
-4.2411 -0.3552 0.5000
-4.5561 2.6330 0.5000
-2.9005 1.8216 0.5000
-2.7969 2.0929 0.5000
-2.3189 1.8567 0.5000
-2.3963 2.2905 0.5000
-1.9209 2.3357 0.5000
-1.5896 2.0154 0.5000
-1.3880 2.2390 0.5000
2.1765 1.6354 0.5000
2.7186 1.6029 0.5000
2.7271 1.5901 0.5000
5.1456 2.2597 0.5000
4.9214 1.5687 0.5000
5.1211 1.0499 0.5000
4.9797 -0.2881 0.5000
-1.7372 1.2417 0.5000
-1.4874 1.5823 0.5000
-1.2663 1.7213 0.5000
-1.0995 1.5711 0.5000
-1.0321 1.8273 0.5000
-0.8425 1.5457 0.5000
-0.2981 1.8289 0.5000
0.3307 1.7245 0.5000
0.5293 1.7963 0.5000
0.9533 2.1349 0.5000
3.0318 -1.4151 0.5000
-1.4425 1.2371 0.5000
0.5153 1.4621 0.5000
0.7216 1.1941 0.5000
3.2066 1.0901 0.5000
2.0714 -1.4018 0.5000
-1.0191 1.5653 0.5000
-0.8474 1.7929 0.5000
-0.8817 1.7988 0.5000
0.7186 2.0193 0.5000
1.0478 2.1429 0.5000
2.7930 1.3909 0.5000
5.2063 2.2782 0.5000
3.2711 1.2017 0.5000
4.9823 1.5266 0.5000
3.3300 0.8274 0.5000
5.1159 0.9336 0.5000
4.6265 0.1130 0.5000
4.5577 -0.3869 0.5000
4.4881 -0.8786 0.5000
-4.1678 -0.5652 0.5000
-2.7970 1.9068 0.5000
-2.3011 2.0064 0.5000
5.6640 3.7411 0.5000
5.3120 2.6778 0.5000
5.1871 1.4663 0.5000
3.6295 -8.9496 0.5000
-4.4129 -1.5508 0.5000
-2.3813 2.4304 0.5000
-1.8437 2.4159 0.5000
-3.6070 5.8829 0.5000
-1.6415 2.7502 0.5000
-1.7437 5.3432 0.5000
-1.6493 5.1207 0.5000
-0.3903 4.7523 0.5000
5.7026 4.2245 0.5000
0.5596 -1.9136 0.5000
0.5711 -1.9995 0.5000
-3.9724 6.2375 0.5000
-1.6691 3.5904 0.5000
-1.8315 5.4988 0.5000
-4.4279 -1.6759 0.5000
-5.0313 -1.7010 0.5000
5.4184 3.2383 0.5000
4.6285 -1.4342 0.5000
3.3978 -1.5045 0.5000
3.9376 -8.2671 0.5000
1.2336 -5.6343 0.5000
-4.5072 3.0430 0.5000
-2.4626 2.7268 0.5000
-1.6907 1.9673 0.5000
-1.6838 2.4757 0.5000
0.4405 2.2228 0.5000
4.8174 0.6414 0.5000
4.8652 0.1143 0.5000
4.6759 -0.3971 0.5000
-2.4213 1.4435 0.5000
-1.2767 1.5739 0.5000
-1.0523 1.6702 0.5000
-0.8866 1.8089 0.5000
0.6901 1.7599 0.5000
1.6867 1.2891 0.5000
1.9575 1.1695 0.5000
2.4067 1.0829 0.5000
0.6432 1.2505 0.5000
3.1224 0.8422 0.5000
-0.0730 2.3376 0.5000
3.1514 1.7304 0.5000
3.4669 1.4385 0.5000
5.1227 1.8313 0.5000
4.7545 0.8421 0.5000
4.7043 0.3093 0.5000
4.6931 -0.2044 0.5000
4.8473 -1.3037 0.5000
4.4458 -1.7406 0.5000
0.5442 -1.8885 0.5000
0.3331 -1.9018 0.5000
-4.2760 -0.5425 0.5000
-4.4624 0.4577 0.5000
-2.5489 2.0402 0.5000
-1.4161 2.3262 0.5000
1.8283 4.8389 0.5000
2.5049 4.8438 0.5000
5.6878 4.1107 0.5000
2.5511 1.5425 0.5000
3.9434 -1.8243 0.5000
3.6178 -1.7547 0.5000
-4.9904 -1.7495 0.5000
-1.8051 2.7680 0.5000
-3.4185 6.6547 0.5000
-3.4413 6.8447 0.5000
-1.9525 5.4220 0.5000
2.3566 4.8971 0.5000
0.4024 -1.9460 0.5000
0.3907 -1.9078 0.5000
-5.0485 -1.4390 0.5000
-2.1383 5.5013 0.5000
-3.6867 6.8654 0.5000
-2.2634 5.5178 0.5000
-2.1462 5.3997 0.5000
5.5937 3.6916 0.5000
3.4504 -1.5474 0.5000
2.1107 -8.6790 0.5000
2.0968 -8.6796 0.5000
-4.5745 -1.4557 0.5000
-4.9438 -0.3939 0.5000
-4.4557 3.0623 0.5000
-3.9120 4.1155 0.5000
-3.6282 6.2891 0.5000
-2.3119 5.3984 0.5000
-0.8149 4.7856 0.5000
0.1720 2.9053 0.5000
1.4558 4.8296 0.5000
5.3460 4.5246 0.5000
5.3933 3.6817 0.5000
4.5645 -1.3478 0.5000
1.5066 -5.2934 0.5000
1.5300 -5.3135 0.5000
-2.8515 1.3925 0.5000
-2.6122 1.6656 0.5000
-2.5131 1.9015 0.5000
-2.0505 1.6660 0.5000
-2.2640 2.1865 0.5000
-1.8573 1.8968 0.5000
4.9143 2.8418 0.5000
5.2634 3.0315 0.5000
5.1155 2.2069 0.5000
4.9361 1.5494 0.5000
4.7188 0.9341 0.5000
4.5709 -0.1025 0.5000
4.5180 -0.5949 0.5000
4.5164 -1.1003 0.5000
4.4041 -1.5951 0.5000
0.3436 1.8116 0.5000
1.7479 1.1830 0.5000
2.8639 1.1441 0.5000
-1.5801 1.1733 0.5000
-1.4771 -0.4571 0.5000
-1.3614 1.6947 0.5000
-1.1671 1.8597 0.5000
-1.1846 1.8485 0.5000
-0.9948 2.0874 0.5000
-1.0214 2.0783 0.5000
-0.2723 2.3489 0.5000
4.9609 2.4359 0.5000
5.0494 1.8281 0.5000
5.1814 1.5753 0.5000
4.9187 1.1964 0.5000
4.8593 0.6367 0.5000
4.8496 -0.4345 0.5000
4.1297 -1.7746 0.5000
2.6648 -1.5301 0.5000
0.4428 -1.8984 0.5000
1.2930 -5.3573 0.5000
-4.3409 -1.1192 0.5000
4.9793 -0.3070 0.5000
2.9875 -1.5695 0.5000
3.5068 -8.9533 0.5000
-0.3465 4.7516 0.5000
-1.6913 5.3059 0.5000
-3.7567 6.3965 0.5000
3.9609 -1.6001 0.5000
2.6992 -1.4762 0.5000
-3.2396 6.9470 0.5000
-1.6106 3.5944 0.5000
4.0484 -1.9605 0.5000
3.8674 -8.8939 0.5000
-4.2765 -1.0859 0.5000
-4.5536 2.5556 0.5000
4.9342 -0.5961 0.5000
0.6724 -1.3545 0.5000
1.3030 -5.6356 0.5000
-2.8922 1.4030 0.5000
-2.6565 1.7158 0.5000
-1.6371 2.2219 0.5000
-1.1942 1.6973 0.5000
-1.3535 2.3908 0.5000
-0.3799 2.3557 0.5000
2.2925 1.9355 0.5000
2.7729 1.8847 0.5000
2.8894 1.5135 0.5000
2.7204 1.0566 0.5000
3.3519 1.2872 0.5000
4.5978 0.0826 0.5000
4.5421 -0.4435 0.5000
2.9369 -1.3973 0.5000
0.6735 -1.1401 0.5000
0.2122 -1.0384 0.5000
0.1529 -0.9216 0.5000
-0.1616 1.6287 0.5000
0.8659 1.7822 0.5000
1.0688 2.1732 0.5000
2.8241 1.6688 0.5000
3.2247 1.4282 0.5000
3.5318 1.0933 0.5000
3.2548 0.8301 0.5000
4.6626 0.3093 0.5000
4.4783 -0.7867 0.5000
-4.1511 -0.6006 0.5000
-2.4650 1.6557 0.5000
-1.8173 1.9459 0.5000
-1.4569 1.9683 0.5000
-1.5004 2.6271 0.5000
-1.4865 2.5712 0.5000
-0.2446 1.3954 0.5000
2.3681 4.2952 0.5000
5.1331 1.2917 0.5000
5.5556 3.1363 0.5000
4.5921 -1.6861 0.5000
-4.6365 0.3946 0.5000
-1.7327 3.5029 0.5000
3.8774 -1.8578 0.5000
3.7727 -1.7949 0.5000
-4.0853 5.7941 0.5000
-3.7604 6.9463 0.5000
-3.8029 6.9106 0.5000
-2.1829 5.3892 0.5000
-1.0032 2.5441 0.5000
5.4916 3.5873 0.5000
3.6041 -1.6186 0.5000
2.6231 -1.4318 0.5000
-4.6600 1.8014 0.5000
-2.7102 2.3376 0.5000
-1.6787 2.2981 0.5000
5.3346 2.8630 0.5000
5.3523 2.8003 0.5000
-2.5943 1.4145 0.5000
-1.7901 1.6424 0.5000
-1.6206 1.8926 0.5000
-1.3514 2.0283 0.5000
0.9906 2.0719 0.5000
2.0435 1.5773 0.5000
2.3602 1.8615 0.5000
2.9719 1.0044 0.5000
4.6547 0.9705 0.5000
4.5797 0.4158 0.5000
4.4449 -0.6313 0.5000
4.6795 -1.2297 0.5000
3.1670 -1.4514 0.5000
-0.1332 1.9688 0.5000
0.0955 1.6560 0.5000
1.0097 1.8529 0.5000
3.4792 1.8318 0.5000
2.2475 0.9849 0.5000
5.0380 1.9305 0.5000
2.9238 0.9416 0.5000
4.8124 1.2278 0.5000
5.0486 0.0859 0.5000
4.7481 -0.4735 0.5000
4.6471 -1.0257 0.5000
4.4120 -1.0545 0.5000
-4.6026 1.2731 0.5000
-2.7287 1.5874 0.5000
-2.2192 2.0676 0.5000
-1.7299 2.5938 0.5000
2.0704 -8.7692 0.5000
-0.9931 2.3787 0.5000
1.9939 -1.4582 0.5000
0.7698 -1.9979 0.5000
-4.3398 3.5126 0.5000
-3.8304 3.9370 0.5000
-2.0649 3.5744 0.5000
4.5407 -2.5238 0.5000
-5.1624 -1.5256 0.5000
-3.7228 4.9353 0.5000
-3.9344 6.4241 0.5000
-3.2348 7.0168 0.5000
4.0958 -1.6548 0.5000
-3.9788 6.4416 0.5000
-3.6130 6.0754 0.5000
3.6574 -8.9296 0.5000
2.4571 -8.7513 0.5000
-3.8160 4.7116 0.5000
-3.6808 5.8338 0.5000
-1.7124 5.0559 0.5000
5.1929 1.6151 0.5000
3.9167 -8.6620 0.5000
1.6637 -8.5997 0.5000
1.1123 -5.6547 0.5000
-4.4020 -1.6135 0.5000
-2.1660 2.0735 0.5000
-2.3947 2.7568 0.5000
5.0772 1.6646 0.5000
5.1000 1.1592 0.5000
-0.9384 2.1033 0.5000
-0.4032 2.1813 0.5000
-0.1564 2.4011 0.5000
0.1123 2.2109 0.5000
0.9265 2.2094 0.5000
0.8089 2.0440 0.5000
1.9978 1.0978 0.5000
2.3012 1.2859 0.5000
2.5807 1.0740 0.5000
3.1308 0.9043 0.5000
2.7343 -1.3938 0.5000
-1.5149 1.2437 0.5000
-0.2724 0.8839 0.5000
2.1423 1.2234 0.5000
-0.8209 1.6509 0.5000
-0.2282 1.8903 0.5000
0.1651 1.6043 0.5000
0.4719 2.1644 0.5000
0.5377 2.5528 0.5000
1.0105 2.1725 0.5000
2.9978 1.1718 0.5000
3.0962 0.8383 0.5000
4.6489 0.2119 0.5000
4.6360 -0.2988 0.5000
4.2355 -1.7597 0.5000
2.1416 -1.5067 0.5000
2.1131 -1.4914 0.5000
-4.2522 -1.2311 0.5000
-2.4311 1.9808 0.5000
0.4838 3.1136 0.5000
0.4738 3.1520 0.5000
2.4495 4.5598 0.5000
5.0922 1.3378 0.5000
2.1422 -1.7519 0.5000
3.6591 -8.3762 0.5000
1.5256 -8.5421 0.5000
1.5716 -8.6770 0.5000
-4.3748 -1.1159 0.5000
-1.8192 2.8079 0.5000
